<svg xmlns="http://www.w3.org/2000/svg" width="60" height="61" fill="none" xmlns:v="https://vecta.io/nano"><path d="M15.262 16.207l-5.198.402a4.64 4.64 0 0 0-3.535 2.08L.535 27.755a3.2 3.2 0 0 0-.258 3.072 3.2 3.2 0 0 0 2.447 1.875l4.76.737c1.113-5.91 3.78-11.803 7.78-17.233z" fill="url(#A)"/><path d="M26.564 52.52l.737 4.76a3.2 3.2 0 0 0 1.875 2.447c.418.185.86.277 1.302.277.62 0 1.234-.18 1.77-.535l9.067-5.995c1.2-.8 1.968-2.088 2.08-3.534l.402-5.198c-5.43 4-11.324 6.666-17.233 7.78z" fill="url(#A)"/><path d="M24.774 49.222a3.03 3.03 0 0 0 .497-.041c2.475-.414 4.86-1.11 7.137-2.024L12.846 27.595c-.913 2.276-1.6 4.662-2.024 7.137-.163.976.164 1.97.864 2.67L22.6 48.317a3.08 3.08 0 0 0 2.172.905z" fill="url(#A)"/><path d="M55.216 26.605C60.003 17.35 60.18 7.57 59.93 2.984a3.08 3.08 0 0 0-2.91-2.91 48.36 48.36 0 0 0-2.629-.07c-5.13 0-13.244.777-20.992 4.784C27.24 7.973 19.167 14.985 14.404 24.2a1.77 1.77 0 0 1 .163.142L35.66 45.437a1.78 1.78 0 0 1 .142.163c9.216-4.764 16.228-12.837 19.413-18.994zm-20.33-13.917a8.8 8.8 0 0 1 12.429 0 8.73 8.73 0 0 1 2.574 6.215 8.73 8.73 0 0 1-2.574 6.215c-1.713 1.713-3.964 2.57-6.215 2.57a8.76 8.76 0 0 1-6.215-2.57 8.73 8.73 0 0 1-2.574-6.215 8.73 8.73 0 0 1 2.574-6.215z" fill="url(#A)"/><path d="M37.372 22.632a5.28 5.28 0 0 0 7.458 0 5.24 5.24 0 0 0 1.544-3.729 5.24 5.24 0 0 0-1.544-3.729c-1.028-1.028-2.378-1.542-3.73-1.542s-2.7.514-3.73 1.542a5.24 5.24 0 0 0-1.545 3.729 5.24 5.24 0 0 0 1.544 3.729z" fill="url(#A)"/><path d="M1.793 49.45a1.75 1.75 0 0 0 1.243-.515l5.74-5.74a1.76 1.76 0 0 0 0-2.486 1.76 1.76 0 0 0-2.486 0l-5.74 5.74a1.76 1.76 0 0 0 0 2.486 1.75 1.75 0 0 0 1.243.515z" fill="url(#A)"/><path d="M14.035 45.97a1.76 1.76 0 0 0-2.486 0L.515 57.003a1.76 1.76 0 0 0 0 2.486 1.75 1.75 0 0 0 1.243.515 1.75 1.75 0 0 0 1.243-.515l11.034-11.034a1.76 1.76 0 0 0 0-2.486z" fill="url(#A)"/><path d="M16.808 51.228l-5.74 5.74a1.76 1.76 0 0 0 0 2.486 1.75 1.75 0 0 0 2.486 0l5.74-5.74a1.76 1.76 0 0 0 0-2.486 1.76 1.76 0 0 0-2.486 0z" fill="url(#A)"/><defs><linearGradient id="A" x1="0" y1="60" x2="63" y2="0" gradientUnits="userSpaceOnUse"><stop stop-color="#6d40bb"/><stop offset="1" stop-color="#a560d7"/></linearGradient></defs></svg>