<svg xmlns="http://www.w3.org/2000/svg" width="47" height="30" fill="none" xmlns:v="https://vecta.io/nano"><g clip-path="url(#B)"><path d="M45.856 9.642c.038-.132.075-.264.075-.414l.377-3.616c.038-.414-.038-.79-.226-1.073.207-.508.245-1.036.056-1.488-.17-.377-.395-.716-.678-.998-.264-.245-.565-.452-.923-.62a4.29 4.29 0 0 0-1.149-.32 5.52 5.52 0 0 0-1.243.019 5.86 5.86 0 0 0-2.053.678c-.245.132-.5.282-.716.452-.282-.395-.772-.603-1.337-.527l-1.79.245c-.508.075-.998.358-1.375.753-.3-.32-.753-.47-1.243-.395l-1.394.188a1.96 1.96 0 0 0-.565.169c-.17-.038-.358-.038-.546-.02l-1.79.245c-.188.02-.395.094-.565.17-.17-.038-.358-.038-.546-.02l-1.94.264c-.546.075-1.092.414-1.488.885-.3-.395-.772-.584-1.337-.508l-1.996.34c-.584.075-1.13.433-1.507.923l-.47-.207c-.603-.226-1.3-.282-2.072-.188-.735.094-1.45.34-2.11.734a7.59 7.59 0 0 0-1.092.772 2.81 2.81 0 0 0-.565-.339c-.697-.32-1.507-.433-2.448-.3-.79.113-1.525.358-2.222.772A7.03 7.03 0 0 0 7.25 7.627c-.5.546-.904 1.168-1.205 1.827-.3.64-.5 1.3-.546 1.96-.075.66-.02 1.318.15 1.92a4.17 4.17 0 0 0 .716 1.413c-.038.02-.075.056-.094.075-.584.527-1.092 1.168-1.47 1.883s-.62 1.507-.716 2.335c-.056.584-.038 1.092.075 1.563.094.377.226.697.433.998L3.35 23.898c-.508.942-.32 1.96.433 2.354.34.17.716.32 1.13.452.377.113.79.207 1.205.264l1.28.113a10.43 10.43 0 0 0 1.337-.075c.584-.075 1.168-.226 1.75-.452.66-.245 1.3-.603 1.864-1.036.414-.32.79-.697 1.11-1.13.47.47 1.055.83 1.733 1.073.79.3 1.695.377 2.693.245.96-.132 1.902-.452 2.768-.96a9.55 9.55 0 0 0 2.26-1.808l.433-.5.264.34c.508.565 1.15.998 1.92 1.28.79.3 1.695.377 2.693.245.96-.132 1.902-.452 2.768-.96.584-.34 1.13-.735 1.638-1.186.075.83.734 1.356 1.62 1.243l2.636-.358c.885-.113 1.676-.866 1.94-1.75l.546.716c.3.395.79.584 1.337.508l2.1-.282c.998-.132 1.902-1.092 2.015-2.128l1.055-9.98-.02-.5z" fill="url(#A)"/><g fill="#fff"><path d="M7.305 11.15c.038-.414.17-.83.358-1.262.188-.414.452-.8.772-1.168s.697-.66 1.13-.923a4.03 4.03 0 0 1 1.431-.49c.622-.094 1.168-.02 1.6.188a1.87 1.87 0 0 1 .923.942l-1.47 1.205a.83.83 0 0 0-.207-.377c-.094-.095-.188-.17-.3-.207s-.245-.075-.358-.075l-.377.02c-.264.038-.5.113-.678.245a2.02 2.02 0 0 0-.508.471c-.132.188-.245.396-.32.603-.075.226-.132.433-.15.64-.02.245-.02.452.038.66.038.207.113.377.226.527s.245.264.433.34c.17.075.377.094.62.056.113-.02.245-.056.377-.094a1.89 1.89 0 0 0 .395-.188c.13-.075.245-.188.358-.3s.188-.264.264-.414l1.356.716a3.2 3.2 0 0 1-.508.735l-.8.565a4.42 4.42 0 0 1-.848.414 3.93 3.93 0 0 1-.866.226c-.5.075-.923.02-1.3-.113a2.44 2.44 0 0 1-.96-.659c-.264-.283-.433-.64-.546-1.036a3.04 3.04 0 0 1-.094-1.243zm9.153 2.183c-.5.075-.942.038-1.318-.113a2.61 2.61 0 0 1-.96-.64 2.65 2.65 0 0 1-.546-1.017 3.04 3.04 0 0 1-.094-1.243 4.2 4.2 0 0 1 .377-1.318 4.73 4.73 0 0 1 .8-1.186c.33-.356.716-.66 1.13-.904a3.96 3.96 0 0 1 1.375-.47c.5-.075.942-.038 1.318.113s.697.358.96.64a2.65 2.65 0 0 1 .546 1.017 3.04 3.04 0 0 1 .094 1.243c-.056.452-.17.885-.377 1.318a4.73 4.73 0 0 1-.8 1.186c-.32.358-.697.66-1.13.904s-.885.414-1.375.47zm-1.1-3.24c-.02.226-.02.452.02.66s.113.377.207.527a1.05 1.05 0 0 0 .414.34c.17.076.395.094.64.056.264-.038.5-.113.678-.245.207-.132.377-.283.5-.47a2.43 2.43 0 0 0 .32-.621c.075-.226.132-.452.15-.678s.02-.452-.02-.66-.113-.377-.226-.527a.94.94 0 0 0-.433-.32c-.17-.075-.395-.094-.64-.056-.264.038-.5.113-.678.245a2.4 2.4 0 0 0-.508.471 3.8 3.8 0 0 0-.339.603 6.81 6.81 0 0 1-.094.678zm10.13 1.96l.377-3.578L24.5 11.13l-.96.132-.83-2.354-.377 3.578-1.8.245.716-6.78 1.96-.264 1.073 2.976 1.75-3.4L27.982 5l-.716 6.78-1.8.264zm2.92-.413l.716-6.78 1.8-.245-.716 6.78-1.8.245zm5.047-3.975l-.358 3.333-1.8.245.716-6.78 1.394-.188 2.24 3.1.358-3.446 1.8-.245-.716 6.78-1.43.188-2.203-2.975zm9.255 1.47c-.508.47-1.073.753-1.676.83-.414.057-.8.038-1.186-.075a1.98 1.98 0 0 1-.942-.546c-.264-.264-.452-.603-.565-.998-.132-.414-.15-.885-.094-1.45a4.42 4.42 0 0 1 .395-1.375 4.25 4.25 0 0 1 .829-1.168 5.63 5.63 0 0 1 1.13-.866c.433-.226.866-.377 1.337-.452a4.12 4.12 0 0 1 .829-.019 2.66 2.66 0 0 1 .716.188c.206.094.414.226.565.377a1.36 1.36 0 0 1 .377.546l-1.45 1.243a1.06 1.06 0 0 0-.508-.565c-.245-.132-.508-.17-.8-.132-.207.038-.414.094-.603.207a2.01 2.01 0 0 0-.5.433 2.13 2.13 0 0 0-.358.603c-.094.226-.15.47-.188.734s-.02.508.038.716.132.377.245.508.264.245.433.3a1.26 1.26 0 0 0 .603.038c.527-.075.998-.358 1.45-.866l-1.13.15.15-1.337L44.5 5.78l-.377 3.616-1.47.207.056-.47zM11.94 17.9a5.08 5.08 0 0 0-.79-.34 6.6 6.6 0 0 0-.79-.207c-.282-.056-.584-.056-.866-.02-.226.038-.433.094-.565.188a.51.51 0 0 0-.245.414.33.33 0 0 0 .094.301c.075.075.188.132.32.188.15.056.32.094.546.132l.716.132a8.29 8.29 0 0 1 1.15.3 2.61 2.61 0 0 1 .847.471 1.69 1.69 0 0 1 .5.753c.104.3.132.697.075 1.168a4.03 4.03 0 0 1-.47 1.563c-.264.433-.565.8-.942 1.092a4.95 4.95 0 0 1-1.224.697 5.81 5.81 0 0 1-1.337.339c-.358.056-.716.075-1.073.056-.358 0-.716-.038-1.073-.094a8.05 8.05 0 0 1-1.017-.226c-.32-.094-.62-.207-.885-.358l1.394-2.56c.3.17.603.3.923.414.282.094.584.188.942.245a3.56 3.56 0 0 0 1.092.02c.282-.038.5-.113.62-.207.113-.094.188-.207.207-.34s-.038-.245-.132-.34a1.04 1.04 0 0 0-.433-.188 5.19 5.19 0 0 0-.66-.132l-.8-.15a5.13 5.13 0 0 1-1.036-.339c-.282-.132-.527-.3-.697-.5a1.54 1.54 0 0 1-.358-.697c-.056-.264-.075-.584-.038-.942.057-.546.207-1.055.452-1.507a4.6 4.6 0 0 1 .904-1.168c.358-.32.772-.584 1.205-.8.452-.207.904-.34 1.375-.396a4.77 4.77 0 0 1 1.017-.038c.32.018.64.075.942.132s.584.15.83.226l.697.264-1.412 2.43zm6.138 5.885c-.735.094-1.375.038-1.94-.17a3.52 3.52 0 0 1-1.412-.942c-.377-.414-.64-.904-.8-1.488a4.55 4.55 0 0 1-.151-1.827c.075-.66.264-1.3.565-1.94a6.85 6.85 0 0 1 1.187-1.752c.5-.528 1.036-.96 1.676-1.318.62-.358 1.3-.584 2.015-.678.735-.094 1.375-.038 1.94.17a3.52 3.52 0 0 1 1.412.942c.377.414.64.923.8 1.488.17.584.207 1.186.15 1.827-.075.66-.264 1.3-.565 1.94a6.42 6.42 0 0 1-1.187 1.732c-.5.527-1.036.96-1.657 1.337-.66.34-1.318.584-2.034.678zM16.44 19.02a3.17 3.17 0 0 0 .038.96 1.95 1.95 0 0 0 .32.772c.15.226.358.377.62.5s.584.15.96.094a2.37 2.37 0 0 0 1.017-.377c.3-.188.546-.433.753-.697s.358-.565.5-.904a4.88 4.88 0 0 0 .226-.979 3.24 3.24 0 0 0-.038-.96 1.92 1.92 0 0 0-.32-.772c-.15-.207-.377-.377-.622-.5-.264-.113-.565-.132-.942-.094-.377.056-.716.17-.998.358s-.546.414-.753.697-.377.565-.5.904a3.27 3.27 0 0 0-.264.998zm11.977 3.334c-.734.094-1.375.038-1.94-.17a3.52 3.52 0 0 1-1.412-.942c-.377-.414-.64-.904-.8-1.488a4.55 4.55 0 0 1-.151-1.827c.075-.66.264-1.3.565-1.94s.697-1.224 1.186-1.75a6.74 6.74 0 0 1 1.676-1.318c.62-.358 1.3-.584 2.015-.678.734-.094 1.375-.038 1.94.17a3.52 3.52 0 0 1 1.413.942c.377.414.64.923.8 1.488.17.584.207 1.186.15 1.827a6.16 6.16 0 0 1-.565 1.94c-.3.64-.697 1.224-1.186 1.732-.5.527-1.036.96-1.657 1.337-.66.358-1.318.584-2.034.678zm-1.638-4.746a3.24 3.24 0 0 0 .038.96 1.92 1.92 0 0 0 .32.772c.15.226.358.377.622.5s.584.15.96.094a2.37 2.37 0 0 0 1.017-.377c.3-.188.546-.433.753-.697s.358-.565.5-.904a4.88 4.88 0 0 0 .226-.979 3.17 3.17 0 0 0-.038-.96 1.91 1.91 0 0 0-.32-.772c-.15-.207-.377-.377-.62-.5-.264-.113-.565-.132-.942-.094-.377.056-.716.17-.998.358a2.94 2.94 0 0 0-.753.697c-.207.283-.377.565-.5.904a3.27 3.27 0 0 0-.264.998zm10.81-1.43l-.527 4.915-2.637.358 1.055-9.98 2.053-.282 3.333 4.557.546-5.085 2.637-.358-1.055 9.98-2.1.283-3.315-4.388z"/></g></g><defs><linearGradient id="A" x1="24.692" y1="1.085" x2="24.692" y2="27.081" gradientUnits="userSpaceOnUse"><stop stop-color="#ff7066"/><stop offset="1" stop-color="#ff986b"/></linearGradient><clipPath id="B"><path fill="#fff" d="M0 0h46.328v30H0z"/></clipPath></defs></svg>