<svg xmlns="http://www.w3.org/2000/svg" width="60" height="61" fill="none" xmlns:v="https://vecta.io/nano"><path d="M16.072 35.77l6.43-3.214v-8.318l-6.43 3.214v8.32z" fill="url(#A)"/><path d="M7.5 32.556l6.43 3.214v-8.32L7.5 24.238v8.318z" fill="url(#A)"/><path d="M15 19.416l-6.176 3.088L15 25.592l6.176-3.088L15 19.416z" fill="url(#A)"/><path d="M43.928 57.86H16.07c-1.183.001-2.142.96-2.143 2.143H46.07c-.001-1.183-.96-2.142-2.143-2.143z" fill="url(#A)"/><path d="M37.5 53.575h-15v2.143h15v-2.143z" fill="url(#A)"/><path d="M0 48.217a3.22 3.22 0 0 0 3.214 3.214h53.57A3.22 3.22 0 0 0 60 48.217v-3.213H0v3.213z" fill="url(#A)"/><path d="M15 12.86a1.07 1.07 0 1 0 0-2.143 1.07 1.07 0 1 0 0 2.143z" fill="url(#A)"/><path d="M56.786.004H3.214A3.22 3.22 0 0 0 0 3.218V42.86h60V3.218A3.22 3.22 0 0 0 56.786.004zM14.03 8.742a4.29 4.29 0 0 1 4.185-3.38h23.572a4.29 4.29 0 0 1 4.286 4.286v1.7l1.385-1.385a1.07 1.07 0 0 1 1.798.478 1.07 1.07 0 0 1-.283 1.037L45.758 14.7c-.01.01-.023.013-.033.022a1.06 1.06 0 0 1-.314.21l-.003.001a1.07 1.07 0 0 1-1.164-.233l-3.214-3.214a1.07 1.07 0 1 1 1.515-1.515l1.385 1.385v-1.7c-.001-1.183-.96-2.142-2.143-2.143h-23.57c-.865.001-1.645.522-1.978 1.32 1.454.59 2.274 2.14 1.944 3.675s-1.714 2.61-3.282 2.552-2.868-1.235-3.082-2.8.72-3.04 2.213-3.52zm10.614 24.477a1.07 1.07 0 0 1-.592.958l-8.57 4.286c-.016.008-.034.005-.05.012a.96.96 0 0 1-.859 0c-.016-.007-.034-.004-.05-.012l-8.57-4.286a1.07 1.07 0 0 1-.592-.958V22.504c.001-.106.02-.21.05-.312.008-.025.02-.047.03-.07.037-.096.088-.187.15-.268l.043-.06a1.07 1.07 0 0 1 .233-.201c.018-.01.038-.016.057-.026.01-.006.017-.016.027-.02l8.57-4.286c.023-.01.047-.01.07-.02.263-.1.554-.1.818 0 .023.01.048.008.07.02l8.57 4.286c.01.005.017.016.027.02.018.01.04.014.057.026.087.055.166.123.233.2.017.02.028.04.043.06.063.082.114.172.15.268l.03.07a1.06 1.06 0 0 1 .051.312v10.714zm30 0a1.07 1.07 0 0 1-.592.958l-8.57 4.286c-.016.008-.034.005-.05.012a.96.96 0 0 1-.859 0c-.016-.007-.034-.004-.05-.012l-8.57-4.286a1.07 1.07 0 0 1-.592-.958V22.504c.001-.106.02-.21.05-.312.008-.025.02-.047.03-.07.037-.096.088-.187.15-.268l.043-.06a1.07 1.07 0 0 1 .233-.201c.018-.01.038-.016.057-.026.01-.006.017-.016.028-.02l8.57-4.286c.023-.01.048-.01.07-.02.263-.1.554-.1.818 0 .023.01.047.008.07.02l8.57 4.286c.01.005.017.016.027.02.02.01.04.014.057.026.087.055.166.123.233.2.017.02.028.04.043.06a1.06 1.06 0 0 1 .151.268l.03.07a1.06 1.06 0 0 1 .051.312v10.714z" fill="url(#A)"/><path d="M45 19.416l-6.176 3.088L45 25.592l6.176-3.088L45 19.416z" fill="url(#A)"/><path d="M37.5 32.556l6.43 3.214v-8.32l-6.43-3.214v8.318z" fill="url(#A)"/><path d="M46.072 35.77l6.43-3.214v-8.318l-6.43 3.214v8.32z" fill="url(#A)"/><defs><linearGradient id="A" x1="0" y1="60" x2="63" y2="0" gradientUnits="userSpaceOnUse"><stop stop-color="#6d40bb"/><stop offset="1" stop-color="#a560d7"/></linearGradient></defs></svg>