<svg xmlns="http://www.w3.org/2000/svg" width="1920" height="1394" fill="none" xmlns:v="https://vecta.io/nano"><mask id="A" mask-type="alpha" maskUnits="userSpaceOnUse" x="0" y="0" width="1920" height="1394"><path opacity=".55" d="M1920 0H0v857.052S201.807 1085.5 390.194 1085.5 701 986.77 893 986.77c184.77 0 227 297.52 516.55 297.52S1920 1394 1920 1394V0z" fill="#f8f8ff"/></mask><g mask="url(#A)"><mask id="B" mask-type="alpha" maskUnits="userSpaceOnUse" x="-81" y="-5" width="2155" height="1365"><rect x="-81" y="-5" width="2155" height="1364.01" rx="39.451" fill="#fff"/></mask><g mask="url(#B)" stroke="#f5f4ff"><g stroke-width="2.041"><path d="M25.465 280.51c-76.442-34.42-179.195-35.15-261.97-2.78-82.744 32.358-145.32 97.683-141.934 195.303 3.386 97.575 81.574 166.28 177.025 199.95S6.3 705.114 77.233 662.6c70.842-42.45 96.135-120.695 84.572-197.052C150.24 389.2 101.82 314.89 25.465 280.51z"/><path d="M4.13 313.34c-63.992-28.813-150.022-29.427-219.325-2.325-69.27 27.1-121.627 81.76-118.793 163.445 2.833 81.64 68.253 139.153 148.184 167.35s173.917 26.895 233.283-8.678c59.273-35.518 80.446-100.99 70.767-164.903C108.564 404.3 68.034 342.113 4.13 313.34z"/><path d="M-24.373 357.185c-47.362-21.325-111.055-21.783-162.364-1.718-51.276 20.052-89.98 60.494-87.884 120.894 2.095 60.356 50.462 102.92 109.66 123.803s128.777 19.904 172.7-6.4c43.822-26.26 59.5-74.67 52.33-121.964-7.164-47.306-37.157-93.318-84.433-114.605zM101.43-12.832C55.667-33.438-5.88-33.88-55.46-14.5c-49.548 19.376-86.938 58.45-84.913 116.804 2.023 58.3 48.752 99.438 105.958 119.618s124.44 19.233 166.868-6.192C174.8 190.37 189.93 143.6 183 97.902c-6.922-45.7-35.902-90.167-81.58-110.734z"/><path d="M73.833 29.625C44.172 16.27 4.255 15.98-27.9 28.553c-32.123 12.562-56.294 37.857-54.984 75.6 1.308 37.7 31.524 64.353 68.656 77.45S66.5 194.07 93.967 177.6c27.375-16.404 37.186-46.653 32.703-76.258-4.485-29.617-23.262-58.41-52.837-71.727z"/><path d="M46.582 71.55c-13.76-6.195-32.318-6.337-47.266-.492-14.916 5.833-26.032 17.52-25.43 34.913.602 17.35 14.5 29.706 31.82 35.812s37.564 5.778 50.256-1.827c12.6-7.55 17.148-21.484 15.072-35.2-2.078-13.725-10.78-27.05-24.453-33.207zM1086.5-127.148c-45.76-20.606-107.306-21.048-156.885-1.66-49.547 19.376-86.94 58.45-84.914 116.805 2.024 58.3 48.752 99.438 105.96 119.618s124.44 19.232 166.87-6.192c42.33-25.37 57.48-72.14 50.55-117.837-6.92-45.7-35.9-90.167-81.58-110.734z"/><path d="M1058.9-84.69c-29.66-13.355-69.58-13.647-101.735-1.072-32.123 12.562-56.294 37.856-54.984 75.6 1.308 37.7 31.524 64.352 68.656 77.45s80.723 12.463 108.193-3.996c27.38-16.403 37.2-46.652 32.7-76.258-4.48-29.617-23.26-58.4-52.83-71.727z"/><path d="M1031.65-42.766c-13.76-6.195-32.322-6.337-47.27-.492-14.916 5.833-26.032 17.52-25.43 34.913.602 17.35 14.512 29.706 31.82 35.812s37.568 5.78 50.258-1.827c12.6-7.55 17.15-21.484 15.07-35.2-2.08-13.726-10.78-27.05-24.45-33.208zM931.833 509.8c-45.764-20.606-107.3-21.048-156.9-1.66-49.547 19.376-86.94 58.45-84.914 116.805 2.024 58.3 48.752 99.437 105.96 119.618s124.44 19.232 166.868-6.192c42.334-25.37 57.474-72.14 50.554-117.838-6.92-45.7-35.9-90.166-81.577-110.733z"/><path d="M904.236 552.267c-29.66-13.355-69.58-13.646-101.733-1.072-32.123 12.562-56.294 37.857-54.984 75.602 1.308 37.7 31.523 64.352 68.656 77.45s80.728 12.463 108.195-3.996c27.374-16.403 37.186-46.652 32.702-76.258-4.485-29.617-23.262-58.4-52.836-71.727z"/><path d="M876.984 594.193c-13.76-6.195-32.318-6.338-47.266-.492-14.916 5.833-26.032 17.52-25.43 34.913.602 17.35 14.512 29.706 31.82 35.812s37.564 5.78 50.256-1.827c12.6-7.55 17.15-21.484 15.072-35.198-2.08-13.726-10.78-27.052-24.453-33.208z"/></g><g stroke-width="2.451"><path d="M436.8 914.408c5.1-60.046-18.927-129.93-60.646-178.36-41.693-48.396-100.85-75.174-166.137-49.624-65.238 25.53-93.196 94.847-93.254 167.683s27.81 148.612 73.517 186.532c45.606 37.84 104.613 36.35 153.614 10.3 49.012-26.06 87.816-76.6 92.906-136.532z"/><path d="M377.725 900.072c3.306-38.917-12.273-84.245-39.33-115.652-27.03-31.377-65.312-48.673-107.54-32.147-42.18 16.507-60.323 61.352-60.36 108.63s18.057 96.4 47.645 120.952c29.49 24.466 67.66 23.526 99.405 6.648 31.757-16.883 56.886-49.627 60.182-88.43z"/><path d="M319.378 885.915c1.533-18.054-5.702-39.13-18.28-53.73-12.55-14.57-30.22-22.502-49.678-14.887-19.4 7.596-27.862 28.275-27.88 50.313s8.426 44.85 22.098 56.193c13.573 11.262 31.168 10.86 45.873 3.042 14.718-7.824 26.343-22.99 27.867-40.93z"/></g><g stroke-width="1.654"><path d="M1428.46 1162.46c-7.2-40.04-35.14-81.37-70.83-105.62-35.67-24.23-78.94-31.3-117-3.2-38.04 28.1-44.1 78.18-31.36 125.67 12.75 47.5 44.2 92 80.66 108.7 36.37 16.66 74.57 5.33 101.94-20.25 27.37-25.6 43.8-65.34 36.6-105.3z"/><path d="M1387.43 1163.48c-4.68-25.94-22.8-52.76-45.94-68.48-23.12-15.7-51.1-20.27-75.74-2.08-24.6 18.16-28.55 50.58-20.28 81.4s28.7 59.67 52.28 70.48c23.52 10.77 48.24 3.46 65.97-13.1 17.74-16.58 28.37-42.33 23.7-68.2z"/><path d="M1346.9 1164.5c-2.17-12.04-10.58-24.5-21.34-31.82-10.74-7.3-23.65-9.37-35-1-11.32 8.36-13.2 23.32-9.34 37.7 3.85 14.37 13.36 27.76 24.26 32.75 10.83 4.96 22.23 1.6 30.44-6.06 8.22-7.7 13.14-19.6 10.98-31.57z"/></g><g stroke-width="2.701"><path d="M1895.8 1219.36c57.88-32.6 106.65-97.84 124.9-165.88 18.23-68 5.94-138.52-57.83-182.16-63.73-43.606-144.22-26.088-210.63 19.036-66.4 45.124-118.15 117.513-124.35 182.673-6.2 65.03 31.76 117.87 85.9 146.36 54.14 28.5 124.26 32.5 182.02-.03z"/><path d="M1872.22 1156.63c37.5-21.12 69.14-63.43 80.98-107.57 11.82-44.1 3.84-89.694-37.4-117.92-41.2-28.194-93.32-16.91-136.42 12.378s-76.63 76.242-80.65 118.432c-4 42.04 20.53 76.24 55.6 94.7 35.08 18.47 80.5 21.06 117.9-.01z"/><path d="M1848.93 1094.7c17.4-9.8 32.1-29.47 37.6-49.98 5.5-20.48 1.76-41.5-17.24-54.502-18.96-12.973-43.05-7.85-63.14 5.803-20.1 13.66-35.64 35.5-37.5 54.99-1.84 19.35 9.43 35.13 25.68 43.68 16.26 8.56 37.3 9.75 54.58.01z"/></g><g stroke-width="2.041"><path d="M492.2-341.107c-83.376-37.542-195.444-38.337-285.724-3.032-90.247 35.293-158.518 106.552-154.822 213.047 3.694 106.45 88.992 181.39 193.088 218.1S471.28 122.06 548.656 75.696c77.285-46.3 104.874-131.67 92.26-214.958C628.303-222.56 575.5-303.604 492.2-341.107z"/><path d="M468.798-305.106c-69.722-31.394-163.45-32.06-238.953-2.534-75.472 29.514-132.533 89.09-129.444 178.108C103.49-40.558 174.785 22.106 261.86 52.822s189.473 29.304 254.163-9.46c64.598-38.708 87.667-110.06 77.12-179.7-10.548-69.652-54.71-137.415-124.345-168.77z"/><path d="M474.505-267.76c-55.558-25.016-130.26-25.55-190.435-2.017-60.145 23.52-105.576 70.974-103.116 141.864C183.412-57.067 240.183-7.137 309.6 17.35S460.62 40.7 512.15 9.823c51.437-30.822 69.818-87.64 61.416-143.125-8.404-55.497-43.6-109.48-99.06-134.457z"/><path d="M500.914-446.78c-83.377-37.542-195.444-38.337-285.724-3.032C124.943-414.52 56.672-343.26 60.367-236.765c3.694 106.45 88.993 181.39 193.09 218.1S479.994 16.388 557.37-29.977c77.285-46.3 104.874-131.67 92.26-214.957-12.614-83.298-65.427-164.342-148.718-201.845z"/><path d="M477.515-410.78c-69.722-31.394-163.45-32.06-238.953-2.534C163.1-383.8 106.03-324.224 109.118-235.205c3.087 88.975 74.384 151.638 161.458 182.355S460.05-23.547 524.74-62.3c64.597-38.708 87.667-110.06 77.12-179.7-10.548-69.652-54.71-137.415-124.345-168.77z"/><path d="M483.22-373.432c-55.558-25.015-130.26-25.55-190.435-2.017-60.145 23.52-105.577 70.975-103.117 141.864 2.46 70.845 59.23 120.776 128.645 145.263s151.023 23.35 202.552-7.528c51.437-30.822 69.818-87.64 61.416-143.125-8.404-55.496-43.6-109.48-99.06-134.457zM600.63 197c-76.442-34.42-179.195-35.15-261.97-2.78-82.744 32.358-145.32 97.684-141.934 195.303 3.386 97.575 81.574 166.28 177.025 199.952s207.714 32.128 278.648-10.377c70.842-42.45 96.135-120.695 84.572-197.05C725.404 305.7 676.985 231.4 600.63 197z"/><path d="M572.9 239.686c-60.257-27.132-141.27-27.7-206.532-2.19-65.23 25.51-114.52 76.985-111.85 153.888 2.667 76.86 64.257 131.015 139.53 157.57s163.78 25.325 219.674-8.17c55.803-33.438 75.74-95.077 66.626-155.26-9.115-60.193-47.28-118.748-107.45-145.84z"/><path d="M542.438 286.536c-42.487-19.13-99.633-19.542-145.667-1.54-46.002 17.99-80.704 54.26-78.824 108.42 1.878 54.117 45.246 92.3 98.37 111.038S531.86 522.3 571.246 498.7c39.292-23.545 53.348-66.953 46.924-109.377-6.426-42.435-33.33-83.706-75.732-102.797z"/></g></g></g></svg>