<svg width="177" height="232" viewBox="0 0 177 232" fill="none" xmlns="http://www.w3.org/2000/svg">
<path opacity="0.2" d="M113.233 195.723C116.431 216.346 101.305 259.114 14.9945 246.203L-113.92 240.868L-96.4733 126.248C-83.8946 122.477 -55.2523 114.78 -41.3141 114.162C-23.8913 113.389 -10.3526 111.059 -0.0510776 106.306C10.2505 101.553 17.2508 85.8531 34.1345 92.5626C57.0628 101.674 53.5392 134.13 65.6821 148.818C79.6728 165.742 110.036 175.099 113.233 195.723Z" fill="url(#paint0_linear)"/>
<path d="M100.23 157.469C109.092 174.509 108.498 216.254 29.4398 230.416L-84.5354 263.73L-103.079 158.651C-93.2222 151.659 -70.5148 136.513 -58.5438 131.869C-43.58 126.064 -32.4616 120.045 -24.8792 112.867C-17.2967 105.689 -15.8165 89.9381 0.880754 90.816C23.556 92.0082 30.0419 121.345 44.9555 130.576C62.1385 141.212 91.3684 140.429 100.23 157.469Z" fill="url(#paint1_linear)"/>
<defs>
<linearGradient id="paint0_linear" x1="116.118" y1="92.9941" x2="-46.1771" y2="305.256" gradientUnits="userSpaceOnUse">
<stop stop-color="#1C8EF4"/>
<stop offset="1" stop-color="#00CFDD"/>
</linearGradient>
<linearGradient id="paint1_linear" x1="72.4912" y1="67.0479" x2="-6.5062" y2="299.921" gradientUnits="userSpaceOnUse">
<stop stop-color="#1C8EF4"/>
<stop offset="1" stop-color="#00CFDD"/>
</linearGradient>
</defs>
</svg>
