<svg xmlns="http://www.w3.org/2000/svg" xmlns:xlink="http://www.w3.org/1999/xlink" width="601" height="491" fill="none" xmlns:v="https://vecta.io/nano"><style><![CDATA[.B{fill:#ffb49b}.C{stroke-width:.903}.D{stroke-linecap:round}.E{stroke-linejoin:round}.F{stroke-miterlimit:10}.G{fill:#ffa587}.H{fill:#30057b}.I{fill:#41378c}.J{stroke:#0b43a4}.K{fill:#00cfdd}.L{stroke:#00ad9f}.M{fill:#0056ec}.N{fill:#e4f2f6}.O{fill:#f5876e}.P{stroke-dasharray:1.72 2.62}]]></style><path d="M517.73 363.74c2.73-16.754-8.488-32.34-11.912-48.846-2.623-12.834-.498-26.386 5.794-37.813 4.018-7.2 11.03-13.88 19.193-13.036 1.794.138 3.86.513 5.046-.84.712-.812.585-1.977.31-3.08-1.762-9.014-9.342-16.526-9.43-25.7.088-4.902 2.33-9.638 5.232-13.602 5.51-7.806 13.06-14.012 21.82-18.103 2.324-1.12 4.77-1.944 7.28-1.75 4.515.42 8.187 4.3 9.5 8.815 1.253 4.355.387 9.053-.75 13.513-3.94 14.64-12.66 29.5-8.592 44.167.58 1.85 1.31 3.638 2.722 4.974 1.353 1.186 3.33 1.77 4.83 2.897 4.626 3.676 1.806 11.255-2.3 15.705-3.56 4.058-8.08 7.464-12.817 9.916-3.307 1.695-7.12 3.423-8.473 6.928-2.38 6.53 5.576 11.978 7.293 18.75 1.044 4.267-.512 8.55-2.25 12.388-3.3 7.254-7.23 14.242-11.85 20.817-3.73 5.344-7.943 10.363-10.774 16.21s-4.222 12.67-2.09 18.752" fill="url(#A)"/><path d="M523.324 346.34c-1.33-7.105-.78-14.28-.228-21.457.855-11.123 1.798-22.456 5.855-32.972 2.997-8 7.733-15.143 10.94-23.054 2.236-5.603 3.632-11.56 4.3-17.57.248-3.23.436-6.607 1.253-9.72 1.08-3.742 3.422-6.955 5.072-10.582 2.24-4.737 3.582-9.976 3.697-15.236" stroke="#00cfdd" class="C D E F"/><path d="M153.325 366.54c.466 3.386.476 6.957-.536 10.26-.744 2.28-1.974 4.304-3.414 6.184-.74.986-1.597 1.868-2.455 2.75-3.42 3.37-7.39 6.13-11.748 8.135-6.353 2.893-13.527 4.143-18.98 8.496-2.525 2.017-4.524 4.58-5.76 7.52-.865 1.798-1.362 3.75-1.638 5.688l-1.332-5.695c-.773-6.38-1.6-12.89-.45-19.215.758-4.112 2.198-8.046 4.005-11.826 2.8-6 6.374-11.802 10.83-16.737 3.625-3.987 7.945-7.574 13.143-9.007s11.367-.296 14.808 3.855c2.136 2.63 3.036 6.142 3.53 9.592z" fill="#5193f4"/><path d="M109.897 404.093c1.918-8.922 6.757-17.208 13.692-23.153 4.332-3.743 9.378-6.484 13.8-10.032 4.504-3.51 8.517-8.035 9.737-13.63" class="C D E F J"/><path opacity=".2" d="M579.35 366.207c-1.12 1.494-2.42 2.83-3.72 4.168-5.18 5.108-11.2 9.3-17.802 12.327-9.627 4.384-20.498 6.278-28.763 12.874-3.826 3.057-6.854 6.943-8.728 11.396-.216.318-.572.578-.788.897-3.5-6.3 9.516-21.63 13.63-25.96a64.6 64.6 0 0 1 27.012-16.887c4.47-1.476 9.282-2.4 13.85-1.378 1.786.424 3.735 1.244 5.31 2.562z" fill="#5275a0"/><path d="M561.666 368.92c4.47-1.476 9.282-2.4 13.848-1.38s8.9 4.324 9.793 9.036c1.025 5.346-2.786 10.703-7.488 13.31-4.8 2.648-10.406 3.32-15.752 4.345a113.7 113.7 0 0 0-34.021 12.135c-2.647 1.424-5.075 3.105-6.884 5.456-3.5-6.3 9.516-21.63 13.63-25.96 7.345-7.72 16.664-13.707 26.873-16.945z" class="K"/><path d="M523.682 405.84c5.265-10.56 24.25-23.946 39.823-28.448 4.65-1.32 9.722-1.887 14.39-.33" class="C D E F L"/><path opacity=".2" d="M302.708 285.902c-.387 2.452-1.16 4.774-2.193 7.096-5.42-11.61-10.322-26.835-11.484-45.414a25.46 25.46 0 0 1 3.742-14.579c.258.258.516.645.774.903 3.87 5.3 5.806 11.74 7.355 18.063 2.45 11.095 3.612 22.707 1.806 33.93z" fill="#5275a0"/><path d="M356.64 285.257c11.612-4.128 23.74-7.483 34.45-13.805 3.226-1.935 6.322-4.128 8.516-7.096 2.322-2.967 3.612-6.71 3.225-10.45-.516-3.742-2.967-7.354-2.064-11.096.516-2.45 2.322-4.386 3.742-6.45 3.354-4.903 4.387-11.354 2.58-17.16-1.806-6.193-6.45-11.095-9.032-16.9a27.36 27.36 0 0 1-2.193-15.353c-9.806.13-18.71 5.42-28.385 7.225-7.355 1.42-14.967.645-22.322 2.322-13.29 3.097-24.127 14.708-26.192 28.255-6.193-1.032-12.773 1.16-17.16 5.677-4.516 4.902-7.096 11.74-6.71 18.45 2.967 48.253 30.708 73.54 30.708 73.54s26.45-35.61 30.837-37.157z" fill="#7ee8d4"/><g class="C D E F L"><path d="M330.576 284.87c-1.16-11.87 2.967-23.74 7.74-34.706 4.645-10.708 10.064-21.16 17.16-30.32 7.225-9.16 16.386-17.03 27.095-21.546"/><path d="M341.027 205.653c-1.16 10.58-.387 23.352 2.45 33.803m1.936-3.87c12.128-7.74 30.837-12.515 45.16-11.74m-74.836 13.674c14.58 6.192 15.225 27.6 15.612 33.673m3.873-13.545c11.225-8 27.353-10.45 39.223-7.483m-8.647-50.06c-3.355 4.128-4.258 9.03-3.87 12.514m3.096-3.096c5.16-2.58 12-3.226 19.354-1.42"/></g><path d="M471.876 185h84.95c2.356-5.824 2.9-12.618-.138-18.025s-10.533-8.458-15.8-5.13c-1.802 1.248-3.742 3.2-5.96 2.496-.97-.278-1.663-1.1-2.217-1.803-4.02-5.407-5.82-12.756-11.226-16.776-6.8-4.992-17.877-1.803-20.787 6.1-1.386 3.744-1.802 8.874-5.543 10.26-2.495.97-5.266-.416-8.038-.832-5.543-.83-11.364 3.605-12.057 9.15-9.424-.832-18.986 5.546-21.896 14.42h18.7v.14zm-293.658 24.7H95.762c-2.217-5.546-2.9-12.202.14-17.47 2.9-5.27 10.255-8.18 15.383-4.992 1.8 1.1 3.603 3.05 5.682 2.357.83-.277 1.524-.97 2.078-1.802 4.02-5.27 5.544-12.34 10.8-16.222 6.513-4.853 17.323-1.664 20.233 5.962 1.386 3.605 1.663 8.596 5.405 9.982 2.494.97 5.127-.415 7.76-.83 5.405-.832 11.087 3.466 11.78 8.873 9.147-.832 18.432 5.27 21.203 14.004H178.2v.14z" fill="#d4f4ff"/><path d="M427.113 112.16c-15.66-24.125-37.417-34.524-57.65-27.73-8.315 2.773-16.353 8.32-24.806 7.764-19.68-1.248-33.676-33.97-51-50.607-20.095-19.134-46.425-14.836-64.44 10.4-10.394 14.697-20.233 37.02-33.4 34.524-6.236-1.248-11.64-8.042-17.46-12.063-15.937-10.815-45.733 4.437-43.515 30.642.693 7.626 7.206 8.735 11.78 8.735l280.492-1.664z" fill="#e8f9ff"/><path d="M298.646 420.854c148.865 0 269.544-5.587 269.544-12.478s-120.68-12.48-269.544-12.48-269.544 5.587-269.544 12.48 120.68 12.478 269.544 12.478z" fill="#ecebf7"/><path d="M248.755 227.02h44.624l61.67 178.027h-49.612l-10.8-34.8H247.23l-10.533 34.8h-49.89l61.946-178.027zm38.11 110.643l-15.8-55.183-16.49 55.183h32.3z" fill="url(#B)"/><path d="M508.497 314.575c.97-.088 7.32-4.76 9.788-6.35.706-.44 1.4-.88 1.852-1.587s.706-1.587.353-2.293c-.44-.97-1.147-1.85-2.998-1.85-3.175 0-4.32 1.058-5.82 2.645-5.114 5.203-3.174 9.435-3.174 9.435zm28.66 19.047c2.822 1.235 5.732 2.47 8.818 2.117 1.147-.177 2.47-.706 2.822-1.764.353-.97-.088-2.028-.882-2.734s-1.763-.97-2.733-1.234c-3.704-.882-8.907-.44-12.6.617 0 0 2.9 2.293 4.586 2.998zM555.5 292.53c-1.235-.793-2.645-1.85-2.645-3.262 0-1.5 1.5-2.558 2.998-2.646s2.822.794 3.968 1.764c4.674 4.144 4.145 8.818 4.145 8.818l-8.466-4.674zm3.702-12.6c-1.058-.44-2.204-1.058-2.822-2.028-.353-.53-.53-1.147-.264-1.676.352-.882.882-1.763 3.174-1.323 7.23 1.323 8.82 6.26 8.82 6.26s-6.967-.352-8.907-1.234zm21.34 11.023c2.9-.264 5.908-1.675 7.76-3.968.706-.882 1.323-1.852 1.588-2.9s0-2.293-.882-3.086c-1.06-.882-2.646-.706-3.792 0s-1.852 1.94-2.47 3.174c-.706 1.676-2.205 6.8-2.205 6.8z" fill="#4a49ca"/><g class="C D E F J"><path d="M528.426 397.376l-21.165-18.694c-3.79-3.35-7.583-6.702-9.964-11.11-5.115-9.523-2.205-21.868 4.762-30.07 6.966-8.29 17.107-13.14 27.25-16.754 10.23-3.527 20.81-6.084 30.512-10.758 6.084-2.9 12.257-7.32 13.845-13.932.97-3.968.176-8.29-2.205-11.64-2.38-3.263-6.35-5.38-10.406-5.643"/><path d="M585.482 284.242c-1.94 5.908-9.435 9.523-12.875 14.638m-14.2-7.85c1.5 1.588 3.263 2.822 4.586 4.586 2.734 3.615 2.998 9.523-1.058 13.227M520.4 324.187c6.26 4.762 14.463 8.024 22.3 8.3m-36.595.44c-2.9-8.466.264-18.606 7.407-23.985"/></g><path d="M61.53 405.187V227.02h122.092v42.704H110.45v29.533h59.73v39.654h-59.73v66.275H61.53z" fill="url(#C)"/><path d="M491.692 396.6c-6.236 3.19-12.75 5.546-19.68 7.2s-14.274 2.496-21.896 2.496c-13.58 0-25.776-2.496-36.863-7.626s-20.5-11.924-28.27-20.38c-7.9-8.458-13.997-18.164-18.293-28.978s-6.513-22.046-6.513-33.554c0-11.647 2.217-23.016 6.8-33.83s10.8-20.52 18.986-28.84c8.038-8.32 17.74-14.974 28.825-19.966s23.282-7.348 36.448-7.348c13.58 0 25.776 2.634 36.863 7.903s20.5 12.2 28.27 20.66c7.9 8.596 13.858 18.163 18.154 29.117 4.296 10.814 6.375 22.045 6.375 33.414 0 11.092-1.94 21.63-5.96 31.75-3.88 10.122-9.424 19.134-16.63 27.176l27.024 29.394H499.73l-8.038-8.597zm-41.02-33.553c3.74 0 6.8-.277 9.285-.97l-29.38-32.167h45.594l9.84 10.815c1.802-3.882 3.188-7.903 4.02-12.062a65.23 65.23 0 0 0 1.247-12.756 61.9 61.9 0 0 0-2.494-17.47c-1.663-5.546-4.158-10.538-7.622-14.974a38.97 38.97 0 0 0-12.75-10.399c-5.127-2.635-11.086-3.882-17.877-3.882-7.068 0-13.027 1.386-18.154 4.16s-9.286 6.378-12.612 10.815a43.84 43.84 0 0 0-7.344 15.113c-1.525 5.546-2.356 11.37-2.356 17.192a61.9 61.9 0 0 0 2.494 17.47c1.663 5.546 4.158 10.538 7.484 14.975 3.326 4.298 7.622 7.764 12.61 10.398 4.85 2.357 10.948 3.744 18.016 3.744z" fill="url(#D)"/><path d="M490.03 329.068c-.832 4.16-2.218 8.18-4.02 11.924l32.3 35.217c6.652-7.487 12.056-15.945 15.798-25.373l-43.515-25.79c-.14 1.386-.277 2.773-.554 4.02z" fill="url(#E)"/><path d="M460.65 362.482c-2.494.694-5.543.97-9.285.97-6.93 0-12.888-1.248-18.015-3.744l3.326 46.17c4.573.693 9.285.97 14.135.97 7.622 0 14.967-.832 21.896-2.496s13.443-4.16 19.68-7.2l-31.736-34.663z" fill="url(#F)"/><path d="M43.598 227.432l56.542-5.685c5.128-.555 9.008-4.853 9.008-9.983v-22.74c0-5.268-4.02-9.567-9.285-9.982l-56.542-4.715c-5.82-.416-10.81 4.16-10.81 9.983v33c0 5.962 5.128 10.676 11.087 10.122z" fill="url(#G)"/><path d="M93.904 219.25l5.128 14.974c.416 1.1-.97 1.942-1.802 1.1l-17.6-16.916 14.274.832z" fill="url(#H)"/><g fill="#fff"><use xlink:href="#W"/><use xlink:href="#W" x="11.363"/><use xlink:href="#W" x="22.865"/></g><path d="M289.498 183.333H239.77c-7.752 0-13.992-6.242-13.992-13.998s6.24-13.998 13.992-13.998h49.727c7.752 0 13.99 6.242 13.99 13.998s-6.24 13.998-13.99 13.998z" fill="url(#I)"/><path d="M253.006 173.118c1.775 0 3.215-1.44 3.215-3.216s-1.44-3.215-3.215-3.215-3.214 1.44-3.214 3.215 1.44 3.216 3.214 3.216zm23.447 0c1.775 0 3.214-1.44 3.214-3.216s-1.44-3.215-3.214-3.215-3.215 1.44-3.215 3.215 1.44 3.216 3.215 3.216zm-11.725 0c1.775 0 3.214-1.44 3.214-3.216s-1.44-3.215-3.214-3.215-3.214 1.44-3.214 3.215 1.44 3.216 3.214 3.216z" fill="#fff"/><path d="M68.076 388.472c-7.74-6.896-15.482-13.792-21.253-22.377-4.926-7.46-8.163-15.903-12.526-23.784-2.815-5.067-6.052-9.992-7.74-15.622s-1.267-12.244 2.674-16.466c4.082-4.363 11.26-5.067 16.89-2.815s9.852 7.037 13.23 12.103c4.363 6.756 7.32 14.496 8.445 22.378 1.126 7.177.844 14.636 1.97 21.814.985 6.755 3.237 13.23 6.193 19.28 2.534 5.63 9.148 15.48 10.837 21.25-4.785 2.533-15.482-12.807-18.72-15.763z" fill="#00ad9f"/><path d="M41.053 317.682c7.32 3.237 10.274 11.963 11.823 19.844 1.69 9.007 1.407 18.718 5.49 26.74 7.74 15.34 17.875 32.79 25.334 38" class="C D E F L"/><path d="M30.073 367.503c-6.474-2.534-14.92-3.52-19.14 1.97-3.378 4.644-1.69 11.26.704 16.466 1.97 4.504 4.504 9.007 8.726 11.4 2.956 1.69 6.334 2.11 9.57 2.533 9.148 1.126 18.438 1.69 27.727 1.548 10.697 0 23.786 4.363 32.653 11.118-11.12-21.25-38.705-36.45-60.24-45.035z" class="M"/><path d="M18.814 381.295c8.163.28 16.326.985 24.208 3.237 8.023 2.392 38.846 16.466 43.63 22.518" class="C D E F J"/><path d="M441.92 176.134h-36.863c-5.682 0-10.394-4.714-10.394-10.398s4.712-10.4 10.394-10.4h36.863c5.682 0 10.394 4.714 10.394 10.4s-4.712 10.398-10.394 10.398z" fill="url(#J)"/><path d="M402.84 160.467h41.298m-41.298 5.27h41.298m-22.173 5.13h22.173" stroke="#fff" class="C D E F"/><g clip-path="url(#U)"><path d="M475.232 89.08l24.844-14.287-20.373 16.562 12.82 7.475 7.552-24.037-35.72 9.2 10.876 5.078z" fill="#08bde4"/><path d="M479.702 91.355l-2.054 8.197-2.416-10.472 24.844-14.288-20.374 16.562z" fill="#1b92f3"/><path d="M479.703 91.355l-2.093 8.2 7.124-5.266-5.03-2.933z" fill="#0971c8"/></g><path d="M475.152 101.257c-11.76 6.66-23.804 1.314-31.787 4.334s-9.516 10.804-8.784 14.004 4.17 8.826 9.868 10.88 7.004-2.37 2.808-7.15-12.506-9.174-18.61-4.468c-4.882 3.764-4.66 8.54-2.563 16.526s8.004 17.35 8.004 17.35" stroke="#dcdcdc" class="C D E P"/><g clip-path="url(#V)"><path d="M66.877 107.143L42.033 92.855l20.374 16.562-12.82 7.475-7.553-24.037 35.72 9.2-10.876 5.078z" fill="#08bde4"/><path d="M62.407 109.417l2.054 8.198 2.417-10.472-24.844-14.287 20.374 16.56z" fill="#1b92f3"/><path d="M62.407 109.417l2.093 8.2-7.124-5.267 5.03-2.933z" fill="#0971c8"/></g><path d="M66.958 119.32c11.76 6.66 23.804 1.314 31.787 4.334s9.516 10.804 8.783 14.005-4.17 8.825-9.868 10.88-7.004-2.37-2.807-7.15 12.506-9.174 18.608-4.468c4.882 3.764 4.66 8.54 2.564 16.526s-8.005 17.35-8.005 17.35" stroke="#dcdcdc" class="C D E P"/><path d="M126.888 452.194c47.633 0 86.248-3.828 86.248-8.55s-38.615-8.55-86.248-8.55-86.248 3.828-86.248 8.55 38.615 8.55 86.248 8.55z" class="N"/><path d="M107.175 345.87c0 3.94-4.163 9.294-4.163 9.294s-5.056-3.048-5.205-6.914c-.15-3.94 2.007-7.138 4.76-7.212 2.676-.15 4.61 1.858 4.61 4.832z" class="H"/><path d="M193.647 431.302c1.412-2.9 3.345-1.785 6.766.148s5.576 3.867 5.13 4.76c-.446.818-2.38.818-6.246.074-4.684-.966-6.617-3.123-5.65-4.98z" fill="#00558c"/><path d="M189.037 431.08l6.394-.075c.818.075 1.487.744 1.487 1.562s-.67 1.487-1.487 1.56l-6.394.595v-3.643z" class="B"/><path d="M103.087 436.804c12.788 5.576 69.37-1.7 69.37-1.7l.223-5.502c-2.9-.15-49.9-4.6-51.674-7.064-1.934-2.602 9.814-12.417 6.245-21.636 0-.075-.074-.15-.074-.298-3.197-7.88-14.2-8.327-18.29-.892-6.69 12.343-15.837 32.79-5.8 37.102z" fill="#5046af"/><path d="M118.924 410.78s9.815 22.677 16.73 26.32c12.343 6.543 55.095-1.86 55.095-1.86.743-1.7.818-3.57-.074-5.65 0 0-38.812-3.94-42.827-7.956-3.718-3.643.967-11.525-2.602-20.67-3.495-8.922-13.012-10.41-13.012-10.41H117.66l1.264 20.224z" fill="#6e64c3"/><path d="M99.443 405.502s-11.97-17.92-12.863-27.66c-.595-6.023-.372-17.4 10.632-20.67 7.36-2.23 24.1 3.346 26.097 12.937 1.636 7.88 3.94 17.696-.52 28.477.074-.075-10.558 9.59-23.347 6.915z" fill="#fff"/><path d="M106.88 373.68c2.677 5.353 6.47 10.112 9.517 15.242l5.874 10.112c.372-.298.595-.446.595-.446 4.46-10.78 2.156-20.596.52-28.477-1.2-5.65-7.5-9.9-14.052-11.97-3.123 4.982-5.353 9.9-2.454 15.54zm4.088 23.27c-2.677-5.205-6.023-9.963-8.997-15.02-3.866-6.47-8.922-14.2-10.037-22.008-5.725 4.758-5.725 13.012-5.28 17.844.892 9.74 12.863 27.66 12.863 27.66 5.65 1.2 10.855-.074 14.944-1.784-1.2-2.156-2.304-4.46-3.494-6.692z" fill="#73c8f0"/><path d="M105.094 453.16c-6.394 3.94-16.803 6.617-29.89-2.9-18.067-13.16-14.127-41.488-1.338-54.797 11.45-11.896 38.737-24.1 63.422 10.707 17.324 24.387 25.725 32.79 29.294 35.614 1.2.967 1.7 2.603 1.2 4.015-.67 1.933-2.825 2.9-4.76 2.156-5.65-2.23-17.1-8.03-28.476-21.636-15.837-19.108-28.477-18.365-37.176-14.275-5.65 2.676-8.773 13.83 2.38 13.457 17.844-.52 16.21 20.967 5.353 27.66z" class="K"/><path d="M187.105 453.3c-2.38 2.528-5.354 2.676-7.435 1.933-3.57-1.264-5.577-4.982-4.387-8.253s4.6-3.792 8.253-2.528c3.57 1.338 6.468 5.8 3.57 8.848z" fill="url(#K)"/><path d="M69.257 430.484c-2.082 0-3.346-1.264-3.866-2.454-.892-2.082-.074-4.46 1.785-5.204 1.86-.818 3.495.446 4.46 2.527.892 2.082.074 5.205-2.38 5.13z" fill="url(#L)"/><path d="M73.57 442.826s12.342 12.417 22.826 10.112 5.576-14.87-2.23-14.35c-7.807.595-13.086 2.23-17.1-2.825-4.015-4.982-11.004-.744-3.495 7.063z" fill="url(#M)"/><path d="M102.194 365.203c2.156-.595 3.346-2.825 2.75-4.982l-3.717-12.714-7.733 2.23 3.718 12.714c.595 2.082 2.825 3.346 4.98 2.75z" class="G"/><path d="M97.213 362.452l-2.082-7.138 7.584-2.23.446 1.412c1.04 3.644-.52 8.923-4.015 10.335-.967-.52-1.636-1.338-1.933-2.38z" class="O"/><path d="M97.065 363.27c3.346-.967 6.692-6.394 5.725-9.74l-2.007-6.99-12.268 3.57 2.007 6.99c1.04 3.27 5.056 6.543 6.543 6.17z" class="B"/><g class="G"><path d="M104.425 349.59c.446 1.487-.446 3.123-1.933 3.494l-1.56-5.502c1.487-.37 3.048.52 3.494 2.008z"/><path d="M88.29 349.143l12.194-3.495 1.264 4.238c.074.298.074.595.074.818-.297 0-.595-.074-.818-.148-.52-.223-1.115-.15-1.7 0-1.264.37-2.528.223-3.643-.223a6.24 6.24 0 0 0-4.907 0c-.297.148-.67.297-1.04.37l-.892.223-.52-1.784z"/></g><path d="M106.06 399.553l-6.618.075c-2.007.074-3.94-.52-5.874-1.636-.372.52-.223 1.264.297 1.636.743.52 1.56 1.115 1.487 1.412-.15.447-.966-.223-1.636 0-.52.15-.892.447-1.115.893-.818 2.007-.892 3.866-.074 5.65.223.52.818.744 1.338.447l6.543-2.75 5.428-2.082.223-3.644z" fill="#fa870a"/><path d="M105.69 398.513l-6.618.074c-2.007.074-3.94-.52-5.874-1.636-.372.52-.223 1.264.297 1.636.743.52 1.56 1.115 1.487 1.413-.15.446-.967-.223-1.636 0-.52.148-.892.446-1.115.892-.818 2.007-.892 3.866-.074 5.65.223.52.818.743 1.338.446l6.543-2.75 5.428-2.082.223-3.643z" class="B"/><path d="M101.377 398.587l4.313-.074-.298 3.792-4.163 1.56.148-5.28z" class="G"/><path d="M114.24 364.013c2.008-1.487 4.76-1.115 6.32.744 5.725 6.766 19.406 23.57 20.15 31.302.967 9.368-21.264 18.067-33.978 17.696-.893 0-1.7-.67-1.933-1.487-1.34-5.28-1.785-10.633-1.04-15.837.148-.967.892-1.7 1.858-1.785 4.685-.297 18.068-1.412 19.258-4.238.817-2.007-7.5-13.904-11.748-19.777-1.487-2.082-1.04-4.908 1.04-6.47 0-.074.074-.15.074-.15z" fill="#8ed1f0"/><path d="M95.13 364.236s.67-4.09-2.38-5.576c-2.008-.967-2.75-3.792-3.57-6.394-1.115 1.7-1.487 3.717-1.2 5.725l.15.892c.297 1.86 1.115 3.57 2.454 4.907l1.338 1.413-.52 3.123 3.718 1.858v-5.948z" class="G"/><path d="M100.634 370.482c.966 0 1.635.818 1.56 1.784-.818 7.584-4.312 36.507-11.45 35.987-5.948-.446-4.6-31.005-4.09-39.853.074-1.115 1.264-1.86 2.305-1.338 3.197 1.487 6.99 3.27 11.674 3.42z" fill="#8ed1f0"/><g class="H"><path d="M97 349.515c3.614 0 6.543-2.63 6.543-5.874s-2.93-5.874-6.543-5.874-6.543 2.63-6.543 5.874 2.93 5.874 6.543 5.874z"/><path d="M91.19 340.444c2.156.818 3.123 3.717 2.082 6.543s-6.543 4.46-6.543 4.46-2.454-4.46-1.413-7.36c1.115-2.75 3.643-4.46 5.874-3.643z"/></g><path d="M390.18 27.094c-3.07-2.53-6.142-7.225-3.613-15.353C390.1.542 404.9-2.348 413.662 1.806c7.857 3.703 18.604 15.263 5.418 33.415-9.21 12.734-12.01 18.424-12.824 20.59-.27.723-.993 1.264-1.806 1.264-1.084 0-1.897-.903-1.897-1.987.18-3.16 1.084-9.934 5.96-17.882 6.864-11.108 4.335-17.34.813-20.952-2.258-2.348-8.4-2.077-6.322 3.522 3.34 8.76-7.677 11.56-12.824 7.315z" fill="url(#N)"/><path d="M403.998 68.005c-1.626-.723-2.258-2.258-2.258-3.432 0-1.987 1.536-3.612 3.342-3.612s2.71 1.716 2.62 3.703c0 2.077-1.716 4.245-3.703 3.342z" fill="url(#O)"/><path d="M395.328 5.328c-.362-.993.1-1.897.54-2.348.904-.813 2.168-.813 2.9 0s.362 1.806-.54 2.62c-.813.813-2.44.993-2.9-.27zM389.9 9.573s-4.064 8.218-1.174 13.095 8.4.27 6.773-3.522-3.34-6.14-1.535-9.03c1.897-2.8-1.445-5.6-4.064-.542z" fill="#fe7269"/><path d="M322.706 490.636c25.138 0 45.517-3.032 45.517-6.773s-20.38-6.774-45.517-6.774-45.518 3.033-45.518 6.774 20.38 6.773 45.518 6.773z" class="N"/><path d="M332.043 328.796c1.195-7.543-4.107-14.563-11.724-15.384-6.87-.822-13.442 4.032-14.712 10.903a16.36 16.36 0 0 0-.224 2.688c.075 2.54-.746 5.153-2.464 7.02-1.494 1.643-2.464 3.585-2.987 5.6-.822 3.062-2.913 5.6-5.526 7.393-4.033 2.688-6.87 7.17-7.244 12.546-.597 8.513 5.75 16.205 14.263 17.25 9.4 1.195 17.176-5.75 18.222-14.188.523-4.332 1.94-8.588 4.406-12.248 1.045-1.568 1.717-3.36 2.09-5.302V345c.597-3.884 1.792-7.692 3.958-11.053.97-1.568 1.643-3.286 1.94-5.152z" fill="#ffdc64"/><path d="M308.67 478.076c1.045 2.4-.598 3.062-3.66 4.182-2.987 1.12-5.376 1.57-5.675.747-.3-.747.747-1.867 3.21-3.958 3.062-2.464 5.45-2.54 6.124-.97z" class="I"/><path d="M308.595 473.894l-.672 4.108c-.075.672-.597 1.194-1.27 1.194s-1.27-.522-1.27-1.194l-.523-5.228 3.734 1.12z" class="B"/><path d="M336.673 478.45c-1.345 2.315.298 3.136 3.21 4.555s5.153 2.09 5.526 1.344c.373-.672-.523-1.94-2.763-4.256-2.763-2.838-5.078-3.137-5.974-1.643z" class="I"/><path d="M336.524 474.417l.897 4.033c.074.672.672 1.195 1.344 1.12s1.195-.597 1.195-1.27l.224-5.302-3.66 1.42z" class="B"/><path d="M330.475 373.378s6.123 5.75 8.96 17.624c2.688 11.276 1.867 76.246 1.792 82.818a.72.72 0 0 1-.522.672c-1.345.3-2.764.373-4.257 0-.224-.075-.448-.3-.523-.523l-20.238-85.954 4.182-14.562h10.605v-.075z" fill="#a4c6ff"/><path d="M298.886 402.278s-.597-17.55 11.8-28.9h15.308s-8.438 68.33-16.802 100.59c-.075.224-.224.448-.448.448-1.494.374-2.913.448-4.257.075-.298-.075-.448-.3-.448-.598l-5.153-71.616z" fill="#c8dbfb"/><path d="M329.504 377.784c2.016-.597 3.66-2.24 4.256-4.257 1.643-5.152 4.705-15.906 3.5-21.73-.97-4.854-4.704-13.9-14.114-13.9-6.273 0-19.267 2.688-18.147 16.578.523 6.124 1.57 13.442 6.572 20.388.822 1.12 1.942 1.94 3.21 2.39 2.987.896 8.812 2.315 14.712.523z" fill="#eb5a7d"/><path d="M322.036 343.06a3.32 3.32 0 0 1-3.286-3.286V328.87h6.572v10.903c0 1.867-1.494 3.286-3.286 3.286z" class="G"/><path d="M318.676 329.692l.074.373c.45 3.136 3.436 6.422 6.572 6.273v-7.17l-.075-.224h-6.57v.747z" class="O"/><path d="M326.295 334.47c-2.838.448-7.17-2.464-7.618-5.302l-.896-5.9 10.306-1.568.896 5.9c.373 2.837-1.494 6.646-2.688 6.87z" class="B"/><g class="G"><path d="M316.5 326.555a2.33 2.33 0 0 0 2.315 2.315v-4.704c-1.27.074-2.315 1.12-2.315 2.39z"/><path d="M327.936 320.954l-8.663 1.27.3 1.94c-.896.15-1.493 1.046-1.344 1.942 0 .224.15.448.224.672.224-.15.373-.224.523-.373.373-.374.82-.523 1.27-.598 1.046-.15 1.942-.672 2.614-1.418.97-1.046 2.24-1.643 3.66-1.643.3 0 .598 0 .896-.075.224 0 .523-.075.747-.15l-.224-1.57z"/></g><path d="M325.92 306.093c-2.24.374-4.107 1.718-5.153 3.5-1.12 1.867-3.062 3.137-5.153 3.884h-.074a6.14 6.14 0 0 0-4.033 5.526c0 .298 0 .672.075.97.15 1.046.075 2.09-.3 3.062-.15.448-.224.97-.15 1.42.298 1.792 2.016 2.913 3.883 2.69.747-.15 1.42-.45 1.942-.97a2.87 2.87 0 0 1 1.717-.822c1.42-.224 2.614-.896 3.585-1.94 1.27-1.42 3.062-2.24 4.93-2.24.373 0 .82 0 1.194-.074 4.257-.672 7.17-4.705 6.423-8.962-.672-3.883-4.854-6.795-8.887-6.05z" fill="#ffdc64"/><path d="M324.5 343.955c.298-1.867 1.867-3.21 3.734-3.286 7.542-.448 26.36-2.09 32.186-6.198 4.928-3.5 11.873-21.134 11.873-21.134l12.994 11.202c.747.672.97 1.717.598 2.614-2.09 4.78-8.887 19.266-17.027 23.97-7.84 4.48-31.962-.373-41.297-2.464a4.1 4.1 0 0 1-3.061-4.705z" fill="#eb5a7d"/><path d="M334.508 299.97c-4.257-4.406-8.3-12.322-2.913-24.42 7.393-16.802 30.767-18.595 43.687-10.68 11.5 7.095 26.062 26.8 2.464 52.648-16.504 18.147-21.73 26.36-23.374 29.647-.598 1.12-1.792 1.792-3.062 1.643-1.643-.224-2.838-1.792-2.54-3.435.747-4.93 3.435-15.16 12.396-26.585 12.472-16.056 9.71-26.063 4.93-32.26-3.136-4.033-12.62-4.63-10.38 4.256 3.5 14.264-13.965 16.728-21.208 9.186z" class="H"/><path d="M348.697 365.686c-2.465-1.493-3.062-3.808-2.838-5.675.373-3.137 2.987-5.302 5.825-5.004 2.838.374 3.883 3.062 3.435 6.124-.373 3.21-3.5 6.347-6.422 4.555z" fill="url(#P)"/><path d="M346.307 267.26a3.38 3.38 0 0 1 1.269-3.51c1.494-1.12 3.5-.82 4.48.523s.224 2.912-1.27 3.958c-1.42 1.12-4.032 1.045-4.48-.97z" fill="url(#Q)"/><path d="M337.197 272.862s-7.767 12.023-4.108 20.013 12.92 1.867 11.053-4.256-4.108-10.082-.747-14.19c3.36-4.033-1.27-8.887-6.198-1.568z" fill="url(#R)"/><path d="M317.333 323.568c-.15.224-.672 1.42-.747 1.643 0 .075-.075.224-.15.523 0 .074-.075.15-.15.15s-.15 0-.224-.075c-.224-.448-.672-.672-1.12-.672-.224 0-.448.3-.3.523l.3.747c.374 1.045.448 2.166.075 3.21l-.523 1.643 2.4 1.12 2.54-2.763c1.195-1.344 1.792-3.062 1.643-4.854-.374-2.838-1.27-5.974-3.734-1.195z" class="B"/><path d="M309.267 328.87c2.54.97 6.795 2.69 9.932 5.228.672.522.896 1.42.747 2.165-1.718 6.348-9.56 34.352-15.757 33.008-6.05-1.344.373-30.543 2.315-38.907.298-1.195 1.568-1.942 2.763-1.494z" fill="#eb6a89"/><path d="M380.062 319.983l4.33-5.675s4.78-6.273 3.136-9.036c-1.643-2.838-6.273-8.44-6.422-3.958s-2.24 7.916-1.045 10.082-2.54 6.422-2.54 6.422l2.54 2.165z" class="B"/><path d="M503.514 452.207c21.257 0 38.488-2.633 38.488-5.88s-17.23-5.88-38.488-5.88-38.488 2.633-38.488 5.88 17.232 5.88 38.488 5.88z" class="N"/><path d="M506.874 284.51a3.42 3.42 0 0 1-6.873 0 3.42 3.42 0 0 1 3.436-3.437c1.9.077 3.437 1.604 3.437 3.437z" fill="#41a0d7"/><path d="M505.194 291c2.15 0 3.895-1.744 3.895-3.895s-1.744-3.895-3.895-3.895-3.894 1.744-3.894 3.895 1.743 3.895 3.894 3.895z" class="H"/><path d="M518.787 301.004s5.27 16.113 10.54 20.465c4.2 3.437 18.48 6.262 23.444 7.18 1.07.152 1.832 1.07 1.91 2.138.458 5.88-.84 11.455-3.13 16.953 0 0-24.437-10.92-29.935-17.564-4.353-5.27-9.01-25.66-9.01-25.66l6.185-3.512z" class="M"/><path d="M485.036 443.654c.763 2.825-1.222 3.283-4.735 4.047s-6.185.84-6.338-.076c-.153-.84 1.07-1.986 4.2-3.82 3.742-2.29 6.338-1.985 6.873-.152z" class="I"/><path d="M485.035 438.843l-.764 4.58a1.42 1.42 0 0 1-1.451 1.299 1.37 1.37 0 0 1-1.375-1.375l-.458-5.88 4.048 1.375z" class="B"/><path d="M459.986 377.368c-1.145-2.75-2.978-1.832-6.185-.23s-5.346 3.208-4.888 4.048c.382.763 2.062.84 5.65.382 4.277-.61 6.186-2.444 5.422-4.2z" class="I"/><path d="M463.652 379.888l-4.2-1.91c-.687-.382-1.45-.152-1.91.458-.382.61-.306 1.45.305 1.9l4.582 3.74 1.222-4.2z" class="B"/><path d="M517.87 345.677c-3.207-13.287-10.003-19.702-10.003-19.702H496.03l-4.658 16.266s12.524 40.244 7.102 44.062c-5.5 3.82-34.9-7.33-34.9-7.33-.306-.076-.61 0-.764.23-1.145 1.375-1.756 2.826-2.062 4.277-.076.382.153.687.458.84 4.2 2.062 39.48 27.186 55.518 16.953 10.31-6.49 2.75-49.027 1.145-55.594z" fill="#00ad9f"/><path d="M471.593 358.735s-11.226-17.41 10.768-32.608l18.327-.61s-6.796 76.442-14.89 112.792c-.076.23-.23.458-.535.534-1.603.46-3.207.61-4.734.23-.306-.077-.535-.306-.535-.688l-8.4-79.65z" fill="#52d2bc"/><path d="M507.56 336.513s11.837-15.96 12.677-24.895c.534-5.498-.61-16.342-10.69-19.32-6.72-1.986-21.993 3.054-23.826 11.836-1.527 7.255-3.59 16.2.458 26.04-.076 0 9.698 8.782 21.382 6.338z" class="M"/><path d="M505.042 299.63c-1.986-.535-3.055-2.597-2.52-4.582l3.36-11.684 7.025 2.062-3.36 11.684c-.458 1.985-2.52 3.13-4.505 2.52z" class="G"/><path d="M509.623 297.11l1.91-6.568-6.95-1.985-.382 1.298c-.993 3.36.458 8.17 3.666 9.47.84-.458 1.45-1.22 1.756-2.214z" class="O"/><path d="M509.7 297.872c-3.055-.916-6.186-5.803-5.27-8.934l1.832-6.415 11.608 1.756-2.29 7.866c-.84 3.13-4.505 6.11-5.88 5.727z" class="B"/><g class="G"><path d="M502.98 285.425c-.382 1.374.382 2.825 1.756 3.207l1.45-4.963c-1.374-.46-2.825.305-3.207 1.756z"/><path d="M517.795 284.967l-9.47-2.75-.61 2.06c-.993-.23-1.986.382-2.29 1.375-.076.23-.076.535-.076.764.23 0 .534-.077.763-.153.458-.153.993-.153 1.528 0 1.145.305 2.29.23 3.36-.153 1.45-.61 3.054-.61 4.505 0 .917.382 1.986-.153 2.29-1.145z"/></g><path d="M518.71 275.04c.153 1.375-1.07 2.98-3.054 1.222-1.68-1.527-3.82-2.444-6.1-2.596h-.076c-1.91-.153-3.818.61-4.964 2.138-.61.764-.916 1.604-1.145 2.367-.153.688-.458 1.298-1.07 1.757-.458.38-.764.84-.917 1.374-.458 1.604.535 3.284 2.215 3.818.687.23 1.375.153 1.985 0a2.74 2.74 0 0 1 1.91 0c1.298.306 2.52.23 3.665-.23 1.604-.687 4.277-.23 5.117 0 3.894 1.222 7.102-2.138 6.796-5.727-.153-2.138-1.985-3.513-3.742-4.43-.305-.306-.687-.077-.61.305z" class="H"/><path d="M471.212 392.794c-6.568-2.06-14.586-7.712-15.732-22.45-1.603-20.39 20.4-34.517 37.267-33.6 15.044.84 39.786 12.524 30.317 50.4-6.644 26.5-7.408 37.343-7.255 41.543.076 1.45-.764 2.673-2.138 3.207-1.757.688-3.666-.23-4.277-1.985-1.833-5.193-4.658-16.648-1.91-32.684 3.818-22.375-4.2-30.7-12.218-34.288-5.27-2.29-14.815 2.138-7.942 9.698 10.844 12.066-5.04 23.75-16.113 20.16z" fill="#7ee8d4"/><path d="M518.712 447.7c-3.13-.153-5.04-2.138-5.804-4.047-1.222-3.284.153-6.797 3.055-7.942 2.978-1.146 5.422.993 6.644 4.2 1.374 3.284-.077 8.018-3.895 7.8zm-53.15-93.24c-1.222-1.45-1.146-3.055-.6-4.124.916-1.833 2.978-2.673 4.735-1.9 1.68.84 1.756 2.75.84 4.582-.917 1.9-3.513 3.207-4.964 1.45zm-6.032 10.308s-1.298 15.96 6.568 21.84 13.67-5.04 8.63-10.08-9.317-7.8-8.248-13.517-6.032-8.095-6.95 1.756z" class="K"/><path d="M511.533 373.703c-4.505-5.193-8.476-14.127-1.832-27.415 9.164-18.25 35.357-18.94 49.255-9.393 12.448 8.553 27.492 31.3-.23 58.8-19.397 19.244-25.735 28.103-27.72 31.692a3.39 3.39 0 0 1-3.513 1.68c-1.833-.306-3.055-2.138-2.673-3.97 1.145-5.422 4.658-16.648 15.273-28.943 14.815-17.182 12.37-28.407 7.33-35.662-3.284-4.735-13.746-5.88-11.836 4.2 3.283 16.037-16.42 17.793-24.056 9zM523.6 447.7c-2.596-1.756-3.207-4.43-2.825-6.415.6-3.436 3.665-5.803 6.72-5.193 3.13.535 4.124 3.6 3.513 7.026s-4.2 6.72-7.408 4.582z" fill="#fe7269"/><path d="M526.578 337.964c-.305-1.832.61-3.207 1.68-3.818 1.757-1.145 3.97-.764 4.964.84s.076 3.284-1.68 4.353c-1.68 1.145-4.582.916-4.964-1.375z" fill="url(#S)"/><path d="M516.117 343.692s-9.393 12.982-5.727 22.07 14.28 2.826 12.6-4.124-3.97-11.454 0-15.807c3.895-4.43-.916-10.08-6.873-2.138z" fill="url(#T)"/><path d="M498.933 333.993l5.957.993c3.894.458 3.436 1.604 3.512 1.91.077.382.917-.076 1.528.23.458.153.763.535.84.993.458 1.91.23 3.666-.687 5.116-.306.46-.84.535-1.3.23l-5.498-3.36-4.582-2.673.23-3.437z" class="B"/><path d="M494.8 299.4c-1.91-1.91-5.04-1.833-6.797.153-6.185 7.025-19.09 22.145-20.39 27.338-2.138 8.324 16.418 19.092 27.95 20.62.993.153 1.986-.458 2.368-1.375 1.833-4.43 2.902-8.934 2.978-13.516 0-1.07-.687-1.986-1.756-2.215-4.43-.993-15.808-3.742-16.495-6.415-.382-1.45 8.17-12.83 12.524-18.48 1.45-1.91 1.222-4.506-.382-6.11z" fill="#0b43a4"/><path d="M553.15 332.466s-.46 3.59 1.374 4.353 2.597-.306 3.742.916c1.222 1.222 1.91 3.36 3.284 2.596.61-.38 1.298-3.436-.84-5.04-2.062-1.603-6.568-4.582-7.56-2.825z" class="B"/><path d="M508.632 280.767c0 2.214-1.833 4.047-4.048 4.047s-4.047-1.833-4.047-4.047 1.833-4.048 4.047-4.048 4.048 1.833 4.048 4.048z" class="H"/><defs><linearGradient id="A" x1="525.517" y1="394.79" x2="634.762" y2="241.028" xlink:href="#X"><stop stop-color="#1c8ef4"/><stop offset="1" stop-color="#00cfdd"/></linearGradient><linearGradient id="B" x1="269.665" y1="258.78" x2="271.052" y2="411.295" xlink:href="#X"><stop offset="0" stop-color="#ff8c6a"/><stop offset="1" stop-color="#ff7267"/></linearGradient><linearGradient id="C" x1="122.078" y1="260.122" x2="123.465" y2="412.638" xlink:href="#X"><stop offset="0" stop-color="#ff8c6a"/><stop offset="1" stop-color="#ff7468"/></linearGradient><linearGradient id="D" x1="455.172" y1="230.747" x2="453.194" y2="409.639" xlink:href="#X"><stop offset="0" stop-color="#ff8c6a"/><stop offset="1" stop-color="#ff7468"/></linearGradient><linearGradient id="E" x1="518.74" y1="325.903" x2="498.302" y2="365.932" xlink:href="#X"><stop stop-color="#ff8c6a"/><stop offset=".831" stop-color="#ff7468"/></linearGradient><linearGradient id="F" x1="428.757" y1="382.678" x2="487.995" y2="385.458" xlink:href="#X"><stop stop-color="#ff8c6a"/><stop offset=".756" stop-color="#ff7468"/></linearGradient><linearGradient id="G" x1="32.512" y1="227.473" x2="85.72" y2="154.438" xlink:href="#X"><stop stop-color="#6d40bb"/><stop offset="1" stop-color="#a560d7"/></linearGradient><linearGradient id="H" x1="79.63" y1="235.672" x2="97.72" y2="216.222" xlink:href="#X"><stop stop-color="#6d40bb"/><stop offset="1" stop-color="#a560d7"/></linearGradient><linearGradient id="I" x1="225.779" y1="183.332" x2="245.259" y2="131.837" xlink:href="#X"><stop stop-color="#1c8ef4"/><stop offset="1" stop-color="#00cfdd"/></linearGradient><linearGradient id="J" x1="394.664" y1="176.133" x2="409.149" y2="137.893" xlink:href="#X"><stop stop-color="#6d40bb"/><stop offset="1" stop-color="#a560d7"/></linearGradient><linearGradient id="K" x1="174.939" y1="455.633" x2="187.316" y2="442.304" xlink:href="#X"><stop stop-color="#1c8ef4"/><stop offset="1" stop-color="#00cfdd"/></linearGradient><linearGradient id="L" x1="65.028" y1="430.485" x2="73.216" y2="423.626" xlink:href="#X"><stop stop-color="#1c8ef4"/><stop offset="1" stop-color="#00cfdd"/></linearGradient><linearGradient id="M" x1="70.241" y1="453.222" x2="88.964" y2="423.987" xlink:href="#X"><stop stop-color="#1c8ef4"/><stop offset="1" stop-color="#00cfdd"/></linearGradient><linearGradient id="N" x1="405.458" y1="0" x2="405.458" y2="57.077" xlink:href="#X"><stop stop-color="#ff7066"/><stop offset="1" stop-color="#ff986b"/></linearGradient><linearGradient id="O" x1="404.724" y1="60.961" x2="404.724" y2="68.216" xlink:href="#X"><stop stop-color="#ff7066"/><stop offset="1" stop-color="#ff986b"/></linearGradient><linearGradient id="P" x1="345.815" y1="366.208" x2="357.324" y2="357.03" xlink:href="#X"><stop stop-color="#6d40bb"/><stop offset="1" stop-color="#a560d7"/></linearGradient><linearGradient id="Q" x1="346.214" y1="268.955" x2="352.408" y2="262.669" xlink:href="#X"><stop stop-color="#6d40bb"/><stop offset="1" stop-color="#a560d7"/></linearGradient><linearGradient id="R" x1="332.109" y1="296.684" x2="353.134" y2="287.668" xlink:href="#X"><stop stop-color="#6d40bb"/><stop offset="1" stop-color="#a560d7"/></linearGradient><linearGradient id="S" x1="530.074" y1="333.485" x2="530.074" y2="340.012" xlink:href="#X"><stop stop-color="#ff7066"/><stop offset="1" stop-color="#ff986b"/></linearGradient><linearGradient id="T" x1="516.969" y1="339.708" x2="516.969" y2="370.292" xlink:href="#X"><stop stop-color="#ff7066"/><stop offset="1" stop-color="#ff986b"/></linearGradient><clipPath id="U"><path fill="#fff" transform="matrix(.998822 -.04852 .04852 .998822 463.691 70.312)" d="M0 0h36.125v36.125H0z"/></clipPath><clipPath id="V"><path fill="#fff" transform="matrix(-.998822 -.04852 -.04852 .998822 78.418 88.3741)" d="M0 0h36.125v36.125H0z"/></clipPath><path id="W" d="M58.705 204.554c1.837 0 3.326-1.49 3.326-3.327a3.33 3.33 0 0 0-3.326-3.328 3.33 3.33 0 0 0-3.326 3.328c0 1.838 1.49 3.327 3.326 3.327z"/><linearGradient id="X" gradientUnits="userSpaceOnUse"/></defs></svg>