<svg width="181" height="163" viewBox="0 0 181 163" fill="none" xmlns="http://www.w3.org/2000/svg">
<path d="M26.0995 28.825C12.6652 9.06364 7.31072 -42.6004 102.925 -71.6277L238.887 -129.41L277.123 -2.2865C265.964 7.79056 240.117 29.8158 226.004 37.2995C208.362 46.6542 195.503 55.7123 187.181 65.6869C178.86 75.6616 179.328 95.3377 158.57 96.6882C130.38 98.5221 118.088 63.2217 98.3155 53.9911C75.5341 43.3558 39.5337 48.5864 26.0995 28.825Z" fill="url(#paint0_linear)"/>
<path opacity="0.4" d="M48.3919 66.0032C31.4127 49.1896 16.236 -0.484447 104.496 -47.3336L226.83 -130.151L288.768 -12.7369C279.752 -0.704386 258.616 25.8746 246.203 35.9294C230.686 48.498 219.806 59.857 213.555 71.2441C207.303 82.6312 211.542 101.851 191.429 107.163C164.116 114.377 145.274 82.0937 124.097 76.8322C99.6969 70.7699 65.3711 82.8167 48.3919 66.0032Z" fill="url(#paint1_linear)"/>
<defs>
<linearGradient id="paint0_linear" x1="73.5591" y1="136.498" x2="137.201" y2="-162.746" gradientUnits="userSpaceOnUse">
<stop stop-color="#6D40BB"/>
<stop offset="1" stop-color="#A560D7"/>
</linearGradient>
<linearGradient id="paint1_linear" x1="115.646" y1="162.558" x2="120.635" y2="-143.338" gradientUnits="userSpaceOnUse">
<stop stop-color="#6D40BB"/>
<stop offset="1" stop-color="#A560D7"/>
</linearGradient>
</defs>
</svg>
