<svg xmlns="http://www.w3.org/2000/svg" width="58" height="58" fill="none" xmlns:v="https://vecta.io/nano"><path d="M22.375 37.837c0-.53-.545-.886-1.05-.733-.855.26-1.76.4-2.7.4s-1.844-.14-2.7-.4c-.506-.153-1.05.204-1.05.733a.73.73 0 0 0 .17.469l2.812 3.374a1 1 0 0 0 1.536 0l2.812-3.374a.73.73 0 0 0 .17-.469z" fill="url(#A)"/><path d="M18.152 45.35a1 1 0 0 0-.447 1.342l.402.804a.58.58 0 0 0 1.037 0l.402-.804a1 1 0 0 0-.447-1.342l-.025-.013a1 1 0 0 0-.894 0l-.025.013z" fill="url(#A)"/><path d="M12.876 39.38a1 1 0 0 0-.949 1.316l1.256 3.768a1 1 0 0 0 1.396.578l1.44-.72a1 1 0 0 0 .321-1.535l-2.54-3.048a1 1 0 0 0-.768-.36h-.154z" fill="url(#A)"/><path d="M25.323 40.695a1 1 0 0 0-.949-1.316h-.154a1 1 0 0 0-.768.36l-2.54 3.048a1 1 0 0 0 .321 1.535l1.44.72a1 1 0 0 0 1.396-.578l1.256-3.768z" fill="url(#A)"/><path d="M28 28.13a1.88 1.88 0 0 0 1.875-1.875c0-1.034-.84-1.875-1.875-1.875v3.75z" fill="url(#A)"/><path d="M10.188 21.567h5.625a4.71 4.71 0 0 0 3.75-1.875l1.125-1.5c.353-.47 1.147-.47 1.5 0l1.125 1.5a4.71 4.71 0 0 0 3.75 1.876c.518 0 .938.42.938.938a3.69 3.69 0 0 1 .938.133V20.63c0-5.686-4.627-10.312-10.312-10.312S8.313 14.943 8.313 20.63v2.008a3.69 3.69 0 0 1 .938-.133c0-.518.42-.937.938-.937z" fill="url(#A)"/><path d="M28.938 39.38c-.717 0-1.353.46-1.58 1.138l-2.22 6.658a.94.94 0 0 1-.53.569.92.92 0 0 1-.359.072.94.94 0 0 1-.419-.098l-.486-.243a1.87 1.87 0 0 0-2.673 2.041l1.213 6.068a2 2 0 0 0 1.961 1.608h10.592a2 2 0 0 0 2-2V46.88a7.51 7.51 0 0 0-7.5-7.5z" fill="url(#A)"/><path d="M26.125 23.373a6.6 6.6 0 0 1-4.312-2.558l-.375-.5-.375.5c-1.233 1.643-3.196 2.625-5.25 2.625h-4.687v4.688a7.51 7.51 0 0 0 7.5 7.5 7.51 7.51 0 0 0 7.5-7.5v-4.756z" fill="url(#A)"/><path d="M13.42 47.718a.94.94 0 0 1-.419.098c-.122 0-.244-.023-.36-.07-.25-.104-.445-.312-.53-.57l-2.22-6.66c-.227-.68-.863-1.138-1.58-1.138a7.51 7.51 0 0 0-7.5 7.5v8.313a2 2 0 0 0 2 2h10.592a2 2 0 0 0 1.961-1.608l1.214-6.068a1.87 1.87 0 0 0-2.673-2.041l-.487.244z" fill="url(#A)"/><path d="M18.625 49.692c-.098 0-.183.07-.202.165l-1.228 6.138a1 1 0 0 0 .981 1.196h.898a1 1 0 0 0 .981-1.196l-1.228-6.138c-.02-.096-.104-.165-.202-.165z" fill="url(#A)"/><path d="M9.25 28.13v-3.75c-1.034 0-1.875.84-1.875 1.875a1.88 1.88 0 0 0 1.875 1.875z" fill="url(#A)"/><path d="M55.25 22.504a1 1 0 0 1-1-1V10.38a1 1 0 0 0-1-1H51.5a1 1 0 0 0-1 1v11.125a1 1 0 0 1-1 1h-1.75a1 1 0 0 1-1-1v-5.5a1 1 0 0 0-1-1H44a1 1 0 0 0-1 1v5.5a1 1 0 0 1-1 1h-1.75a1 1 0 0 1-1-1v-2.687a1 1 0 0 0-1-1H36.5a1 1 0 0 0-1 1v2.688a1 1 0 0 1-1 1h-.875a.94.94 0 0 0-.937.938.94.94 0 0 0 .938.938h22.5a.94.94 0 0 0 .938-.937.94.94 0 0 0-.937-.937h-.875z" fill="url(#A)"/><path d="M41.426 6.655a.3.3 0 0 1 .212-.088h5.113c.25 0 .487-.098.663-.275l1.638-1.638a.3.3 0 0 1 .512.212v1.4a.3.3 0 0 0 .3.3h1.275a.3.3 0 0 0 .3-.3V1.88c0-.518-.42-.938-.937-.938h-4.388a.3.3 0 0 0-.3.3v1.275a.3.3 0 0 0 .3.3h1.4a.3.3 0 0 1 .212.512L46.45 4.604a.3.3 0 0 1-.212.088h-5.113c-.25 0-.487.098-.663.275L35.05 10.38a.3.3 0 0 0 0 .424l.9.9a.3.3 0 0 0 .424 0l5.05-5.05z" fill="url(#A)"/><path d="M39.525 26.53l-10.7 10.7c-.1.1-.03.274.114.274.5 0 1.01.044 1.496.125a1.06 1.06 0 0 0 .926-.284l8.923-8.923a1 1 0 0 1 .707-.293h15.135a.94.94 0 0 0 .938-.937.94.94 0 0 0-.937-.937H40.188c-.25 0-.487.098-.663.275z" fill="url(#A)"/><defs><linearGradient id="A" x1=".812" y1="57.188" x2="59.875" y2=".938" gradientUnits="userSpaceOnUse"><stop stop-color="#1c8ef4"/><stop offset="1" stop-color="#00cfdd"/></linearGradient></defs></svg>