<?xml version="1.0" encoding="UTF-8"?>
<svg fill="none" viewBox="0 0 45 34" xmlns="http://www.w3.org/2000/svg">
<g clip-path="url(#d)">
<path d="m3.4698 7.5855c0.12126-1.0868 0.96336-1.9533 2.0462-2.1056l1.3112-0.18444c0.95741-0.13467 1.8856 0.39187 2.2612 1.2828 0.36536 0.86655 1.2554 1.3913 2.1905 1.2915l5.0272-0.53657c0.1804-0.01925 0.3624-0.01794 0.5426 0.00391l10.481 1.2717c1.2205 0.14809 2.1305 1.1964 2.1056 2.4256l-0.3031 14.941c-0.0379 1.8658-2.1009 2.9731-3.6767 1.9735l-3.7935-2.4064c-0.8774-0.5566-2.0137-0.4838-2.8129 0.1803l-6.97 5.7914c-0.3486 0.2897-0.7723 0.4745-1.2218 0.5329l-7.0364 0.9143c-1.5403 0.2002-2.8606-1.0964-2.6883-2.6401l2.5369-22.736z" fill="url(#c)"/>
<mask id="a" x="-0.0976507" y="1.06562" width="45.5862" height="32.8298" fill="black" maskUnits="userSpaceOnUse">
<rect x="-.097651" y="1.0656" width="45.586" height="32.83" fill="#fff"/>
<path d="m4.4112 20.338 2.8299-0.2898-0.74887 7.9188 4.7736-0.4888-0.2276 2.2907-7.6035 0.7786 0.97645-10.21z"/>
<path d="m13.134 19.444 2.8299-0.2898-0.9765 10.21-2.8298 0.2898 0.9764-10.21z"/>
<path d="m28.083 17.914-5.2499 10.647-2.787 0.2854-3.297-9.7719 2.9014-0.2971 2.0951 6.3566 3.4217-6.9216 2.9157-0.2985z"/>
<path d="m31.251 19.799-0.156 1.7202 4.4449-0.4552-0.1979 2.1578-4.4592 0.4566-0.17 1.866 5.2453-0.5371-0.2334 2.2335-8.018 0.8211 0.9764-10.21 7.8322-0.802-0.2191 2.2321-5.0452 0.5166z"/>
<path d="m37.814 16.917 3.2444-0.3322-1.1639 6.546-2.1581 0.2209 0.0776-6.4347zm0.8519 10.152c-0.4478 0.0459-0.8331-0.0495-1.1558-0.286-0.3132-0.2375-0.4897-0.5516-0.5297-0.9423-0.0469-0.4573 0.0766-0.8503 0.3703-1.1788 0.2927-0.3381 0.682-0.532 1.168-0.5818 0.4573-0.0468 0.8421 0.0438 1.1543 0.2717 0.3122 0.228 0.4883 0.5374 0.5283 0.928 0.0459 0.4478-0.0819 0.846-0.3831 1.1946-0.2918 0.3476-0.6759 0.5458-1.1523 0.5946z"/>
<path d="m14.639 6.8904-0.8951 9.3587-2.1355 0.2187-3.5416-4.721-0.49363 5.1342-2.5417 0.2603 0.89508-9.3588 2.1355-0.21868 3.5534 4.7065 0.4819-5.1197 2.5416-0.26026z"/>
<path d="m20.558 15.737c-0.9258 0.0948-1.7512 0.0072-2.4761-0.2627-0.7161-0.2709-1.2933-0.6928-1.7315-1.2657-0.4294-0.5739-0.6844-1.2538-0.7649-2.0399-0.1073-1.0481 0.0363-2.016 0.4308-2.9037 0.4033-0.88857 1.0131-1.613 1.8295-2.1731 0.8251-0.56109 1.7923-0.89843 2.9015-1.012 0.9259-0.09481 1.7469-0.00678 2.463 0.2641 0.7249 0.26997 1.3021 0.69188 1.7315 1.2657 0.4382 0.57293 0.6975 1.2524 0.778 2.0385 0.1073 1.0481-0.0406 2.0164-0.4439 2.905-0.3945 0.8877-1.0043 1.6121-1.8294 2.1732-0.8164 0.5602-1.7793 0.897-2.8885 1.0106zm0.0027-2.1714c0.5765-0.059 1.0683-0.255 1.4755-0.588 0.4072-0.3329 0.7041-0.7517 0.8907-1.2562 0.1858-0.5132 0.2487-1.0625 0.1887-1.6477-0.0635-0.62009-0.3061-1.0939-0.728-1.4214-0.414-0.33712-0.9617-0.47079-1.643-0.40103-0.5764 0.05903-1.0682 0.25502-1.4754 0.58797s-0.7037 0.75605-0.8894 1.2693c-0.1867 0.5045-0.25 1.0494-0.1901 1.6346 0.0635 0.6201 0.3023 1.0987 0.7163 1.4358 0.4219 0.3275 0.9734 0.4564 1.6547 0.3866z"/>
<path d="m41.628 4.1268-3.8691 9.6633-2.7774 0.2844-1.2344-5.4603-2.3554 5.8279-2.7906 0.2857-2.0658-9.0555 2.5548-0.26161 1.3071 5.7838 2.4922-6.1729 2.3976-0.24551 1.2628 5.8678 2.5104-6.2542 2.5678-0.26296z"/>
</mask>
<path d="m4.4112 20.338 2.8299-0.2898-0.74887 7.9188 4.7736-0.4888-0.2276 2.2907-7.6035 0.7786 0.97645-10.21z" fill="#fff"/>
<path d="m13.134 19.444 2.8299-0.2898-0.9765 10.21-2.8298 0.2898 0.9764-10.21z" fill="#fff"/>
<path d="m28.083 17.914-5.2499 10.647-2.787 0.2854-3.297-9.7719 2.9014-0.2971 2.0951 6.3566 3.4217-6.9216 2.9157-0.2985z" fill="#fff"/>
<path d="m31.251 19.799-0.156 1.7202 4.4449-0.4552-0.1979 2.1578-4.4592 0.4566-0.17 1.866 5.2453-0.5371-0.2334 2.2335-8.018 0.8211 0.9764-10.21 7.8322-0.802-0.2191 2.2321-5.0452 0.5166z" fill="#fff"/>
<path d="m37.814 16.917 3.2444-0.3322-1.1639 6.546-2.1581 0.2209 0.0776-6.4347zm0.8519 10.152c-0.4478 0.0459-0.8331-0.0495-1.1558-0.286-0.3132-0.2375-0.4897-0.5516-0.5297-0.9423-0.0469-0.4573 0.0766-0.8503 0.3703-1.1788 0.2927-0.3381 0.682-0.532 1.168-0.5818 0.4573-0.0468 0.8421 0.0438 1.1543 0.2717 0.3122 0.228 0.4883 0.5374 0.5283 0.928 0.0459 0.4478-0.0819 0.846-0.3831 1.1946-0.2918 0.3476-0.6759 0.5458-1.1523 0.5946z" fill="#fff"/>
<path d="m14.639 6.8904-0.8951 9.3587-2.1355 0.2187-3.5416-4.721-0.49363 5.1342-2.5417 0.2603 0.89508-9.3588 2.1355-0.21868 3.5534 4.7065 0.4819-5.1197 2.5416-0.26026z" fill="#fff"/>
<path d="m20.558 15.737c-0.9258 0.0948-1.7512 0.0072-2.4761-0.2627-0.7161-0.2709-1.2933-0.6928-1.7315-1.2657-0.4294-0.5739-0.6844-1.2538-0.7649-2.0399-0.1073-1.0481 0.0363-2.016 0.4308-2.9037 0.4033-0.88857 1.0131-1.613 1.8295-2.1731 0.8251-0.56109 1.7923-0.89843 2.9015-1.012 0.9259-0.09481 1.7469-0.00678 2.463 0.2641 0.7249 0.26997 1.3021 0.69188 1.7315 1.2657 0.4382 0.57293 0.6975 1.2524 0.778 2.0385 0.1073 1.0481-0.0406 2.0164-0.4439 2.905-0.3945 0.8877-1.0043 1.6121-1.8294 2.1732-0.8164 0.5602-1.7793 0.897-2.8885 1.0106zm0.0027-2.1714c0.5765-0.059 1.0683-0.255 1.4755-0.588 0.4072-0.3329 0.7041-0.7517 0.8907-1.2562 0.1858-0.5132 0.2487-1.0625 0.1887-1.6477-0.0635-0.62009-0.3061-1.0939-0.728-1.4214-0.414-0.33712-0.9617-0.47079-1.643-0.40103-0.5764 0.05903-1.0682 0.25502-1.4754 0.58797s-0.7037 0.75605-0.8894 1.2693c-0.1867 0.5045-0.25 1.0494-0.1901 1.6346 0.0635 0.6201 0.3023 1.0987 0.7163 1.4358 0.4219 0.3275 0.9734 0.4564 1.6547 0.3866z" fill="#fff"/>
<path d="m41.628 4.1268-3.8691 9.6633-2.7774 0.2844-1.2344-5.4603-2.3554 5.8279-2.7906 0.2857-2.0658-9.0555 2.5548-0.26161 1.3071 5.7838 2.4922-6.1729 2.3976-0.24551 1.2628 5.8678 2.5104-6.2542 2.5678-0.26296z" fill="#fff"/>
<path d="m4.4112 20.338-0.24393-2.3821c-1.1355 0.1163-2.031 1.0179-2.1397 2.1541l2.3836 0.228zm2.8299-0.2898 2.3839 0.2255c0.0675-0.7138-0.18837-1.4202-0.69728-1.9252s-1.2173-0.7554-1.9305-0.6823l0.24392 2.382zm-0.74887 7.9188-2.3839-0.2254c-0.0675 0.7137 0.18836 1.4202 0.69728 1.9252 0.50891 0.5049 1.2173 0.7553 1.9305 0.6823l-0.24393-2.3821zm4.7736-0.4888 2.3828 0.2367c0.0711-0.7154-0.1831-1.4249-0.6922-1.9324-0.5091-0.5076-1.2193-0.7596-1.9345-0.6864l0.2439 2.3821zm-0.2276 2.2907 0.244 2.3821c1.1321-0.116 2.0263-1.0128 2.1388-2.1454l-2.3828-0.2367zm-7.6035 0.7786-2.3836-0.2279c-0.068296 0.7141 0.18718 1.4212 0.69614 1.9268 0.50896 0.5055 1.2178 0.7563 1.9314 0.6832l-0.24392-2.3821zm9.6998-11.103-0.2439-2.382c-1.1355 0.1162-2.0311 1.0178-2.1397 2.154l2.3836 0.228zm2.8299-0.2898 2.3836 0.228c0.0683-0.7141-0.1872-1.4212-0.6961-1.9268-0.509-0.5056-1.2178-0.7563-1.9314-0.6832l0.2439 2.382zm-0.9765 10.21 0.244 2.382c1.1354-0.1162 2.031-1.0178 2.1397-2.1541l-2.3837-0.2279zm-2.8298 0.2898-2.3837-0.228c-0.0683 0.7141 0.18718 1.4212 0.69618 1.9268 0.5089 0.5056 1.2177 0.7563 1.9314 0.6832l-0.2439-2.382zm15.925-11.74 2.1476 1.0589c0.3853-0.7813 0.3158-1.7102-0.1814-2.4255-0.4971-0.7153-1.3436-1.1042-2.2102-1.0155l0.244 2.3821zm-5.2499 10.647 0.2439 2.3821c0.82-0.084 1.5392-0.5838 1.9037-1.3231l-2.1476-1.059zm-2.787 0.2854-2.2689 0.7655c0.3575 1.0594 1.4005 1.7305 2.5128 1.6166l-0.2439-2.3821zm-3.297-9.7719-0.2439-2.3821c-0.7245 0.0742-1.3758 0.4741-1.7698 1.0865-0.3941 0.6125-0.4879 1.371-0.2551 2.0611l2.2688-0.7655zm2.9014-0.2971 2.2742-0.7496c-0.352-1.0679-1.3996-1.747-2.5181-1.6325l0.2439 2.3821zm2.0951 6.3566-2.2741 0.7496c0.3042 0.9231 1.1363 1.5707 2.1058 1.639s1.8842-0.4561 2.3149-1.3274l-2.1466-1.0612zm3.4217-6.9216-0.2439-2.382c-0.8191 0.0839-1.5377 0.5827-1.9026 1.3209l2.1465 1.0611zm6.0835 1.5867-0.2439-2.382c-1.1399 0.1167-2.0373 1.0246-2.1408 2.1657l2.3847 0.2163zm-0.156 1.7202-2.3848-0.2163c-0.0646 0.7124 0.1927 1.4164 0.7014 1.9193 0.5088 0.5028 1.2157 0.7519 1.9273 0.6791l-0.2439-2.3821zm4.4449-0.4552 2.3845 0.2187c0.0653-0.7127-0.1916-1.4174-0.7003-1.9208-0.5088-0.5034-1.2161-0.7528-1.9281-0.6799l0.2439 2.382zm-0.1979 2.1578 0.2439 2.382c1.139-0.1166 2.0361-1.0232 2.1406-2.1634l-2.3845-0.2186zm-4.4592 0.4566-0.2439-2.3821c-1.1396 0.1167-2.0368 1.0241-2.1407 2.1649l2.3846 0.2172zm-0.17 1.866-2.3846-0.2172c-0.0649 0.7125 0.1922 1.4167 0.701 1.9198 0.5087 0.5031 1.2158 0.7523 1.9275 0.6794l-0.2439-2.382zm5.2453-0.5371 2.3816 0.2489c0.0749-0.7172-0.1773-1.4299-0.6866-1.9403-0.5094-0.5104-1.2216-0.7641-1.9389-0.6907l0.2439 2.3821zm-0.2334 2.2335 0.2439 2.3821c1.1276-0.1155 2.0198-1.0058 2.1376-2.1332l-2.3815-0.2489zm-8.018 0.8211-2.3837-0.228c-0.0683 0.7141 0.1872 1.4212 0.6962 1.9268 0.5089 0.5056 1.2177 0.7563 1.9314 0.6832l-0.2439-2.382zm0.9764-10.21-0.2439-2.382c-1.1355 0.1163-2.0311 1.0178-2.1397 2.1541l2.3836 0.2279zm7.8322-0.802 2.3831 0.234c0.0702-0.715-0.1844-1.4238-0.6934-1.9307-0.5091-0.5069-1.2189-0.7585-1.9336-0.6853l0.2439 2.382zm-0.2191 2.2321 0.2439 2.3821c1.1332-0.1161 2.0278-1.0144 2.1391-2.1481l-2.383-0.234zm1.5179-2.3651-0.2439-2.382c-1.2106 0.1239-2.1357 1.1362-2.1504 2.3531l2.3943 0.0289zm3.2444-0.3322 2.3575 0.4192c0.1315-0.7397-0.0917-1.4982-0.6029-2.0487s-1.2512-0.8291-1.9985-0.7526l0.2439 2.3821zm-1.1639 6.546 0.244 2.382c1.0638-0.1089 1.9264-0.91 2.1136-1.9629l-2.3576-0.4191zm-2.1581 0.2209-2.3943-0.0288c-0.0083 0.6825 0.2751 1.336 0.779 1.7965 0.5038 0.4604 1.1802 0.6839 1.8592 0.6144l-0.2439-2.3821zm0.9295 3.7176 0.2439 2.3821-0.2439-2.3821zm-1.1558-0.286-1.447 1.9078c0.0104 0.0079 0.0208 0.0157 0.0314 0.0234l1.4156-1.9312zm-0.5297-0.9423 2.382-0.2439-2.382 0.2439zm0.3703-1.1788 1.7851 1.5959c0.0085-0.0095 0.0168-0.0189 0.0251-0.0285l-1.8102-1.5674zm1.168-0.5818 0.2439 2.3821-0.2439-2.3821zm1.1543 0.2717-1.4122 1.9338 1.4122-1.9338zm0.5283 0.928-2.3821 0.2439 2.3821-0.2439zm-0.3831 1.1946-1.8116-1.5658c-0.0076 0.0087-0.0151 0.0175-0.0225 0.0264l1.8341 1.5394zm-25.179-19.584 2.3837 0.22797c0.0682-0.71412-0.1872-1.4212-0.6962-1.9268-0.5089-0.50556-1.2178-0.7563-1.9314-0.68322l0.2439 2.3821zm-0.8951 9.3587 0.244 2.3821c1.1354-0.1163 2.031-1.0179 2.1397-2.1541l-2.3837-0.228zm-2.1355 0.2187-1.9154 1.4369c0.50413 0.6721 1.3236 1.0308 2.1593 0.9452l-0.2439-2.3821zm-3.5416-4.721 1.9154-1.4369c-0.59321-0.79077-1.6114-1.1357-2.5631-0.86835s-1.6413 1.092-1.7359 2.0762l2.3835 0.2291zm-0.49363 5.1342 0.24392 2.3821c1.135-0.1162 2.0304-1.0172 2.1396-2.1529l-2.3835-0.2292zm-2.5417 0.2603-2.3836-0.228c-0.0683 0.7141 0.18718 1.4213 0.69614 1.9268 0.50896 0.5056 1.2178 0.7563 1.9314 0.6833l-0.24392-2.3821zm0.89508-9.3588-0.24393-2.3821c-1.1355 0.11628-2.031 1.0178-2.1397 2.1541l2.3836 0.22797zm2.1355-0.21868 1.911-1.4428c-0.50463-0.66841-1.3218-1.0246-2.155-0.93928l0.24392 2.3821zm3.5534 4.7065-1.9111 1.4428c0.59536 0.7886 1.614 1.1305 2.5646 0.8608 0.9505-0.2696 1.6379-1.0955 1.7305-2.0792l-2.384-0.2244zm0.4819-5.1197-0.244-2.3821c-1.1368 0.11642-2.0329 1.0199-2.14 2.1577l2.384 0.22438zm8.4605 8.586 0.2439 2.3821-0.2439-2.3821zm-2.4761-0.2627-0.8471 2.2397 0.0114 0.0042 0.8357-2.2439zm-1.7315-1.2657-1.9171 1.4347c5e-3 0.0066 0.0101 0.0133 0.0151 0.0199l1.902-1.4546zm-0.7649-2.0399-2.382 0.2439 2.382-0.2439zm0.4308-2.9037-2.1805-0.98955c-0.0025 0.00567-0.0051 0.01136-0.0076 0.01705l2.1881 0.9725zm1.8295-2.1731-1.3465-1.9801-0.0083 0.00571 1.3548 1.9744zm2.9015-1.012 0.244 2.382-0.244-2.382zm2.463 0.2641-0.8471 2.2397 0.0114 0.00424 0.8357-2.2439zm1.7315 1.2657-1.9171 1.4347c5e-3 0.00667 0.01 0.01331 0.0151 0.01993l1.902-1.4546zm0.778 2.0385 2.3821-0.24392-2.3821 0.24392zm-0.4439 2.905-2.1805-0.9895c-0.0025 0.0056-0.0051 0.0113-0.0076 0.017l2.1881 0.9725zm-1.8294 2.1732-1.3465-1.9801-0.0083 0.0057 1.3548 1.9744zm-2.8858-1.1608-0.2439-2.3821 0.2439 2.3821zm1.4755-0.588-1.5157-1.8537 1.5157 1.8537zm0.8907-1.2562 2.2458 0.8308c2e-3 -0.0053 0.0039-0.0107 0.0058-0.016l-2.2516-0.8148zm0.1887-1.6477 2.3821-0.24389-2.3821 0.24389zm-0.728-1.4214-1.5119 1.8569c0.0144 0.0117 0.0289 0.0232 0.0436 0.0346l1.4683-1.8915zm-1.643-0.40103 0.244 2.382-0.244-2.382zm-1.4754 0.58797 1.5157 1.8537-1.5157-1.8537zm-0.8894 1.2693 2.2457 0.8307c2e-3 -0.0053 4e-3 -0.0106 0.0059-0.0159l-2.2516-0.8148zm-0.1901 1.6346-2.3821 0.2439 2.3821-0.2439zm0.7163 1.4358-1.5119 1.8569c0.0144 0.0117 0.0289 0.0232 0.0436 0.0346l1.4683-1.8915zm22.721-9.0519 2.223 0.89005c0.3115-0.77804 0.1936-1.6623-0.311-2.3315-0.5045-0.66921-1.3222-1.0259-2.1559-0.94056l0.2439 2.382zm-3.8691 9.6633 0.244 2.382c0.8857-0.0907 1.648-0.6654 1.979-1.492l-2.223-0.89zm-2.7774 0.2844-2.3356 0.528c0.2671 1.1815 1.3744 1.9775 2.5795 1.8541l-0.2439-2.3821zm-1.2344-5.4603 2.3356-0.52796c-0.2308-1.0213-1.0985-1.7741-2.1421-1.8587-1.0436-0.0846-2.0212 0.51867-2.4135 1.4894l2.22 0.89727zm-2.3554 5.8279 0.2439 2.382c0.883-0.0904 1.6435-0.6618 1.9761-1.4847l-2.22-0.8973zm-2.7906 0.2857-2.3345 0.5326c0.269 1.1793 1.3752 1.9727 2.5784 1.8495l-0.2439-2.3821zm-2.0658-9.0555-0.2439-2.3821c-0.6824 0.06988-1.302 0.42904-1.7018 0.98642s-0.5414 1.2594-0.3888 1.9282l2.3345-0.53257zm2.5548-0.26161 2.3356-0.52785c-0.2671-1.1816-1.3745-1.9776-2.5796-1.8542l0.244 2.3821zm1.3071 5.7838-2.3356 0.5279c0.2309 1.0215 1.0987 1.7744 2.1425 1.8589 1.0438 0.0844 2.0214-0.5192 2.4135-1.4903l-2.2204-0.8965zm2.4922-6.1729-0.2439-2.3821c-0.8833 0.09045-1.644 0.66226-1.9764 1.4856l2.2203 0.89645zm2.3976-0.24551 2.3409-0.50378c-0.2569-1.1935-1.3704-2.0026-2.5849-1.8783l0.244 2.3821zm1.2628 5.8678-2.3409 0.5038c0.2214 1.0291 1.089 1.7929 2.1379 1.8821 1.0489 0.0893 2.033-0.517 2.4252-1.4939l-2.2222-0.892zm2.5104-6.2542-0.244-2.3821c-0.885 0.09063-1.6468 0.66446-1.9782 1.4901l2.2222 0.89197zm-34.405 18.33 2.8299-0.2897-0.48785-4.7641-2.8299 0.2897 0.48785 4.7641zm0.20208-2.8972-0.74886 7.9188 4.7678 0.4509 0.74887-7.9188-4.7678-0.4509zm1.8789 10.526 4.7736-0.4888-0.4878-4.7642-4.7737 0.4889 0.48785 4.7641zm2.1469-3.1076-0.22757 2.2907 4.7656 0.4734 0.2276-2.2907-4.7656-0.4734zm1.9113 0.1454-7.6035 0.7786 0.48784 4.7641 7.6036-0.7786-0.4879-4.7641zm-4.976 3.3886 0.97644-10.21-4.7673-0.456-0.97645 10.21 4.7673 0.4559zm7.5601-8.9487 2.8299-0.2898-0.4878-4.7641-2.8299 0.2898 0.4878 4.7641zm0.2023-2.8998-0.9764 10.21 4.7673 0.4559 0.9764-10.21-4.7673-0.4559zm1.1633 8.0554-2.8299 0.2898 0.4879 4.7641 2.8299-0.2898-0.4879-4.7641zm-0.2023 2.8998 0.9764-10.21-4.7672-0.456-0.97648 10.21 4.7673 0.4559zm11.394-13.027-5.2498 10.647 4.2952 2.1179 5.2499-10.647-4.2953-2.1179zm-3.3461 9.3241-2.787 0.2853 0.4878 4.7642 2.787-0.2854-0.4878-4.7641zm-0.2742 1.9019-3.297-9.7719-4.5377 1.531 3.2969 9.7719 4.5378-1.531zm-5.3219-6.6244 2.9013-0.2971-0.4878-4.7641-2.9014 0.2971 0.4879 4.7641zm0.3832-1.9296 2.0952 6.3567 4.5483-1.4991-2.0951-6.3567-4.5484 1.4991zm6.5159 6.6683 3.4217-6.9216-4.2931-2.1223-3.4217 6.9216 4.2931 2.1223zm1.5191-5.6007 2.9156-0.2986-0.4879-4.7641-2.9156 0.2986 0.4879 4.7641zm3.4548-1.0117-0.1561 1.7202 4.7695 0.4326 0.156-1.7202-4.7694-0.4326zm2.4726 4.3186 4.4449-0.4552-0.4878-4.7641-4.445 0.4551 0.4879 4.7642zm1.8165-3.0559-0.1979 2.1577 4.769 0.4373 0.1979-2.1577-4.769-0.4373zm1.9427-0.0057-4.4592 0.4566 0.4878 4.7641 4.4592-0.4566-0.4878-4.7641zm-6.5999 2.6215-0.17 1.866 4.7693 0.4344 0.1699-1.866-4.7692-0.4344zm2.4585 4.4652 5.2453-0.5371-0.4878-4.7641-5.2453 0.5371 0.4878 4.7641zm2.6199-3.168-0.2335 2.2335 4.7631 0.4978 0.2335-2.2335-4.7631-0.4978zm1.9042 0.1004-8.0181 0.821 0.4879 4.7641 8.018-0.821-0.4878-4.7641zm-5.3905 3.4311 0.9765-10.21-4.7673-0.4559-0.9765 10.21 4.7673 0.456zm-1.1633-8.0555 7.8322-0.802-0.4878-4.7641-7.8322 0.802 0.4878 4.7641zm5.2053-3.418-0.2192 2.2321 4.7661 0.4679 0.2192-2.2321-4.7661-0.4679zm1.92 0.084-5.0452 0.5166 0.4878 4.7641 5.0452-0.5166-0.4878-4.7641zm2.0058 2.399 3.2443-0.3323-0.4878-4.7641-3.2444 0.3323 0.4879 4.7641zm0.6429-3.1335-1.1639 6.546 4.7151 0.8383 1.1638-6.5459-4.715-0.8384zm0.9497 4.5831-2.1581 0.221 0.4878 4.7641 2.1582-0.221-0.4879-4.7641zm0.4801 2.6319 0.0777-6.4347-4.7887-0.0578-0.0776 6.4348 4.7886 0.0577zm-1.7087 1.3067c0.014-0.0015 0.0859-0.0063 0.1943 0.0205 0.113 0.028 0.2211 0.0795 0.3095 0.1443l-2.8313 3.8624c0.8616 0.6316 1.8569 0.835 2.8153 0.7369l-0.4878-4.7641zm0.5351 0.1881c0.081 0.0614 0.1863 0.1666 0.2729 0.3207 0.0867 0.1542 0.122 0.2992 0.1324 0.401l-4.7641 0.4878c0.1077 1.0516 0.6234 1.968 1.4648 2.6062l2.894-3.8157zm0.4053 0.7217c0.0059 0.0574 0.0064 0.1755-0.0401 0.3238-0.0474 0.1508-0.1225 0.2656-0.1865 0.3372l-3.5703-3.1918c-0.764 0.8546-1.0793 1.9241-0.9672 3.0186l4.7641-0.4878zm-0.2015 0.6325c-0.0548 0.0632-0.1346 0.1289-0.2311 0.1769-0.093 0.0464-0.1585 0.0551-0.1672 0.056l-0.4878-4.7642c-1.0317 0.1057-2.0039 0.5528-2.7343 1.3964l3.6204 3.1349zm-0.3983 0.2329c0.0058-6e-4 -0.0554 0.0064-0.161-0.0185-0.1119-0.0263-0.2326-0.0791-0.3408-0.1581l2.8244-3.8675c-0.8775-0.6409-1.8823-0.8151-2.8104-0.7201l0.4878 4.7642zm-0.5018-0.1766c-0.0934-0.0682-0.2091-0.182-0.3025-0.3461-0.0929-0.1632-0.1287-0.3144-0.1391-0.4158l4.7642-0.4878c-0.1079-1.0537-0.628-1.9823-1.4982-2.6178l-2.8244 3.8675zm-0.4416-0.7619c-0.0081-0.0792-4e-3 -0.2017 0.0406-0.3407 0.0441-0.1376 0.1082-0.2298 0.1468-0.2744l3.6232 3.1317c0.721-0.8343 1.0684-1.8833 0.9536-3.0044l-4.7642 0.4878zm0.1649-0.5887c0.0477-0.0568 0.1253-0.1255 0.2291-0.1791 0.1016-0.0524 0.181-0.0661 0.2088-0.0689l0.4878 4.7641c1.058-0.1084 2.0265-0.5843 2.7424-1.4372l-3.6681-3.0789zm-25.728-18.273-0.8951 9.3588 4.7673 0.4559 0.8951-9.3587-4.7673-0.45595zm1.2446 7.2047-2.1355 0.2187 0.4878 4.7641 2.1356-0.2187-0.4879-4.7641zm0.0239 1.1638-3.5416-4.721-3.8309 2.8738 3.5416 4.721 3.8309-2.8738zm-7.8406-3.5132-0.49364 5.1342 4.767 0.4583 0.49366-5.1342-4.7671-0.4583zm1.646 2.9813-2.5416 0.2602 0.48784 4.7642 2.5417-0.2603-0.48785-4.7641zm0.08591 2.8703 0.89507-9.3588-4.7673-0.45594-0.89508 9.3587 4.7673 0.456zm-1.2446-7.2047 2.1355-0.21867-0.48784-4.7641-2.1355 0.21868 0.48785 4.7641zm-0.01945-1.1579 3.5533 4.7065 3.8221-2.8856-3.5533-4.7065-3.8221 2.8856zm7.8484 3.4881 0.4818-5.1198-4.7679-0.44876-0.48188 5.1197 4.768 0.4488zm-1.6582-2.9621 2.5416-0.26027-0.4878-4.7641-2.5417 0.26026 0.4879 4.7641zm7.9727 3.822c-0.6335 0.0648-1.0791-0.0065-1.3964-0.1247l-1.6715 4.4879c1.1325 0.4218 2.3376 0.5256 3.5557 0.4009l-0.4878-4.7641zm-1.385-0.1204c-0.3251-0.1229-0.5269-0.2849-0.6766-0.4807l-3.8041 2.9093c0.7266 0.9501 1.6791 1.6319 2.7864 2.0507l1.6943-4.4793zm-0.6616-0.4608c-0.1432-0.1914-0.259-0.4491-0.2999-0.849l-4.7641 0.4878c0.12 1.1723 0.5142 2.2745 1.2298 3.2307l3.8342-2.8695zm-0.2999-0.849c-0.0685-0.6689 0.0262-1.2132 0.2369-1.6873l-4.3763-1.945c-0.5783 1.3012-0.7709 2.6928-0.6247 4.1201l4.7641-0.4878zm0.2292-1.6702c0.2201-0.48511 0.5417-0.87123 1.0038-1.1883l-2.7096-3.9488c-1.1707 0.80329-2.0688 1.8659-2.6552 3.158l4.361 1.9791zm0.9955-1.1826c0.4595-0.31247 1.0377-0.53208 1.799-0.61004l-0.4879-4.7641c-1.4572 0.14922-2.8133 0.60428-4.0041 1.414l2.693 3.9602zm1.799-0.61004c0.6346-0.06498 1.0705 0.00769 1.3719 0.12171l1.6942-4.4793c-1.1308-0.42773-2.3369-0.53112-3.554-0.40649l0.4879 4.7641zm1.3833 0.12598c0.3298 0.12285 0.5179 0.27986 0.6501 0.4565l3.8342-2.8694c-0.7267-0.97103-1.6929-1.6578-2.8129-2.0749l-1.6714 4.4879zm0.6652 0.47643c0.144 0.18829 0.2581 0.43841 0.298 0.8278l4.7641-0.48785c-0.1211-1.1828-0.5257-2.2917-1.2581-3.2493l-3.804 2.9093zm0.298 0.8278c0.0677 0.66107-0.0282 1.1997-0.2424 1.6716l4.361 1.9791c0.5924-1.3053 0.7924-2.7034 0.6455-4.1385l-4.7641 0.48785zm-0.25 1.6886c-0.2082 0.4684-0.5211 0.8482-0.9878 1.1656l2.6929 3.9601c1.1835-0.8047 2.0903-1.8738 2.6712-3.1807l-4.3763-1.945zm-0.9961 1.1713c-0.4462 0.3061-1.0159 0.525-1.7776 0.603l0.4878 4.7641c1.4568-0.1492 2.8127-0.6041 3.9993-1.4183l-2.7095-3.9488zm-1.2871 3.1957c0.9937-0.1018 1.9405-0.4566 2.7473-1.1163l-3.0314-3.7075c-0.0076 0.0062-0.0445 0.0433-0.2037 0.0596l0.4878 4.7642zm2.7473-1.1163c0.7451-0.6093 1.2898-1.3843 1.6208-2.2792l-4.4916-1.6615c-0.0422 0.1141-0.0913 0.1765-0.1606 0.2332l3.0314 3.7075zm1.6266-2.2952c0.3177-0.8777 0.4129-1.7913 0.3192-2.7064l-4.7641 0.48789c0.0261 0.2553-0.0044 0.4401-0.0583 0.5889l4.5032 1.6296zm0.3192-2.7064c-0.118-1.1527-0.616-2.2727-1.6418-3.069l-2.9366 3.783c-0.0287-0.0223-0.0609-0.0523-0.092-0.0898-0.0312-0.0376-0.0552-0.0754-0.0725-0.1091-0.0352-0.0687-0.0278-0.0913-0.0212-0.0272l4.7641-0.48789zm-1.5982-3.0343c-1.0353-0.84295-2.2727-1.0416-3.3988-0.92624l0.4879 4.7641c0.1253-0.0128 0.1516 0.0023 0.1099-0.0079-0.0218-0.0053-0.0567-0.0163-0.0993-0.0371-0.0431-0.0211-0.0853-0.048-0.1235-0.0791l3.0238-3.7137zm-3.3988-0.92624c-0.9936 0.10175-1.9404 0.4566-2.7473 1.1163l3.0315 3.7075c0.0076-0.0062 0.0444-0.0433 0.2037-0.0597l-0.4879-4.7641zm-2.7473 1.1163c-0.7547 0.61711-1.2983 1.4047-1.6253 2.3082l4.5033 1.6296c0.0445-0.123 0.0938-0.1816 0.1535-0.2304l-3.0315-3.7075zm-1.6194 2.2923c-0.3251 0.87877-0.42 1.7947-0.3264 2.7093l4.7642-0.4879c-0.0262-0.2558 0.0056-0.4296 0.0537-0.5599l-4.4915-1.6615zm-0.3264 2.7093c0.1165 1.1376 0.5976 2.2436 1.5865 3.0488l3.0238-3.7137c0.0252 0.0205 0.0532 0.0478 0.08 0.0813s0.047 0.0664 0.0612 0.0948c0.0289 0.0579 0.0198 0.0705 0.0127 9e-4l-4.7642 0.4879zm1.6301 3.0834c1.0345 0.8031 2.2529 0.9912 3.3669 0.8772l-0.4878-4.7642c-0.1302 0.0134-0.166-1e-3 -0.136 0.0061 0.0159 0.0037 0.045 0.0122 0.0823 0.0297 0.0377 0.0177 0.0758 0.0407 0.1112 0.0682l-2.9366 3.783zm21.967-11.833-3.8691 9.6632 4.4459 1.7801 3.8691-9.6633-4.4459-1.7801zm-1.8901 8.1712-2.7775 0.2844 0.4879 4.7642 2.7775-0.2845-0.4879-4.7641zm-0.198 2.1385-1.2343-5.4603-4.6711 1.0559 1.2343 5.4604 4.6711-1.056zm-5.7899-5.8296-2.3554 5.8279 4.44 1.7946 2.3555-5.828-4.4401-1.7945zm-0.3793 4.3431-2.7906 0.2858 0.4878 4.7641 2.7906-0.2858-0.4878-4.7641zm-0.2121 2.1353-2.0659-9.0556-4.669 1.0651 2.0658 9.0555 4.6691-1.0651zm-4.1565-6.1409 2.5548-0.26161-0.4879-4.7641-2.5547 0.26161 0.4878 4.7641zm-0.0248-2.1158 1.3072 5.7839 4.6712-1.0557-1.3071-5.7839-4.6713 1.0557zm5.8632 6.1525 2.4922-6.1729-4.4407-1.7929-2.4923 6.1729 4.4408 1.7929zm0.5158-4.6873 2.3975-0.24551-0.4879-4.7641-2.3975 0.24551 0.4879 4.7641zm-0.1873-2.1238 1.2628 5.8678 4.6818-1.0075-1.2628-5.8679-4.6818 1.0076zm5.8259 6.256 2.5103-6.2542-4.4443-1.7839-2.5104 6.2542 4.4444 1.7839zm0.5321-4.7641 2.5678-0.26295-0.4878-4.7641-2.5679 0.26295 0.4879 4.7641z" fill="url(#b)" mask="url(#a)"/>
</g>
<defs>
<linearGradient id="c" x1="2.1983" x2="42.502" y1="18.951" y2="22.427" gradientUnits="userSpaceOnUse">
<stop stop-color="#00AD9F" offset="0"/>
<stop stop-color="#00CFDD" offset="1"/>
</linearGradient>
<linearGradient id="b" x1="3.1961" x2="41.878" y1="17.696" y2="16.978" gradientUnits="userSpaceOnUse">
<stop stop-color="#00AD9F" offset="0"/>
<stop stop-color="#00CFDD" offset="1"/>
</linearGradient>
<clipPath id="d">
<rect transform="translate(0 1.6865) rotate(-1.0636)" width="44.259" height="32.106" fill="#fff"/>
</clipPath>
</defs>
</svg>
