<svg xmlns="http://www.w3.org/2000/svg" xmlns:xlink="http://www.w3.org/1999/xlink" width="579" height="433" fill="none" xmlns:v="https://vecta.io/nano"><style><![CDATA[.B{stroke-linecap:round}.C{stroke-linejoin:round}.D{stroke-miterlimit:10}.E{stroke:#00ad9f}.F{fill:#5275a0}.G{opacity:.2}.H{stroke:#0b43a4}.I{fill:#0c2340}.J{fill:#ffb9a3}.K{fill:#c8dbfb}.L{fill:#00cfdd}.M{fill:#5193f4}.N{fill:#fe7269}.O{fill:#00ad9f}.P{fill:#0056ec}.Q{fill:#52d2bc}.R{fill:#4a49ca}.S{stroke-dasharray:1.9 2.9}]]></style><g clip-path="url(#I)"><g class="K"><path opacity=".3" d="M196.654 433c27.5 0 49.776-2.078 49.776-4.642s-22.286-4.642-49.776-4.642-49.776 2.078-49.776 4.642S169.163 433 196.654 433zm255.972 0c27.5 0 49.775-2.078 49.775-4.642s-22.285-4.642-49.775-4.642-49.776 2.078-49.776 4.642S425.135 433 452.626 433z"/></g><g class="B C"><path d="M557.98 100.578c-.13-.903-.258-1.677-.516-2.58" stroke="#c8dbfb"/><path d="M556.304 92.97c-8.898-30.302-37.268-27.336-62.8-27.336l-454.56.903c-42.94.13-38.815 62.023-5.158 62.023 19.343 0 26.693 36.234-6.706 36.363-19.988 0-20.633 25.402-7.22 30.56" stroke="#dcdcdc" class="S"/><path d="M22.18 196.127c.774.13 1.676.258 2.58.258" stroke="#c8dbfb"/></g><path d="M30.045 195.095c.516 3.353-1.676 6.576-5.03 7.092s-6.577-1.676-7.092-5.03 1.676-6.576 5.03-7.092 6.577 1.676 7.092 5.03z" class="M"/><path d="M564.04 103.286c-.644 3.352-3.868 5.544-7.22 5.028-3.353-.644-5.545-3.868-5.03-7.22s3.87-5.544 7.22-5.028c3.482.645 5.674 3.868 5.03 7.22z" fill="url(#A)"/><path d="M92.975 149.964c-.903 5.03-2.192 9.93-3.74 14.7-3.353 10.444-8.124 20.502-12.895 30.43-2.45 5.158-12.637 17.15-18.053 19.47.645-13.54.645-29.27-.903-42.94-1.547-13.153 3.224-23.08-1.934-35.33-.645-1.548-1.3-3.095-2.063-4.642-2.58-5.803-5.158-11.605-5.932-17.924-1.032-7.994 1.418-17.02 8.253-21.147 4.9-2.966 11.348-2.837 16.635-.516s9.543 6.576 12.766 11.348c9.156 13.54 10.703 30.818 7.866 46.55z" class="M"/><path d="M69 106.25c10.058 14.313 10.96 30.82 11.864 48.355.903 17.408-3.353 35.073-11.993 50.29" class="B C D H"/><path d="M68.602 369.172c-7.092-6.318-14.185-12.637-19.472-20.502-4.513-6.835-7.48-14.57-11.477-21.792-2.58-4.642-5.545-9.155-7.092-14.313s-1.16-11.22 2.45-15.087c3.74-3.997 10.316-4.642 15.474-2.58s9.027 6.447 12.122 11.1c3.998 6.19 6.706 13.28 7.737 20.502 1.032 6.576.774 13.4 1.805 19.987.903 6.19 2.966 12.12 5.674 17.665 2.32 5.158 8.382 14.184 9.93 19.47-4.384 2.32-14.185-11.734-17.15-14.442z" class="O"/><path d="M43.844 304.312c6.706 2.966 9.414 10.96 10.832 18.182 1.547 8.252 1.3 17.15 5.03 24.5 7.092 14.055 16.377 30.045 23.212 34.816" class="B C D E"/><path d="M33.786 349.96c-5.932-2.32-13.67-3.224-17.538 1.805-3.095 4.256-1.547 10.316.645 15.087 1.805 4.126 4.127 8.253 7.995 10.445 2.708 1.547 5.803 1.934 8.77 2.32 8.382 1.03 16.893 1.547 25.404 1.418 9.8 0 21.793 3.997 29.917 10.187-10.187-19.47-35.462-33.397-55.192-41.263z" class="P"/><path d="M23.47 362.596c7.48.258 14.96.902 22.18 2.965 7.35 2.193 35.59 15.087 39.976 20.632" class="B C D H"/><path d="M97.875 310.115c-7.608-11.992-20.762-20.374-34.817-22.18-10.445-1.418-21.148.516-31.336-1.676-10.832-2.32-20.504-9.155-26.178-18.697-5.674-9.413-7.092-21.276-3.87-31.85 2.45-7.995 7.866-15.602 15.86-18.18 4.384-1.42 9.156-1.16 13.54-.13 4.126 1.03 7.866 2.708 11.348 4.9 7.995 5.03 14.443 12.894 19.343 21.147 4.384 7.608 15.345 19.342 22.696 26.95 4.384 4.514 7.48 7.48 7.48 7.48 5.287 6.448 2.837 24.63 5.932 32.237z" class="Q"/><path d="M15.216 240.742c25.017 11.218 52.226 26.047 69.893 46.936" class="B C D E"/><g class="F"><path d="M87.56 284.84s-37.267-30.173-45.005-62.538c7.995 5.03 14.443 12.894 19.343 21.147 4.384 7.608 15.345 19.342 22.696 26.95l2.966 14.44zm1.676-120.047c-3.353 10.444-8.124 20.502-12.895 30.43-2.45 5.158-12.637 17.15-18.053 19.47.645-13.54.645-29.27-.903-42.94-1.548-13.153 3.224-23.08-1.934-35.33-.645-1.548-1.3-3.095-2.063-4.642.516.13.903.387 1.42.516 8.5 3.6 12.38 12.636 13.153 21.276.645 7.22-.645 14.44-1.676 21.534-.387 3.352-.774 6.705-.13 9.928v.13c.903 3.87 6.577 3.6 7.22-.258l2.32-11.992c.645-3.6 1.418-7.35 4.384-9.8 1.16-1.032 2.708-1.677 4.127-1.548 2.45-.13 3.998 1.3 5.03 3.224z" class="G"/></g><path d="M87.56 277.233c-5.932-30.69-9.027-35.46-6.448-43.067 3.353-9.8 1.418-19.73 4.513-29.53 3.095-9.93 5.287-20.502 2.708-30.56-.774-3.224-2.45-6.576-6.2-6.705-1.547 0-2.966.515-4.127 1.547-2.966 2.45-3.74 6.318-4.384 9.8L71.44 190.71c-.774 3.868-6.32 4.126-7.22.258v-.13c-.774-3.224-.387-6.576.13-9.93.903-7.22 2.32-14.313 1.676-21.534-.774-8.768-4.642-17.666-13.153-21.276-2.966-1.3-6.448-1.547-9.543-.774-8.898 2.32-11.22 10.96-9.8 18.31.903 5.157 3.353 9.928 5.545 14.828 5.416 11.734 1.42 22.437 2.192 35.332 1.934 35.59 46.294 71.435 46.294 71.435z" class="L"/><path d="M47.97 146.612c4.384 21.79 8.77 43.84 17.28 64.472 2.45 6.06 3.74 13.927 18.054 30.432" class="B C D E"/><path d="M218.576 152.156c-4.514-5.158-8.77-10.444-13.154-15.473-2.837-3.224-5.803-6.448-9.026-9.542-1.548-1.548-3.224-2.966-4.9-4.384-10.187-8.382-21.664-15.474-33.785-20.632-7.35-3.094-15.088-5.802-21.407-10.702-6.19-5.03-10.703-13.28-8.64-21.018 1.548-5.545 6.2-9.93 11.606-11.863s11.477-1.805 17.022-.645c15.732 3.353 28.886 14.7 37.783 28.1.13.258.387.516.516.774 6.577 10.058 11.1 21.147 15.088 32.494l3.74 10.96c1.935 5.287 7.48 16.505 5.16 21.92z" class="M"/><path d="M146.62 71.05c17.15 3.224 29.273 14.7 42.04 26.563s21.922 27.595 26.306 44.486" class="B C D H"/><path d="M205.422 136.683c-.13 1.805-.13 3.6.258 5.415-4.256-1.03-7.22-7.607-9.285-14.957-1.934-7.092-2.837-14.7-3.224-18.182-.515-7.48-.13-14.958 1.42-22.307 6.577 10.058 11.1 21.147 15.087 32.494-1.418 4.126-2.58 8.124-3.48 12.38-.258 1.676-.645 3.352-.774 5.158z" class="F G"/><path d="M235.2 74.79c-1.418 6.447-5.287 11.992-8.77 17.665-1.805 2.966-3.48 6.06-5.03 9.155-5.03 9.93-8.897 20.374-11.477 31.205-.773 3.61-1.29 6.963-.644 10.574-8.51-1.934-11.864-25.918-12.38-33.14-1.03-12.895 1.16-26.047 6.448-37.9 2.32-5.158 5.287-10.316 9.93-13.54 4.643-3.353 11.1-4.513 16-1.547 2.966 1.676 4.772 4.642 5.674 7.866.903 3.095.903 6.447.258 9.67z" class="Q"/><path d="M206.066 136.296c-5.287-13.153-2.063-41.134 6.32-58.8 2.58-5.287 6.2-10.316 11.22-13.28" class="B C D E"/><path d="M235.2 74.79c-1.418 6.447-5.287 11.992-8.768 17.666-1.806 2.966-3.482 6.06-5.03 9.156-2.32-3.87-3.868-8.253-4.384-12.637-.774-7.48 2.192-15.474 8.253-19.987 2.837-2.063 6.2-3.224 9.672-3.74.902 2.966.902 6.318.257 9.542z" class="F G"/><path d="M284.084 130.75c-.387 2.45-1.16 4.77-2.192 7.092-3.74 8.124-11.606 15.087-23.47 20.76l-.773-16.248c-.516-14.7-16.506-22.823-26.694-33.654-5.158-5.416-9.026-12.38-9.8-19.858s2.192-15.474 8.253-19.987c5.158-3.74 11.735-4.513 18.053-3.997 10.188.774 20.375 5.03 26.694 13.023.258.258.516.645.773.903 3.87 5.287 5.803 11.734 7.35 18.052 2.45 11.1 3.6 22.695 1.805 33.913z" class="O"/><path d="M233.792 76.723c11.1 5.674 22.18 12.637 28.628 23.34 9.026 14.83 6.963 34.17.13 50.16" class="B C D E"/><path d="M469.002 225.655c7.093-11.605 3.482-26.563 5.932-39.844 1.934-10.316 7.608-19.73 15.732-26.305 5.16-4.126 12.38-6.963 18.183-3.868 1.29.644 2.708 1.547 3.997.902.774-.387 1.032-1.29 1.16-2.192 1.418-7.22-1.934-15.086.774-21.92 1.547-3.6 4.642-6.447 7.995-8.5 6.447-4.126 13.927-6.447 21.664-6.834 2.063-.13 4.126 0 5.932.902 3.224 1.677 4.77 5.674 4.384 9.414-.387 3.6-2.45 6.834-4.642 9.8-7.35 9.67-18.312 18.053-19.73 30.174-.13 1.547-.13 3.094.516 4.513.645 1.29 1.934 2.32 2.708 3.6 2.32 4.127-2.063 8.898-6.448 10.96-3.868 1.934-8.253 3.094-12.508 3.48-2.966.258-6.32.387-8.382 2.58-3.74 4.126.516 10.574-.258 16.118-.516 3.482-2.966 6.2-5.416 8.51-4.642 4.384-9.672 8.38-15.088 11.863-4.384 2.837-9.026 5.287-12.895 8.768s-6.963 8.124-7.22 13.282" fill="url(#B)"/><path d="M478.416 214.437c1.16-5.674 3.74-10.83 6.32-15.99 3.997-7.995 8.124-16.118 14.314-22.695 4.642-5.03 10.316-8.897 15.087-13.797 3.353-3.48 6.2-7.48 8.51-11.734 1.16-2.32 2.32-4.77 3.87-6.834 1.934-2.45 4.642-4.126 6.963-6.318 3.095-2.837 5.674-6.32 7.35-10.187" stroke="#00cfdd" class="B C D"/><path d="M570.36 233.78c-1.547 6.06-3.997 12.12-7.995 17.02-2.837 3.352-6.32 5.93-10.058 8.123-1.935 1.16-3.998 2.064-6.06 2.966-8.124 3.353-16.764 5.287-25.533 5.674-12.766.516-25.8-2.32-38.04 1.29-5.674 1.677-10.832 4.642-14.96 8.77-2.708 2.45-4.9 5.415-6.705 8.5l1.676-10.574c3.095-11.347 6.2-22.952 12.51-32.88 4.126-6.447 9.284-12.12 14.958-17.28 8.898-8.252 18.956-15.602 29.917-20.89 8.898-4.255 18.7-7.35 28.5-6.19s19.472 7.35 22.438 16.763c1.805 5.93.903 12.508-.645 18.697z" class="M"/><path d="M470.81 267.434c9.413-13.797 23.34-24.5 39.2-29.787 9.93-3.352 20.375-4.513 30.304-7.478 10.06-2.837 19.988-7.737 25.92-16.377" class="B C D H"/><path d="M476.997 368.914c.516-14.184 7.866-27.337 16.893-38.426 7.48-9.284 16.377-17.665 27.467-21.92 3.482-1.29 7.35-2.192 10.96-1.29s6.835 3.997 6.964 7.737c0 3.094-2.064 5.93-4.256 8.123-7.35 7.35-16.764 11.992-25.532 17.28-15.217 9.155-29.66 21.405-35.72 38.168" class="Q"/><path d="M482.542 356.535c9.285-20.76 33.27-39.2 49.13-41.52" class="B C D E"/><path d="M471.195 380.26c-.13-2.32 7.608-8.64 9.414-10.186 9.67-8.77 21.277-15.216 33.398-19.084 4.9-1.548 10.188-2.708 15.088-1.42 4.9 1.16 9.414 5.287 9.93 10.574.516 5.158-2.966 10.187-7.35 12.765-4.384 2.45-9.543 2.837-14.572 2.58-7.608-.386-15.087-2.32-22.695-2.32s-18.44.774-23.212 7.092z" class="O"/><path d="M479.062 373.04c15.603-8.5 39.2-13.926 56.352-11.863" class="B C D E"/><path d="M284.083 130.75c-.387 2.45-1.16 4.77-2.192 7.092-5.416-11.605-10.316-26.82-11.477-45.39a25.44 25.44 0 0 1 3.74-14.571c.258.258.516.645.774.903 3.868 5.287 5.802 11.734 7.35 18.052 2.45 11.09 3.61 22.694 1.805 33.912z" class="F G"/><path d="M337.985 130.107c11.606-4.127 23.728-7.48 34.43-13.798 3.224-1.934 6.32-4.126 8.51-7.092 2.32-2.965 3.6-6.705 3.224-10.444-.516-3.74-2.966-7.35-2.064-11.09.516-2.45 2.322-4.384 3.74-6.447 3.353-4.9 4.384-11.347 2.58-17.15-1.805-6.19-6.448-11.09-9.027-16.892a27.34 27.34 0 0 1-2.192-15.344c-9.8.13-18.698 5.416-28.37 7.22-7.35 1.418-14.958.645-22.308 2.32-13.283 3.095-24.115 14.7-26.178 28.24-6.2-1.032-12.766 1.16-17.15 5.674-4.513 4.9-7.092 11.734-6.705 18.44 2.966 48.226 30.69 73.5 30.69 73.5s26.435-35.59 30.82-37.136z" fill="#7ee8d4"/><g class="B C D E"><path d="M311.937 129.72c-1.16-11.863 2.966-23.726 7.737-34.687 4.642-10.702 10.06-21.147 17.15-30.302 7.22-9.155 16.377-17.02 27.08-21.534"/><path d="M322.382 50.547c-1.16 10.573-.387 23.34 2.45 33.784m1.935-3.87c12.12-7.737 30.82-12.508 45.133-11.734m-74.793 13.67c14.572 6.2 15.217 27.594 15.604 33.655m3.87-13.54c11.22-7.995 27.338-10.444 39.202-7.48m-8.64-50.03c-3.353 4.126-4.256 9.026-3.87 12.508m3.095-3.095c5.158-2.58 11.993-3.224 19.343-1.418"/></g><g class="R"><path d="M59.318 77.883c1.42-.13 10.703-6.963 14.314-9.284 1.032-.645 2.063-1.3 2.708-2.32s1.032-2.32.516-3.353c-.645-1.418-1.676-2.708-4.384-2.708-4.642 0-6.32 1.547-8.5 3.868-7.48 7.608-4.642 13.797-4.642 13.797zm41.9 27.853c4.127 1.805 8.382 3.6 12.895 3.094 1.677-.257 3.6-1.03 4.127-2.578.516-1.42-.13-2.966-1.3-3.998s-2.58-1.418-3.997-1.805c-5.416-1.3-13.024-.645-18.44.903 0 0 4.255 3.352 6.706 4.384zm26.822-60.09c-1.805-1.16-3.868-2.708-3.868-4.77 0-2.192 2.192-3.74 4.384-3.868s4.127 1.16 5.803 2.58c6.834 6.06 6.06 12.895 6.06 12.895l-12.38-6.834zm5.416-18.44c-1.547-.645-3.224-1.547-4.126-2.966-.516-.774-.774-1.676-.387-2.45.516-1.3 1.3-2.58 4.642-1.934 10.574 1.934 12.895 9.155 12.895 9.155s-10.187-.516-13.024-1.805zm31.207 16.118c4.255-.387 8.64-2.45 11.348-5.803 1.03-1.3 1.934-2.708 2.32-4.255s0-3.353-1.3-4.513c-1.547-1.3-3.868-1.03-5.545 0s-2.708 2.837-3.6 4.642c-1.032 2.45-3.224 9.93-3.224 9.93z"/></g><g class="B C D H"><path d="M88.46 198.964l-30.95-27.337c-5.545-4.9-11.1-9.8-14.572-16.247-7.48-13.926-3.224-31.98 6.964-43.97C60.092 99.29 74.92 92.197 89.75 86.9c14.96-5.158 30.433-8.897 44.618-15.73 8.898-4.255 17.924-10.702 20.245-20.373 1.42-5.803.258-12.12-3.223-17.02-3.482-4.77-9.285-7.866-15.217-8.252"/><path d="M171.895 33.526c-2.837 8.64-13.798 13.926-18.828 21.405m-20.76-11.476c2.192 2.32 4.77 4.126 6.705 6.705 3.998 5.287 4.385 13.926-1.547 19.342M76.727 91.94c9.156 6.963 21.148 11.734 32.625 12.12m-53.516.644c-4.255-12.38.387-27.207 10.832-35.073"/></g><g class="R"><path d="M389.052 52.48c-.516-1.547-.516-3.353.645-4.513.902-.903 2.45-1.3 3.6-.774 9.027 3.997 8.124 18.18 8.124 18.18s-8.64-1.418-12.38-12.895zm-.13 26.435c-5.802 10.573 14.96 9.8 22.438 3.6 0 0-17.408-12.637-22.438-3.6zm26.306-25.66c-1.418-1.934-1.934-4.77-.386-6.705 1.16-1.418 3.094-1.805 4.9-1.418s4.384 1.934 5.545 3.352c6.834 8.5 3.6 16.892 3.6 16.892s-11.347-8.897-13.67-12.12zm82.79 26.305c-.516-1.676-.387-3.6.903-4.77.773-.774 1.934-1.032 3.094-.903 1.032.13 2.064.516 3.095.903a10.68 10.68 0 0 1 4.772 4.77c2.58 5.287.773 11.863.773 11.863s-11.348-7.737-12.637-11.863zm-26.05 19.342c-3.74-3.224-9.285-4.255-13.798-2.192-1.16.516-2.192 1.16-2.966 2.192-1.676 2.32-1.032 5.544.645 7.865 1.676 2.192 4.255 3.6 6.834 4.77 4.643 2.063 11.864 2.58 16.764 3.74 0 0 0-9.8-7.48-16.376z"/></g><g class="B C D H"><path d="M395.628 54.802c3.095 10.058 11.735 17.666 21.406 21.663 9.672 4.126 20.246 5.158 30.82 5.803 10.445.645 21.02 1.032 31.207 3.74 9.93 2.708 19.73 8.253 23.985 17.537 5.158 11.347.645 24.886-6.706 34.944-7.22 10.187-17.02 18.3-23.985 28.626-3.224 4.77-5.932 10.316-5.287 15.99.903 7.608 7.22 13.153 13.153 17.924"/><path d="M419.742 51.063c6.964 7.737 12.5 19.73 13.798 29.916m-37.14-.26c3.998 1.032 7.995 2.063 12.122 2.063s8.898-2.32 11.864-5.158m84.337 2.45c3.74 3.6 5.932 8.64 6.2 13.797.13 5.158-2.708 11.476-6.06 15.344m-38.946-5.672c7.48 6.834 13.927 12.378 22.18 18.18 3.74 2.708 11.22 6.06 14.572 5.158"/></g><path d="M552.177 258.923c-1.934 1.16-3.997 2.063-6.06 2.966-8.124 3.353-16.764 5.287-25.533 5.674-12.766.515-25.79-2.32-38.04 1.29-5.674 1.676-10.832 4.642-14.96 8.768-.387.258-.903.387-1.29.645-1.032-8.64 20.503-19.858 27.08-22.823 11.735-5.287 25.017-7.608 37.912-6.577 5.674.387 11.477 1.548 16.12 4.77 1.806 1.3 3.61 3.095 4.77 5.287z" class="F G"/><path d="M531.158 253.894c5.674.387 11.477 1.548 16.12 4.77s7.995 8.897 6.835 14.57c-1.3 6.447-7.995 10.703-14.443 11.476-6.577.774-13.153-1.03-19.6-2.32-14.314-2.965-29.014-3.6-43.586-1.934-3.61.387-7.093 1.16-10.187 2.966-1.032-8.64 20.503-19.858 27.08-22.824 11.735-5.286 24.888-7.736 37.783-6.705z" class="L"/><g class="B C"><path d="M471.84 277.878c10.703-9.413 38.04-15.73 57.513-13.668 5.803.645 11.735 2.32 16.248 6.19" class="D E"/><g class="S"><path d="M451.852 172.4l104.323-.258c12.25 0 22.18 9.93 22.18 22.178s-9.93 22.18-22.18 22.18l-71.31.13" stroke="#2812ae"/><path d="M136.304 248.994l-72.988.13c-6.963 0-12.508 5.674-12.508 12.508 0 6.963 5.674 12.508 12.508 12.508h21.277" stroke="#13a4ed"/><path d="M19.86 305.473c-25.017 0-25.533 37.265 6.32 37.265l468.616-.902c19.73 0 21.794-30.7-2.58-30.7-48.357.13-50.034-22.952-23.082-23.08" stroke="#dcdcdc"/></g></g><path d="M25.662 304.44c.516 3.353-1.676 6.577-5.03 7.092s-6.577-1.676-7.093-5.03 1.676-6.576 5.03-7.092 6.577 1.677 7.092 5.03z" class="N"/><path d="M480.996 288.194c.515 3.353-1.677 6.576-5.03 7.092s-6.576-1.676-7.092-5.03 1.676-6.576 5.03-7.092 6.577 1.676 7.093 5.03z" fill="#0b43a4"/><path d="M487.7 395.993l-388.02.773c-5.158 0-9.414-4.126-9.414-9.413l-.516-256.99c0-5.157 4.126-9.413 9.414-9.413l388.02-.773c5.158 0 9.413 4.126 9.413 9.413l.516 256.99c0 5.158-4.126 9.413-9.413 9.413z" class="F G"/><path d="M480.22 391.093l-388.02.774c-5.158 0-9.414-4.127-9.414-9.413l-.516-256.99c0-5.158 4.126-9.413 9.414-9.413l388.02-.774c5.158 0 9.414 4.126 9.414 9.413l.516 256.99c-.13 5.158-4.256 9.413-9.414 9.413z" fill="#fff"/><path d="M478.932 115.278l-386.344.902c-5.674 0-10.187 4.642-10.187 10.187v8.897l406.72-.902v-8.897c0-5.545-4.513-10.187-10.187-10.187z" fill="#1995f2"/><path d="M93.104 391.867l58.415-.13-.644-256.603-68.603.13.516 246.416c.13 5.673 4.642 10.187 10.316 10.187z" class="K"/><path d="M479.705 117.857c3.74 0 6.835 3.094 6.835 6.834l.516 256.99c0 1.805-.645 3.48-1.935 4.77s-2.966 1.934-4.77 2.063l-388.02.774c-3.74 0-6.835-3.095-6.835-6.834l-.645-256.99c0-1.806.645-3.482 1.934-4.77s2.966-1.935 4.77-2.064l388.15-.773zm0-2.58l-388.02.902c-5.158 0-9.414 4.256-9.414 9.413l.516 257c0 5.157 4.255 9.413 9.414 9.413l388.02-.774c5.158 0 9.414-4.255 9.414-9.413l-.516-256.99c0-5.287-4.256-9.542-9.414-9.542z" fill="#1995f2"/><path d="M141.6 372.267l-45.005.13c-1.934 0-3.61-1.548-3.61-3.61v-.387c0-1.934 1.547-3.6 3.61-3.6l45.005-.13c1.934 0 3.61 1.547 3.61 3.6v.387c0 2.063-1.548 3.61-3.61 3.61z" class="L"/><path d="M136.174 198.06l-38.3.13c-3.61 0-6.577-2.966-6.577-6.576l-.13-38.297c0-3.61 2.966-6.576 6.577-6.576l38.3-.13c3.6 0 6.576 2.965 6.576 6.576l.13 38.297c0 3.74-2.966 6.576-6.576 6.576z" fill="url(#C)"/><g class="K"><path d="M300.203 312.823l-133.467.258a4.62 4.62 0 0 1-4.642-4.642v-.645a4.62 4.62 0 0 1 4.642-4.642l133.467-.258a4.62 4.62 0 0 1 4.642 4.642v.645a4.62 4.62 0 0 1-4.642 4.642zm-7.738-152.027l-105.484.258a4.62 4.62 0 0 1-4.642-4.642v-.645a4.62 4.62 0 0 1 4.642-4.642l105.484-.258a4.62 4.62 0 0 1 4.642 4.642v.645a4.62 4.62 0 0 1-4.642 4.642z"/><path d="M459.2 267.434l-140.56.258a4.62 4.62 0 0 1-4.64-4.642v-.645a4.62 4.62 0 0 1 4.642-4.642l140.56-.258a4.62 4.62 0 0 1 4.643 4.642v.645a4.62 4.62 0 0 1-4.643 4.642zm-158.997 66.02l-133.467.258a4.62 4.62 0 0 1-4.642-4.642v-.645a4.62 4.62 0 0 1 4.642-4.642l133.467-.258a4.62 4.62 0 0 1 4.642 4.642v.645a4.62 4.62 0 0 1-4.642 4.642zm0 20.632l-133.467.257a4.62 4.62 0 0 1-4.642-4.642v-.644a4.62 4.62 0 0 1 4.642-4.642l133.467-.258a4.62 4.62 0 0 1 4.642 4.642v.645c.13 2.45-2.063 4.642-4.642 4.642z"/></g><path d="M456.235 367.496l-134.498.258c-4.255 0-7.737-3.482-7.737-7.737l-.13-57.768c0-4.255 3.482-7.736 7.737-7.736l134.5-.258c4.255 0 7.737 3.48 7.737 7.736l.13 57.768c0 4.255-3.353 7.737-7.738 7.737z" fill="url(#D)"/><g class="K"><path d="M104.7 125.465c0 1.805-1.418 3.352-3.223 3.352s-3.353-1.418-3.353-3.223 1.418-3.353 3.224-3.353 3.352 1.418 3.352 3.224zm10.702 3.223c1.78 0 3.224-1.443 3.224-3.223s-1.443-3.224-3.224-3.224-3.224 1.443-3.224 3.224 1.444 3.223 3.224 3.223zm17.15-3.223c0 1.805-1.42 3.352-3.224 3.352s-3.353-1.418-3.353-3.223 1.42-3.353 3.224-3.353c1.934-.13 3.353 1.3 3.353 3.224zm44.662 31.63c.525-5.243-3.3-9.92-8.544-10.445s-9.92 3.3-10.446 8.543 3.3 9.92 8.544 10.445 9.92-3.3 10.446-8.543z"/></g><g fill="#fff"><path d="M138.882 206.185H96.715a1.76 1.76 0 0 1-1.805-1.806v-.258a1.76 1.76 0 0 1 1.805-1.805l42.038-.13a1.76 1.76 0 0 1 1.806 1.805v.258c.13 1.16-.774 1.935-1.677 1.935zm0 7.995l-42.04.13a1.76 1.76 0 0 1-1.805-1.805v-.258a1.76 1.76 0 0 1 1.805-1.805l42.04-.13a1.76 1.76 0 0 1 1.806 1.805v.258a1.76 1.76 0 0 1-1.806 1.805z"/></g><path d="M187.1 231.2l-11.864.13.13 49.902H165.06c-3.61 0-6.577-2.966-6.577-6.576l-.128-92.196c0-3.61 2.965-6.577 6.576-6.706h22.05l.13 55.447z" class="L"/><path d="M264.353 175.625v1.29a6.38 6.38 0 0 1 6.448 6.447l.13 89.875c0 1.677-.645 3.353-1.935 4.514-1.16 1.16-2.837 1.934-4.513 1.934l-98.39.258c-3.61 0-6.448-2.837-6.448-6.448l-.13-89.875c0-1.676.645-3.352 1.934-4.513 1.16-1.16 2.837-1.934 4.514-1.934l98.39-.258v-1.29zm0 0l-98.39.257c-4.256 0-7.737 3.482-7.737 7.737l.13 89.875c0 4.256 3.48 7.737 7.737 7.737l98.39-.258c4.256 0 7.737-3.48 7.737-7.737l-.13-89.875c0-4.384-3.48-7.736-7.737-7.736z" class="K"/><path d="M428.51 249.64l-131.145-29.657c-4.127-.903-6.835-5.158-5.803-9.284l14.7-65.247c.903-4.126 5.16-6.834 9.285-5.803l131.145 29.658c4.127.903 6.835 5.158 5.803 9.284l-14.7 65.118c-.903 4.255-5.03 6.834-9.285 5.93z" fill="url(#E)"/><path d="M174.602 427.198h-18.31l-4.514-23.34 27.338-.13-4.513 23.47z" class="P"/><path d="M156.935 403.73c0 1.935-.387 5.158.903 5.158s.774-3.094 2.192-2.965c.903 0-.387 10.186 3.095 10.444 2.45.13 1.934-4.9 2.192-8.123.13-2.192 2.966-1.806 2.966-.258s-.13 2.708 0 4.513c.13 3.094 4.77 2.192 4.642-1.805s0-6.835 0-6.835l-16-.13z" class="L"/><path d="M152.55 417.913c-.387 0-.774 0-1.032-.13-1.29-.257-2.32-1.03-2.836-2.063-1.935-3.997 3.094-11.347 3.223-11.734l.258 1.3c0 .13-4.384 6.447-2.708 10.058.387.902 1.16 1.418 2.192 1.547.258 0 .645.13.903.13 6.577 0 17.925-12.38 18.054-12.508.515-.516 1.29 0 1.03.387-.516.645-11.992 13.023-19.085 13.023z" class="I"/><path d="M345.336 98.128c-26.048-1.03-62.026 18.3-49.26 65.504-.258 3.998 2.063 6.835 4.642 6.06s.258-8.382.258-8.382c4.385-35.073 12.51-41.133 26.307-41.004l32.367-.13c7.995 1.16 22.567 6.834 24.76 34.815l7.995 1.547c.645-20.244-4.255-56.736-47.068-58.412z" class="F G"/><path d="M345.336 94.002c-26.048-1.032-62.026 18.3-49.26 65.504l4.9-2.32c4.385-35.073 12.51-41.134 26.307-41.005l32.367-.13c7.995 1.16 22.954 8.253 25.146 36.363h7.608c.645-20.244-4.255-56.736-47.068-58.412z" class="N"/><g class="J"><path d="M340.05 94.775l-3.868 8.51s.515 4.77 5.158 4.642 5.287-2.32 5.287-2.32l.645-9.8-7.222-1.032z"/><path d="M359.908 87.684c-4.385 7.866-6.32 10.187-12.122 11.347-7.48 1.547-15.86-3.48-11.993-15.99 3.224-10.187 7.995-8.64 12.767-8.252 4.642.516 16.12 4.513 11.348 12.895z"/></g><path d="M342.37 81.494c-1.16-.645-2.708-.13-3.61.903s-1.418 2.45-1.03 3.74c-1.805 0-3.353 1.805-3.224 3.61-1.3-2.837-.516-5.932-.774-8.768-.258-2.966.13-6.19 1.935-8.38.773-.903 1.805-1.676 2.837-2.192 4.126-2.192 9.155-2.192 13.282-.13.902.387 2.966 1.805 5.932 1.032 5.674-1.418 9.026 2.45 5.545 6.06 1.16.387 2.32.903 2.837 1.934.13.258.13.645 0 .903-.13.13-.387.258-.516.387-.903.387-2.063.387-2.966.258.387.387 2.45.516 3.095 1.676 1.676 3.224-5.03 1.676-6.06 1.29 1.16.258 4.255 2.708 3.224 4.384-.258.387-4.385 2.708-8.77-2.32-1.032-1.16-2.32-2.32-3.74-2.708-1.16-.258-2.45.13-3.6.516-.774.258-2.966 1.547-3.61.774-.258-.903.645-2.192-.774-2.966z" class="I"/><g class="J"><path d="M385.57 152.543c-1.16 3.998-2.32 4.384-.903 5.03s2.58-1.547 2.58-1.547l6.448 1.3s-1.42-4.255-2.45-4.77-5.674 0-5.674 0zm-84.465 4.642l2.193 4.642c2.192 4.77-2.966 12.508-6.32 4.127-.903-2.32-.903-6.448-.903-6.448l5.03-2.32z"/></g><g class="I"><path d="M351.654 70.792c2.45.258 4.772-.645 7.222-.903 2.063-.258 4.642.13 5.932 1.934.386.387 1.03 0 .773-.387-1.16-2.063-3.48-2.708-5.674-2.58-2.837.13-5.416 1.418-8.253 1.16-.515 0-.515.774 0 .774z"/><path d="M353.33 68.342c-2.837.645-5.545-.774-8.382-.516-2.58.258-5.158 1.547-7.092 3.353-.516.387.13 1.3.644.903 2.193-1.547 4.514-2.966 7.222-2.966 2.58 0 5.158 1.16 7.737.258.774-.258.516-1.16-.13-1.032zm-17.15 4.126c-1.03.645-2.063 1.418-2.58 2.45-.645 1.032-.903 2.192-1.032 3.353-.128 1.418.13 2.708.387 4.126.13 1.032.258 2.45 1.42 2.837.516.13.774-.516.387-.774s-.387-.774-.516-1.3l-.387-1.547c-.258-1.16-.387-2.192-.258-3.353.13-2.192 1.16-3.997 2.966-5.158.258-.258 0-.774-.387-.645zm32.755 7.35c-.516-1.03-1.42-1.805-2.58-2.32-1.032-.516-2.45-.645-3.482-.13-.387.13-.13.774.13.774h1.547c.516 0 1.032.13 1.42.258.903.387 1.805.903 2.32 1.805.258.258.774 0 .645-.387z"/></g><path d="M225.4 276.46c13.67 5.03 25.533 20.76 22.825 32.107-3.095 12.895-11.993 18.44-11.993 18.44l-2.837-5.158s7.093-11.09 6.448-16.376c-1.032-8.382-11.606-14.055-11.606-14.055L225.4 276.46z" fill="url(#F)"/><g class="I"><path d="M191.753 421.782s-8.382 3.353-10.445 5.287h16.635v-5.287h-6.2zm36.752-.258s2.32 2.708 2.837 5.545h-11.348c.258-1.935 1.032-3.74 2.063-5.545h6.448z"/></g><path d="M229.15 421.782h-7.738c.13-9.155-1.676-40.23-3.6-63.57-1.032-13.67-2.192-24.63-2.708-26.82l4.126-.903 15.733-3.48c2.708 12.25-3.482 68.47-5.803 94.775z" fill="#047f76"/><use xlink:href="#J" fill="#009790"/><path d="M227.473 330.23c-3.6 9.67-6.705 19.084-9.542 27.982-1.032-13.67-2.193-24.63-2.708-26.82l4.126-.903 8.124-.258z" class="F G"/><use xlink:href="#J" fill="#009790"/><path d="M205.293 254.152s-4.642 17.924 7.093 17.924l-.645 4.642 8.898 1.03-1.934-6.447 1.934-13.28c.13-3.87-10.445-10.574-15.346-3.87z" class="J"/><path d="M176.265 234.034l-3.482.007.03 14.57 3.482-.007-.03-14.57z" class="I"/><path d="M184.532 234.037h-19.86c-1.42 0-2.58-1.16-2.58-2.45v-.516a2.59 2.59 0 0 1 2.579-2.579h19.86c1.418 0 2.58 1.16 2.58 2.45v.516c-.13 1.418-1.3 2.58-2.58 2.58z" fill="url(#G)"/><path d="M171.894 252.476c-.13-3.353-2.837-2.45-1.3-7.866.903-3.352 7.866.516 6.964 2.837s-1.806 5.932-1.806 5.932l-3.868-.903z" class="J"/><use xlink:href="#K" fill="url(#H)"/><use xlink:href="#K" fill="url(#H)"/><g class="N"><path d="M210.064 257.634c1.16.258 2.45.516 3.095 1.547.387.645.387 1.42.387 2.192.258-.773 1.032-1.29 1.934-1.29.774.13 1.548.774 1.548 1.676a2.43 2.43 0 0 1-.258 1.032c-.387.902-.774 1.676-1.3 2.45 1.42.516 2.58 4.77 3.353 6.06 2.45-.645 7.737-2.708 8.253-11.218.258-3.997-1.032-8.768-5.287-11.347-3.095-1.935-8.124-1.935-11.606-1.032-2.837.774-7.35 3.61-5.287 6.834.903 1.548 3.224 2.58 5.158 3.095z"/><path d="M225.152 252.09c1.677-.515 3.74-.258 4.643 1.16.773 1.03.644 2.45.902 3.74.13.645.387 1.3.774 1.677.516.515 1.418.644 2.192.644 1.934.13 3.87-.13 5.674.13s3.74 1.42 4.256 3.095c.257.903.13 2.063.515 2.966.516 1.418 2.064 2.192 3.353 3.094a23.49 23.49 0 0 1 6.964 6.835c1.03 1.676 1.934 3.6 2.063 5.673s1.547 4.642 1.16 6.705c-.386 2.192-2.58 5.03-6.705 6.448-7.22 2.32-9.543 3.352-16.377-.774-.774-.516-2.45-2.192-3.224-2.837-.645-.516-1.032-1.16-1.16-1.934-.515-1.934.13-4.126 1.16-5.932s2.45-3.352 3.482-5.157c.645-1.032 1.16-2.32 1.03-3.482 0-.516-.13-.903-.515-1.29-.258-.258-.774-.387-1.16-.516-1.547-.258-3.224 0-4.513-.645s-2.064-2.32-1.677-3.6c.258-.903 1.032-1.677 1.16-2.708.258-1.42-.516-2.708-1.806-3.61-1.16-.773-2.708-1.16-4.126-1.29-.645-.13-1.42-.258-2.063-.645-.645-.516-1.032-1.418-1.032-2.192.258-2.708 2.45-4.642 5.03-5.545z"/></g><g fill="#ef832b"><path d="M223.862 259.3c2.45.258 3.998 2.708 3.353 5.03-.645 2.063-2.192 3.868-2.32 6.2 0 1.934 1.3 3.223 3.095 3.6.902.258 1.934.13 2.837.13s2.063 0 2.837.645c1.03.902.773 2.45.386 3.48-.515 1.3-1.16 2.45-1.3 3.87 0 .515.774.644.774.13.386-2.193 2.192-4.256 1.676-6.706-.516-2.192-2.837-2.32-4.77-2.32-1.16 0-2.32.13-3.353-.515-1.3-.645-1.548-1.935-1.3-3.224.516-2.32 2.45-4.255 2.193-6.834a4.55 4.55 0 0 0-4.256-3.998c-.13.13-.13.516.13.516zm-17.925-10.563c3.224-1.677 6.577-2.708 10.188-2.193 3.352.516 6.447 2.193 8.897 4.385.387.386.903-.13.516-.516-4.642-5.545-14.185-6.705-19.86-1.934-.128.13 0 .258.258.258z"/></g><g class="J"><path d="M431.1 269.755l-2.837 5.802 7.092 2.966.774-6.834-5.03-1.934z"/><path d="M435.345 250.67c-16.12 6.963-9.542 23.984.258 22.05 4.772-1.032 7.222-16.376 7.222-16.376l-7.48-5.674z"/></g><path d="M440.76 248.35c-.516-1.032-1.032-2.063-1.935-2.708s-2.192-.903-3.094-.13c-1.032 1.032-.387 2.837.644 3.868-.902.13-2.063-.515-2.708.13-.515.516-.387 1.42 0 2.063.774 1.548 1.935 2.837 3.353 3.74-.774.516-1.805 1.418-1.29 2.192.13.258.386.387.515.645.258.515 0 1.16-.257 1.676-.516.903-1.032 1.676-1.677 2.45.516-.774 1.934-.387 2.32.387.387.902 0 1.934-.516 2.58-.386.387-.773.773-1.29.773-.387.13-2.45 6.2-.903 7.35 1.935 1.42 8.253.13 9.156-1.418.903 1.03 2.32 1.805 3.61 1.547s2.32-1.934 1.676-3.094c1.42.515 3.224 0 4.255-1.16s1.16-2.966.387-4.384c.774-.258.903-1.3.774-2.063-.387-1.677-1.676-2.966-3.353-3.482.774 0 1.42-.773 1.548-1.676 0-.774-.387-1.547-.903-2.192-1.547-1.805-3.353-2.32-5.545-2.708-2.58-.258-3.74-2.58-4.77-4.384z" fill="#30057b"/><g class="I"><path d="M425.674 420.75s-9.414 4.514-10.703 5.932c0 0 18.57.774 19.987 0 1.42-.903-2.965-5.932-2.965-5.932h-6.32zm35.074-5.157s-8.253 6.318-9.284 7.994c0 0 19.6-2.965 19.6-4.126 0-1.3-4.127-5.158-4.127-5.158l-6.2 1.3z"/></g><path d="M434.83 333.325c-.387 1.934-13.282 52.868 23.728 83.428l10.703-2.45s-12.51-11.734-18.312-32.623c-5.545-19.858-1.16-21.792 2.193-32.752 3.74-12.12.902-20.9.902-20.9l-19.214 5.287z" fill="#e0483f"/><path d="M417.163 333.196c-5.803 13.926-15.86 61.636 6.06 88.457h10.96s-8.64-9.413-9.543-31.334 4.643-31.463 8.51-38.813c3.87-7.22 7.608-19.47 7.608-19.47l-23.598 1.16z" class="N"/><path d="M409.425 246.416c-2.966 10.186-3.868 29.142 10.703 36.75l9.8-2.32s-17.538-9.155-13.798-32.494l-6.706-1.934z" fill="#0b43a4"/><path d="M382.604 241.258l7.608-.903s-.903 31.72 35.72 34.43c27.983 2.063 30.175 54.544 30.175 54.544-9.027 6.06-24.114 7.866-43.586 6.576 0 0 1.29-37.523-1.806-47.7 0-.13-30.56-9.67-28.11-46.936z" class="P"/><g class="J"><path d="M373.32 235.455c-1.3 1.548 4.126 3.353 9.284 5.803l6.577-.774s.13-1.3 0-2.708-.774-2.192-1.548-1.03-4.126 1.547-5.673.516c-1.677-1.16-7.35-3.224-8.64-1.806zm36.106 10.96c-2.45-2.45-1.805-2.192-1.805-2.192l7.48 1.676s1.676-3.6 2.966-3.74c1.418-.13-1.032 2.45-.516 3.482.516.903-1.547 2.837-1.547 2.837l-6.577-2.063z"/></g><g class="R"><path d="M444.888 251.83l2.58.645c.774.258 1.547.645 2.192 1.3.903 1.03 1.3 2.707.516 3.868-.387.516.516 1.3.903.774 1.3-1.548.902-3.87-.387-5.287-.645-.774-1.677-1.3-2.58-1.548-1.032-.257-2.064-.515-3.224-.386-.387 0-.258.515 0 .644zm6.705 13.67c.903.515 1.806 1.418 1.42 2.58-.387 1.3-1.548 1.934-2.58 2.707-.516.258 0 1.032.387.774 1.418-.774 2.837-1.676 3.095-3.352.258-1.548-.774-2.708-2.064-3.353-.258-.258-.644.387-.258.645zm-16.893 7.736c1.677 1.16 3.74 1.548 5.674 1.3s4.127-1.032 5.287-2.58c.258-.387-.13-1.032-.516-.774-1.547 1.032-2.966 1.934-4.9 2.192a9.8 9.8 0 0 1-5.416-.773c-.13 0-.387.386-.13.644zm17.4-19.212c.774.644.903 1.805.645 2.836-.13.516-.516 1.16-.774 1.548l-1.16 1.547c-.258.387.13.774.516.516 1.16-1.032 2.192-2.063 2.32-3.6.13-1.16-.258-2.58-1.42-3.094-.13 0-.258.13-.13.258z"/></g></g><defs><linearGradient id="A" x1="557.935" y1="95.99" x2="557.935" y2="108.39" xlink:href="#L"><stop stop-color="#ff7066"/><stop offset="1" stop-color="#ff986b"/></linearGradient><linearGradient id="B" x1="465.392" y1="251.049" x2="592.942" y2="169.994" xlink:href="#L"><stop stop-color="#1c8ef4"/><stop offset="1" stop-color="#00cfdd"/></linearGradient><linearGradient id="C" x1="116.96" y1="146.612" x2="116.96" y2="198.19" xlink:href="#L"><stop stop-color="#ff7066"/><stop offset="1" stop-color="#ff986b"/></linearGradient><linearGradient id="D" x1="313.871" y1="367.749" x2="376.712" y2="245.526" xlink:href="#L"><stop stop-color="#1c8ef4"/><stop offset="1" stop-color="#00cfdd"/></linearGradient><linearGradient id="E" x1="291.343" y1="249.812" x2="401.315" y2="96.705" xlink:href="#L"><stop stop-color="#6d40bb"/><stop offset="1" stop-color="#a560d7"/></linearGradient><linearGradient id="F" x1="225.41" y1="327.004" x2="264.428" y2="309.938" xlink:href="#L"><stop offset=".61" stop-color="#1c8ef4"/><stop offset="1" stop-color="#00cfdd"/></linearGradient><linearGradient id="G" x1="162.094" y1="234.037" x2="164.667" y2="222.978" xlink:href="#L"><stop stop-color="#1c8ef4"/><stop offset="1" stop-color="#00cfdd"/></linearGradient><linearGradient id="H" x1="168.987" y1="334.422" x2="254.148" y2="267.488" xlink:href="#L"><stop stop-color="#1c8ef4"/><stop offset="1" stop-color="#00cfdd"/></linearGradient><clipPath id="I"><path fill="#fff" d="M0 0h579v433H0z"/></clipPath><path id="J" d="M200.65 331.004c-6.06 9.542-7.608 78.27-10.187 91.036l7.35.387s8.382-43.326 26.436-92.197l-23.6.774z"/><path id="K" d="M212.515 275.557c-17.538 1.16-18.698 7.092-26.565 6.2-11.605-1.42-9.542-22.953-8.124-30.69h-6.963s-12.51 49.257 27.08 40.102c-1.547 8.64 8.382 22.694-1.16 39.844 15.088 4.126 29.015 5.03 41.008-.13-2.064-2.837 4.255-31.463-8.253-52.094-2.58-3.997-15.733-3.353-17.022-3.224z"/><linearGradient id="L" gradientUnits="userSpaceOnUse"/></defs></svg>