<svg width="14" height="16" viewBox="0 0 14 16" fill="none" xmlns="http://www.w3.org/2000/svg">
<path d="M12.0331 6.8575H11.8427V3.90444C11.8427 1.75153 9.63791 0 6.92778 0C4.21766 0 2.01294 1.75153 2.01294 3.90444V6.8575H1.82259C1.06854 6.8575 0.455078 7.34487 0.455078 7.94387V13.8495C0.455078 15.0353 1.66941 16 3.16201 16H10.6936C12.1862 16 13.4005 15.0353 13.4005 13.8495V7.94387C13.4006 7.34487 12.7871 6.8575 12.0331 6.8575ZM7.51697 12.0477V12.8252C7.51697 13.0837 7.25318 13.2933 6.92778 13.2933C6.60239 13.2933 6.3386 13.0837 6.3386 12.8252V12.0477C5.69441 11.8571 5.23425 11.3637 5.23425 10.7864C5.23425 10.0446 5.99396 9.44103 6.92778 9.44103C7.86161 9.44103 8.62132 10.0446 8.62132 10.7864C8.62136 11.3637 8.1612 11.8571 7.51697 12.0477ZM8.90836 6.8575H4.94725V3.88756C4.94725 3.01997 5.83571 2.31416 6.92782 2.31416C8.01994 2.31416 8.9084 3.01997 8.9084 3.88756L8.90836 6.8575Z" fill="#73728F"/>
</svg>
