<svg width="235" height="120" viewBox="0 0 235 120" fill="none" xmlns="http://www.w3.org/2000/svg">
<path opacity="0.4" d="M71.1963 39.7565C39.7262 36.9653 -25.7173 52.7572 -6.72207 138.126L0.347482 265.89L175.547 246.471C181.412 233.926 193.406 205.375 194.467 191.539C195.793 174.244 199.465 160.773 206.811 150.468C214.156 140.162 238.191 132.929 228.086 116.307C214.362 93.7339 164.765 97.8276 142.433 86.0547C116.703 72.4903 102.666 42.5477 71.1963 39.7565Z" fill="url(#paint0_linear)"/>
<path d="M32.5762 15.6347C2.37791 6.34913 -64.9196 8.16182 -64.1245 95.6143L-83.8251 222.049L91.5762 239.552C99.9255 228.504 117.604 203.078 121.524 189.766C126.424 173.127 132.822 160.716 142.153 152.167C151.483 143.618 176.499 141.551 170.077 123.188C161.357 98.2513 111.995 91.9234 92.6055 75.7568C70.2657 57.1301 62.7744 24.9203 32.5762 15.6347Z" fill="url(#paint1_linear)"/>
<defs>
<linearGradient id="paint0_linear" x1="228.113" y1="35.0005" x2="11.5516" y2="291.79" gradientUnits="userSpaceOnUse">
<stop stop-color="#1C8EF4"/>
<stop offset="1" stop-color="#00CFDD"/>
</linearGradient>
<linearGradient id="paint1_linear" x1="187.041" y1="43.6709" x2="-78.262" y2="249.714" gradientUnits="userSpaceOnUse">
<stop stop-color="#1C8EF4"/>
<stop offset="1" stop-color="#00CFDD"/>
</linearGradient>
</defs>
</svg>
