<svg width="170" height="144" viewBox="0 0 170 144" fill="none" xmlns="http://www.w3.org/2000/svg">
<path d="M114.178 49.561C128.519 32.8884 138.79 -13.7972 54.3784 -50.2876L-63.9365 -117.27L-112.126 -5.00349C-102.97 5.37213 -81.6269 28.2014 -69.5 36.513C-54.3413 46.9025 -43.5248 56.5233 -36.9531 66.51C-30.3815 76.4967 -32.8566 94.4403 -14.0155 97.8348C11.5712 102.445 26.4837 71.4439 45.5245 65.0603C67.4627 57.7053 99.838 66.2335 114.178 49.561Z" fill="url(#paint0_linear)"/>
<path opacity="0.2" d="M143.317 26.5325C156.751 6.77116 162.105 -44.8929 66.4911 -73.9201L-69.4707 -131.703L-107.707 -4.57898C-96.548 5.49808 -70.7012 27.5233 -56.5879 35.007C-38.9462 44.3617 -26.0868 53.4198 -17.7653 63.3945C-9.4438 73.3691 -9.912 93.0452 10.8461 94.3957C39.036 96.2297 51.328 60.9292 71.1006 51.6986C93.8819 41.0633 129.882 46.2939 143.317 26.5325Z" fill="url(#paint1_linear)"/>
<defs>
<linearGradient id="paint0_linear" x1="59.5785" y1="143.082" x2="32.5152" y2="-137.174" gradientUnits="userSpaceOnUse">
<stop stop-color="#1C8EF4"/>
<stop offset="1" stop-color="#00CFDD"/>
</linearGradient>
<linearGradient id="paint1_linear" x1="95.8569" y1="134.206" x2="32.2152" y2="-165.038" gradientUnits="userSpaceOnUse">
<stop stop-color="#1C8EF4"/>
<stop offset="1" stop-color="#00CFDD"/>
</linearGradient>
</defs>
</svg>
