<svg width="17" height="17" viewBox="0 0 17 17" fill="none" xmlns="http://www.w3.org/2000/svg">
<path d="M6.48365 4.69136L6.48392 4.69108C6.48583 4.68912 6.48617 4.68873 6.48672 4.68811C6.48737 4.68736 6.48833 4.68626 6.49272 4.68164L6.49381 4.68049L6.49382 4.6805L8.97556 2.14756C10.5935 0.496215 13.2547 0.482611 14.8895 2.11738C16.4916 3.71948 16.505 6.35343 14.9194 7.97182L12.4973 10.4439L12.4972 10.4439L12.4258 10.374C12.4096 10.3905 12.3816 10.3757 12.3866 10.353L6.48365 4.69136ZM6.48365 4.69136C4.67239 6.56537 5.06688 9.67333 7.14304 11.0519M6.48365 4.69136L12.1412 7.74488C12.1044 7.63831 12.1297 7.51957 12.2091 7.43793L12.2808 7.50764L12.2091 7.43793L13.3471 6.26764L13.3474 6.26737C14.0575 5.54265 14.0455 4.36814 13.3208 3.65807L13.32 3.65735C12.6029 2.94017 11.4351 2.94614 10.7253 3.67061L8.95841 5.47397L8.95927 5.47426L8.85054 5.58833C8.76528 5.67779 8.67708 5.76702 8.58847 5.85665C8.41096 6.03621 8.23182 6.21742 8.07139 6.40551C7.83163 6.68662 7.64968 6.96586 7.59182 7.24619L7.57535 7.32597H7.57479C7.49573 7.74737 7.56331 8.15444 7.74507 8.52209L7.75045 8.53238C7.91459 8.84681 8.20791 9.14568 8.49852 9.30312L8.45088 9.39104L8.49852 9.30312C8.62728 9.37288 8.67883 9.53771 8.59883 9.66771C8.27718 10.1904 7.91036 10.6002 7.48103 11.0197L7.41114 10.9482L7.48102 11.0197C7.39035 11.1083 7.24947 11.1227 7.14304 11.0519M7.14304 11.0519L7.19838 10.9687L7.14306 11.052C7.14305 11.052 7.14305 11.052 7.14304 11.0519ZM12.3543 10.304C12.3544 10.304 12.3545 10.3039 12.3545 10.3038L12.3544 10.304L12.3543 10.304Z" fill="#73728F" stroke="#73728F" stroke-width="0.2"/>
<path d="M11.4969 8.1705L11.5045 8.16268L11.5456 8.34178C11.782 9.37285 11.6835 10.4351 11.1759 11.3632L11.1594 11.3933L11.1589 11.3936C11.0707 11.5778 10.8721 11.8344 10.6255 12.1185C10.3577 12.427 10.0222 12.78 9.67976 13.1296C9.3905 13.4249 9.09732 13.7168 8.83456 13.9785C8.47173 14.3397 8.16689 14.6433 8.01043 14.8183L8.00738 14.8217L8.0073 14.8216C6.40555 16.4564 3.75806 16.4835 2.12327 14.8817L2.12254 14.881C0.504377 13.2628 0.490809 10.6025 2.09234 8.96792L4.47803 6.53299L4.47805 6.53297C4.56187 6.44746 4.71114 6.52036 4.68692 6.64288L4.68692 6.6429C4.53035 7.43426 4.59852 8.46418 4.8468 9.22596L11.4969 8.1705ZM11.4969 8.1705C11.2403 7.30572 10.6474 6.46721 9.85836 5.93753L9.85836 5.93752C9.80194 5.89965 9.73389 5.88573 9.67165 5.88866L11.4969 8.1705ZM8.37371 7.30393C8.65028 6.73733 9.06808 6.29594 9.49055 5.95435L4.8468 9.22598C4.8812 9.33146 4.855 9.44765 4.77711 9.52775C4.77711 9.52775 4.77711 9.52775 4.77711 9.52775L3.63569 10.7016L3.63543 10.7018C2.92535 11.4265 2.93734 12.6011 3.66206 13.3111C4.38677 14.0212 5.56125 14.0092 6.27132 13.2845C6.45471 13.0972 6.75855 12.7872 7.07636 12.463C7.44413 12.0878 7.8306 11.6935 8.07079 11.448L8.07078 11.448L8.13951 11.3773C8.19943 11.3156 8.2606 11.2536 8.32215 11.1912C8.54059 10.9698 8.76389 10.7435 8.95401 10.5077C9.19775 10.2055 9.37494 9.9017 9.41502 9.59392L9.42637 9.50684H9.42909C9.4814 9.11572 9.38876 8.75375 9.27888 8.5238L9.22838 8.42956C9.05004 8.09673 8.78313 7.84496 8.48579 7.67234C8.35744 7.59783 8.30857 7.43733 8.37371 7.30393ZM8.37371 7.30393L8.46357 7.3478M8.37371 7.30393L8.46357 7.3478M8.46357 7.3478C8.42145 7.43406 8.45299 7.53767 8.536 7.58585L8.46357 7.3478ZM11.09 11.3195L11.0875 11.3185L11.0899 11.3193L11.1045 11.3242L11.1784 11.349C11.1776 11.3514 11.1768 11.3535 11.1761 11.3553L11.1148 11.3298L11.09 11.3195Z" fill="#73728F" stroke="#73728F" stroke-width="0.2"/>
</svg>
