<svg width="16" height="16" viewBox="0 0 16 16" fill="none" xmlns="http://www.w3.org/2000/svg">
<g clip-path="url(#clip0)">
<path d="M10.0413 2.60522C9.64087 1.56628 9.13757 0.691284 8.5592 0.0203857C8.36926 0.006958 8.1781 0 7.98596 0C7.7937 0 7.60254 0.006958 7.41272 0.0203857C6.83423 0.691284 6.33093 1.56616 5.93066 2.60522C5.80139 2.94067 5.68518 3.28845 5.58203 3.64636H10.3899C10.2866 3.28845 10.1704 2.94067 10.0413 2.60522Z" fill="#73728F"/>
<path d="M5.34656 11.4161H10.6248C10.8265 10.4784 10.9437 9.48596 10.9713 8.46875H5C5.02759 9.48608 5.14478 10.4784 5.34656 11.4161Z" fill="#73728F"/>
<path d="M10.6248 4.58398H5.34656C5.14478 5.52173 5.02759 6.51416 5 7.53137H10.9713C10.9437 6.51404 10.8265 5.52173 10.6248 4.58398Z" fill="#73728F"/>
<path d="M5.93054 13.3947C6.33093 14.4336 6.83423 15.3086 7.4126 15.9795C7.60254 15.9929 7.7937 15.9999 7.98596 15.9999C8.1781 15.9999 8.36926 15.9929 8.5592 15.9795C9.13757 15.3086 9.64087 14.4337 10.0411 13.3947C10.1704 13.0592 10.2866 12.7114 10.3898 12.3535H5.58203C5.68518 12.7114 5.80139 13.0592 5.93054 13.3947Z" fill="#73728F"/>
<path d="M11.582 4.58374C11.7711 5.51978 11.8839 6.51074 11.9104 7.53113H15.973C15.9137 6.49707 15.6588 5.49988 15.2252 4.58301C15.2207 4.58313 15.2163 4.58374 15.2118 4.58374H11.582Z" fill="#73728F"/>
<path d="M4.39111 11.4161C4.2019 10.4801 4.08911 9.48914 4.06262 8.46875H0C0.0593262 9.50281 0.314209 10.5 0.747803 11.4169C0.752319 11.4167 0.756714 11.4161 0.76123 11.4161H4.39111Z" fill="#73728F"/>
<path d="M11.361 12.3535C11.012 13.6549 10.5085 14.8215 9.88086 15.7749C11.2933 15.4333 12.5891 14.7103 13.6427 13.6567C14.0442 13.2552 14.3972 12.8184 14.7 12.3535H11.361Z" fill="#73728F"/>
<path d="M4.61047 3.64648C4.95959 2.34509 5.46289 1.17847 6.09058 0.225098C4.67822 0.56665 3.38232 1.28967 2.32861 2.34326C1.92725 2.74475 1.57422 3.18164 1.27148 3.64648H4.61047Z" fill="#73728F"/>
<path d="M4.61047 12.3535H1.27148C1.57422 12.8184 1.92725 13.2552 2.32861 13.6567C3.38232 14.7103 4.6781 15.4333 6.09045 15.7749C5.46289 14.8215 4.95959 13.6549 4.61047 12.3535Z" fill="#73728F"/>
<path d="M11.361 3.64648H14.7C14.3972 3.18164 14.0443 2.74475 13.6428 2.34326C12.5891 1.28967 11.2933 0.56665 9.88086 0.225098C10.5085 1.17847 11.012 2.34509 11.361 3.64648Z" fill="#73728F"/>
<path d="M11.9104 8.46875C11.8839 9.48914 11.7712 10.4801 11.582 11.4161H15.2118C15.2163 11.4161 15.2207 11.4167 15.2252 11.4169C15.6588 10.5 15.9137 9.50281 15.973 8.46875H11.9104Z" fill="#73728F"/>
<path d="M4.06262 7.53113C4.08911 6.51074 4.2019 5.51978 4.39111 4.58374H0.76123C0.756714 4.58374 0.752319 4.58313 0.747803 4.58301C0.314209 5.49988 0.0593262 6.49707 0 7.53113H4.06262Z" fill="#73728F"/>
</g>
<defs>
<clipPath id="clip0">
<rect width="16" height="16" fill="white"/>
</clipPath>
</defs>
</svg>
