<svg xmlns="http://www.w3.org/2000/svg" width="60" height="52" fill="none" xmlns:v="https://vecta.io/nano"><path d="M51.34 28.034H46.7a12.07 12.07 0 0 1 .731 4.149V49.72a5.17 5.17 0 0 1-.298 1.732h7.67c2.866 0 5.197-2.33 5.197-5.197v-9.56c0-4.776-3.885-8.66-8.66-8.66z" fill="url(#A)"/><path d="M12.57 32.183a12.07 12.07 0 0 1 .731-4.149H8.66c-4.776 0-8.66 3.886-8.66 8.66v9.56c0 2.865 2.33 5.197 5.197 5.197h7.67c-.192-.542-.298-1.125-.298-1.732V32.183z" fill="url(#A)"/><path d="M35.304 23.52H24.696c-4.776 0-8.66 3.886-8.66 8.66V49.72c0 .957.775 1.732 1.732 1.732h24.466c.957 0 1.732-.776 1.732-1.732V32.183c0-4.776-3.885-8.66-8.66-8.66z" fill="url(#A)"/><path d="M30 .556a10.43 10.43 0 0 0-10.416 10.416c0 3.896 2.15 7.3 5.326 9.085a10.35 10.35 0 0 0 10.181 0c3.176-1.786 5.326-5.19 5.326-9.085A10.43 10.43 0 0 0 30 .556z" fill="url(#A)"/><path d="M11.71 10.264a7.8 7.8 0 0 0-7.79 7.79 7.8 7.8 0 0 0 7.79 7.79c1.1 0 2.127-.226 3.07-.63a7.84 7.84 0 0 0 3.805-3.499 7.74 7.74 0 0 0 .916-3.659 7.8 7.8 0 0 0-7.79-7.79z" fill="url(#A)"/><path d="M48.29 10.264a7.8 7.8 0 0 0-7.79 7.79 7.74 7.74 0 0 0 .916 3.659c.83 1.556 2.175 2.798 3.805 3.5.943.406 1.98.63 3.07.63a7.8 7.8 0 0 0 7.79-7.79 7.8 7.8 0 0 0-7.79-7.79z" fill="url(#A)"/><defs><linearGradient id="A" x1="0" y1="51.449" x2="53.149" y2="-8.222" gradientUnits="userSpaceOnUse"><stop stop-color="#6d40bb"/><stop offset="1" stop-color="#a560d7"/></linearGradient></defs></svg>