<svg xmlns="http://www.w3.org/2000/svg" width="1920" height="434" fill="none" xmlns:v="https://vecta.io/nano"><g clip-path="url(#D)"><path fill-rule="evenodd" d="M-71.99 168.215l48.408-9.667c46.826-9.908 142.062-29.483 234.76-32.403 94.28-2.678 184.438 11.058 272.06 41.45 40.89 14.183 81.228 31.993 121.566 49.803 46.1 20.355 92.2 40.71 139.125 55.65 87.985 28.012 180.45 37.23 272.423 39.07 55.18 1.104 110.76-.362 166.33-1.828l111.04-2.17c92.33-.54 183.94 3.68 274.96 22.415 89.43 18.496 176.7 51.267 219.53 67.532l166.68 71.767 30.54-89.718 11.4 1.737-63.7 418.12L-120.572 487.08l48.58-318.864z" fill="url(#B)"/><g opacity=".5" stroke="#d9d9d9"><path opacity=".3" d="M-265 230.605l49.173-23.726c47.616-23.937 144.406-71.6 237.15-89.418 94.3-17.607 182.997-5.58 267.647 36.29s165.255 113.585 250.483 151.19 176.638 41.317 268.225 32.026 184.91-31.374 277.073-44.928c92.17-13.555 183.18-18.583 272.27 2.18 87.54 20.552 171.62 66.686 212.87 89.648l159.76 104.36"/><path opacity=".3" d="M-79.59 207.432l50.463-19.105c48.85-19.335 148.165-57.775 243.78-70.4 97.23-12.403 189.148.77 277.368 39.746s172.744 103.76 261.493 139.05 183.336 41.32 277.893 36.06 190.7-21.582 285.8-30.53c95.08-8.948 189.12-10.522 281.6 10.253 90.86 20.545 178.55 63.208 221.6 84.425l166.9 95.576"/></g><g filter="url(#A)"><path d="M1629.17 340.87c-4.68-4.74-17.73-11.77-20.3-11.555s-5 7.313-5.34 8.624-3.86 12.474.8 18.197c1.74 2.155 21.17-3.75 26.08-6.13 4.9-2.38 3.45-4.397-1.23-9.137z" fill="url(#C)"/></g></g><defs><filter id="A" x="1591.94" y="324.31" width="71.509" height="67.29" filterUnits="userSpaceOnUse" color-interpolation-filters="sRGB"><feFlood flood-opacity="0" result="A"/><feColorMatrix in="SourceAlpha" values="0 0 0 0 0 0 0 0 0 0 0 0 0 0 0 0 0 0 127 0"/><feOffset dx="10" dy="15"/><feGaussianBlur stdDeviation="10"/><feColorMatrix values="0 0 0 0 0 0 0 0 0 0 0 0 0 0 0 0 0 0 0.13 0"/><feBlend in2="A"/><feBlend in="SourceGraphic"/></filter><linearGradient id="B" x1="914.294" y1="552.008" x2="648.131" y2="-20.702" gradientUnits="userSpaceOnUse"><stop stop-color="#603bbc"/><stop offset="1" stop-color="#30057b"/></linearGradient><linearGradient id="C" x1="1634.29" y1="348.368" x2="1595.56" y2="331.238" gradientUnits="userSpaceOnUse"><stop stop-color="#1c8ef4"/><stop offset="1" stop-color="#00cfdd"/></linearGradient><clipPath id="D"><path fill="#fff" d="M0 0h1920v434H0z"/></clipPath></defs></svg>