<svg xmlns="http://www.w3.org/2000/svg" width="340" height="223" fill="none" xmlns:v="https://vecta.io/nano"><g clip-path="url(#C)"><path d="M34.783 51.287L12.73 28.468l16.6 23.868-15.933 4.022-.667-27.9L47.91 49.22l-13.128 2.068z" fill="#08bde4"/><path d="M29.33 52.336l-.328 9.352 5.782-10.4L12.73 28.47l16.6 23.868z" fill="#1b92f3"/><path d="M29.33 52.336l-.287 9.366-5.965-7.787 6.252-1.578z" fill="#0971c8"/></g><path d="M30.816 63.962c22.853 20.17 23.21 37.583 35.88 50.875s28.744 17.763 34.167 17.47 13.084-4.172 12.014-12.535-10.588-11.587-15.985-6.297-6.487 17.116 7.737 27.915c11.38 8.64 20.233 9.567 33.53 8.414s25.89-7.897 25.89-7.897" stroke="#dcdcdc" stroke-linecap="round" stroke-linejoin="round" stroke-dasharray="1.9 2.9"/><g filter="url(#A)"><path d="M143.88 92.474c22.707-23 86.033-57.112 98.504-56.063s24.307 35.482 25.903 41.844 18.718 60.526-3.82 88.295c-8.486 10.456-102.764-18.192-126.55-29.74s-16.745-21.335 5.963-44.335z" fill="url(#B)"/></g><defs><filter id="A" x="109.001" y=".772" width="230.671" height="221.972" filterUnits="userSpaceOnUse" color-interpolation-filters="sRGB"><feFlood flood-opacity="0" result="A"/><feColorMatrix in="SourceAlpha" values="0 0 0 0 0 0 0 0 0 0 0 0 0 0 0 0 0 0 127 0"/><feOffset dx="10" dy="15"/><feGaussianBlur stdDeviation="10"/><feColorMatrix values="0 0 0 0 0 0 0 0 0 0 0 0 0 0 0 0 0 0 0.13 0"/><feBlend in2="A"/><feBlend in="SourceGraphic"/></filter><linearGradient id="B" x1="119.004" y1="128.864" x2="306.93" y2="45.743" gradientUnits="userSpaceOnUse"><stop stop-color="#1c8ef4"/><stop offset="1" stop-color="#00cfdd"/></linearGradient><clipPath id="C"><path fill="#fff" transform="matrix(-.946338 -.32318 -.32318 .946338 52.8164 34.8555)" d="M0 0h40v40H0z"/></clipPath></defs></svg>