<svg xmlns="http://www.w3.org/2000/svg" width="60" height="61" fill="none" xmlns:v="https://vecta.io/nano"><g clip-path="url(#C)"><path d="M43.184 25.526l-3.366-1.392a17.32 17.32 0 0 0-.002-3.289l3.365-1.397c1.492-.62 2.202-2.337 1.584-3.828l-1.67-4.026c-.618-1.5-2.335-2.2-3.83-1.583L35.9 11.408a17.4 17.4 0 0 0-2.328-2.324l1.39-3.365a2.91 2.91 0 0 0-.001-2.244 2.91 2.91 0 0 0-1.587-1.584L29.35.225c-1.492-.617-3.208.096-3.826 1.59L24.13 5.18c-1.09-.104-2.193-.103-3.29.002l-1.397-3.364C18.826.325 17.11-.385 15.617.234l-4.026 1.67c-1.5.618-2.2 2.335-1.583 3.83l1.396 3.363c-.848.702-1.628 1.482-2.325 2.328l-3.364-1.39a2.91 2.91 0 0 0-2.244 0 2.91 2.91 0 0 0-1.584 1.586L.222 15.65c-.616 1.492.096 3.208 1.59 3.826l3.366 1.392c-.104 1.09-.103 2.193.002 3.29l-3.364 1.396A2.91 2.91 0 0 0 .23 27.138a2.91 2.91 0 0 0 .001 2.243l1.67 4.026a2.91 2.91 0 0 0 1.588 1.584 2.91 2.91 0 0 0 2.241-.002l3.364-1.395a17.34 17.34 0 0 0 2.328 2.325l-1.39 3.364a2.91 2.91 0 0 0 1.587 3.828l4.028 1.666c1.49.616 3.207-.096 3.827-1.59l1.392-3.366c1.096.104 2.2.103 3.29-.002l1.396 3.365a2.91 2.91 0 0 0 1.586 1.584 2.92 2.92 0 0 0 1.248.221c.337-.015.673-.09.995-.223l4.026-1.67c1.492-.62 2.2-2.337 1.582-3.83L33.6 35.904a17.39 17.39 0 0 0 2.324-2.328l3.365 1.39a2.91 2.91 0 0 0 3.828-1.588l1.666-4.027c.616-1.49-.095-3.207-1.588-3.827zm-23.93-10.84c4.31-1.788 9.27.263 11.056 4.57.866 2.087.867 4.387.004 6.475a8.4 8.4 0 0 1-4.576 4.581c-.935.388-1.9.595-2.858.637-3.453.153-6.797-1.836-8.197-5.21-1.787-4.308.264-9.267 4.57-11.056z" fill="url(#A)"/><path d="M60 48.164a1.76 1.76 0 0 0-1.755-1.761L55.89 46.4a7.84 7.84 0 0 0-1.022-2.479l1.67-1.662a1.76 1.76 0 0 0 .005-2.486 1.76 1.76 0 0 0-2.486-.005l-1.67 1.663c-.76-.483-1.596-.83-2.475-1.03l.004-2.356a1.76 1.76 0 0 0-1.755-1.761 1.76 1.76 0 0 0-1.761 1.755l-.004 2.356c-.88.196-1.716.54-2.48 1.022l-1.662-1.67a1.76 1.76 0 0 0-2.486-.005 1.76 1.76 0 0 0-.005 2.486l1.663 1.67a7.84 7.84 0 0 0-1.03 2.475l-2.356-.004a1.76 1.76 0 0 0-1.761 1.755 1.76 1.76 0 0 0 1.63 1.756l.124.005 2.356.004c.196.88.54 1.716 1.022 2.48l-1.67 1.662a1.76 1.76 0 0 0-.005 2.486 1.75 1.75 0 0 0 1.119.513c.5.035.992-.134 1.367-.508l1.668-1.66a7.84 7.84 0 0 0 2.476 1.029l-.004 2.355A1.76 1.76 0 0 0 47.995 60l.124.005a1.76 1.76 0 0 0 1.761-1.755l.004-2.356c.88-.196 1.716-.54 2.48-1.022l1.662 1.67a1.75 1.75 0 0 0 1.119.513c.5.035.992-.134 1.367-.508a1.76 1.76 0 0 0 .005-2.486l-1.663-1.67c.483-.76.83-1.596 1.03-2.475l2.356.004A1.76 1.76 0 0 0 60 48.164zm-8.735 3.116a4.4 4.4 0 0 1-3.134 1.291c-1.182-.002-2.293-.464-3.128-1.3a4.4 4.4 0 0 1-1.291-3.133c.002-1.183.464-2.294 1.3-3.13a4.4 4.4 0 0 1 3.134-1.291l.316.012a4.39 4.39 0 0 1 2.812 1.29 4.4 4.4 0 0 1 1.291 3.134c-.002 1.182-.464 2.293-1.3 3.128z" fill="url(#B)"/></g><defs><linearGradient id="A" x1="0" y1="44.995" x2="47.244" y2=".001" gradientUnits="userSpaceOnUse"><stop stop-color="#1c8ef4"/><stop offset="1" stop-color="#00cfdd"/></linearGradient><linearGradient id="B" x1="36.279" y1="60.003" x2="61.186" y2="36.282" gradientUnits="userSpaceOnUse"><stop stop-color="#1c8ef4"/><stop offset="1" stop-color="#00cfdd"/></linearGradient><clipPath id="C"><path fill="#fff" transform="translate(0 .004)" d="M0 0h60v60H0z"/></clipPath></defs></svg>